<?xml version="1.0" encoding="UTF-8"?>
<svg className="w-full h-full" viewBox="0 0 568 568" version="1.1" xmlns="http://www.w3.org/2000/svg">
    <polygon fill="#FFFFFF" points="0 0 568 0 568 568 0 568"></polygon>
    <path d="M439.543805,461.060687 C439.757914,463.894586 439.586516,466.859945 439.579859,469.706602 C439.559336,478.753 439.227633,486.801516 434.301453,494.717461 C434.010797,495.178221 433.708862,495.631586 433.395648,496.077555 C433.082805,496.523523 432.759052,496.961542 432.424391,497.391609 C432.089729,497.821307 431.744529,498.242685 431.388789,498.655742 C431.033419,499.06843 430.668065,499.472242 430.292727,499.86718 C429.917018,500.262117 429.532065,500.64744 429.137867,501.023148 C428.743299,501.398857 428.339672,501.764581 427.926984,502.12032 C427.514297,502.47643 427.093104,502.822 426.663406,503.157031 C426.234078,503.492062 425.79643,503.816185 425.350461,504.129398 C424.904862,504.442982 424.451867,504.745286 423.991477,505.036312 C423.530716,505.327339 423.063115,505.606716 422.588672,505.874445 C422.114229,506.142544 421.6335,506.398625 421.146484,506.642687 C420.659469,506.88712 420.166721,507.119164 419.668242,507.33882 C419.169763,507.558846 418.666107,507.766299 418.157273,507.96118 C417.64844,508.15606 417.135169,508.338182 416.617461,508.507547 C416.099753,508.677281 415.578161,508.834073 415.052687,508.977922 C414.527214,509.121771 413.998411,509.252492 413.466281,509.370086 C406.208195,510.980344 391.5295,510.253703 383.557531,510.268125 L314.279281,509.927547 L212.28168,509.855437 L180.069313,509.837133 C174.184078,509.833805 168.127445,510.103383 162.26107,509.677383 C156.623781,509.268023 151.313758,507.605625 146.567852,504.506586 C146.128539,504.217409 145.696622,503.917693 145.272102,503.607437 C144.847211,503.296812 144.430456,502.976018 144.021836,502.645055 C143.613216,502.314091 143.212917,501.973143 142.820938,501.622211 C142.428958,501.271279 142.046039,500.911102 141.67218,500.54168 C141.297951,500.171888 140.933151,499.793036 140.577781,499.405125 C140.222411,499.017583 139.876841,498.621352 139.54107,498.21643 C139.20493,497.811508 138.879143,497.398635 138.563711,496.977812 C138.248279,496.55699 137.94357,496.128586 137.649586,495.692602 C137.355232,495.256617 137.071786,494.813607 136.79925,494.36357 C136.527083,493.913904 136.26601,493.457581 136.016031,492.994602 C135.766052,492.531622 135.527721,492.062911 135.301039,491.588469 C135.074357,491.114026 134.859508,490.634036 134.656492,490.1485 C134.453477,489.663333 134.262664,489.173544 134.084055,488.679133 C133.905076,488.184352 133.738484,487.685503 133.584281,487.182586 C133.430078,486.679669 133.288448,486.17324 133.159391,485.663297 C133.030333,485.153354 132.913849,484.640638 132.809938,484.125148 C131.604602,478.241578 131.982344,471.965844 131.992328,465.985758 L131.998984,444.669672 L132.231953,357.075086 L132.267453,255.510695 L132.275773,226.267016 C132.276328,216.553883 132.217531,206.95557 133.267,197.278492 C135.811906,173.820203 141.584539,150.406289 146.752563,127.41782 L150.629273,110.158719 C151.418039,106.623141 152.378203,103.017117 152.830273,99.4232969 C153.269586,95.9287656 152.932891,92.2129141 152.885742,88.6900937 L152.761492,71.6240234 C152.749844,68.8633437 152.508555,65.9051953 152.930672,63.1789062 C153.213563,61.3545391 153.807078,59.5434844 154.864313,58.015875 C156.773547,55.2561937 159.986297,53.4859641 163.28225,53.0384977 C165.639117,52.7186094 168.256688,52.9284477 170.646836,52.9351594 L184.60943,52.9439789 L234.285023,52.8801898 L346.445055,52.7179992 L383.573617,52.6996391 C390.383516,52.6872695 397.338742,52.3895687 404.135328,52.7459 C406.869383,52.8892312 409.428156,53.6854852 411.580344,55.4339711 C411.825516,55.6339174 412.062737,55.8431641 412.292008,56.0617109 C412.520909,56.2806276 412.74112,56.5078646 412.952641,56.7434219 C413.163792,56.979349 413.365513,57.2230417 413.557805,57.4745 C413.750096,57.7259583 413.932404,57.9844427 414.104727,58.2499531 C414.277049,58.5158333 414.438648,58.7878151 414.589523,59.0658984 C414.740398,59.3443516 414.880365,59.6281667 415.009422,59.9173437 C415.138109,60.2065208 415.255518,60.5003203 415.361648,60.7987422 C415.467409,61.0967943 415.561521,61.3987292 415.643984,61.7045469 C416.588063,65.1369531 415.984008,85.1284453 415.978461,90.2260234 C415.976242,92.7293281 415.871961,95.3097344 416.133219,97.8008359 C416.934187,105.435555 419.955016,115.641805 421.794914,123.249344 L431.645609,163.600641 C434.349156,174.799781 437.365547,186.445445 438.398375,197.935242 C440.32425,210.404617 439.566547,223.486367 439.568211,236.072781 L439.553789,293.547281 L439.531047,393.447609 C439.594281,415.955719 440.006414,438.560898 439.543805,461.060687 Z" id="Shape" fill="#F2E6E6"></path>
    <path d="M165.485469,103.211813 L401.618156,103.165219 C397.639937,123.020813 393.231281,142.782664 389.411148,162.672094 C386.757523,176.487695 384.171016,190.475805 383.113781,204.516609 C382.369945,214.398922 382.648398,224.382188 382.650062,234.287797 L382.660047,279.706719 L382.478664,418.182234 L382.433734,456.953781 C382.424305,464.436516 382.763219,472.14168 382.133094,479.592797 C381.67825,484.971047 379.786211,490.384242 375.11907,493.540414 C373.107219,494.901063 370.34432,496.080328 367.935867,496.371539 C362.318547,497.051586 356.459383,496.775352 350.803234,496.785891 L322.552445,496.789773 L240.969008,496.745398 L214.108266,496.733195 C209.443344,496.73375 204.723508,496.574 200.066906,496.772578 C195.989398,496.574555 191.843664,496.714891 187.758945,496.710453 L165.778344,496.722656 C159.852617,496.453633 154.574211,495.695375 150.33418,491.119203 C147.202414,487.738938 145.784078,483.304211 145.338664,478.797375 C144.799508,473.342023 145.054664,467.731359 145.054109,462.250492 L145.063539,435.20393 L145.211086,348.85018 L145.054664,253.957016 C145.058547,237.997547 144.634211,221.811766 145.510062,205.878367 C146.319352,191.157516 149.426156,176.433891 152.398172,162.017008 C156.560547,142.371086 160.922979,122.769354 165.485469,103.211813 Z" id="Shape" fill="#FCFCFA"></path>
    <path d="M291.627508,221.057766 C292.385766,221.04057 293.138477,221.057766 293.861789,221.311813 C300.432062,223.617648 306.97793,232.219188 309.938297,238.246422 C318.839367,256.368063 317.14757,281.452695 310.673812,300.246062 C304.185633,319.081586 291.778937,336.821602 273.546359,345.735984 C271.790219,346.483703 270.026867,347.159312 268.198617,347.711227 C265.308141,348.584305 257.086562,350.610023 254.493398,348.667508 C253.537672,347.951406 253.394008,345.892406 253.316352,344.81132 C253.0085,340.51582 253.288617,336.015086 253.575945,331.720695 C254.944359,311.277688 260.926664,292.336219 270.450094,274.245086 C275.359078,264.920234 281.197164,256.059656 284.98457,246.177344 C286.790633,241.463609 288.318797,236.591234 289.229039,231.621234 C289.751,228.771805 289.932937,225.813102 290.55918,222.99307 C290.742781,222.167695 291.083359,221.692328 291.627508,221.057766 Z" id="Shape" fill="#F2E6E6"></path>
    <path d="M272.79032,217.323055 C275.500523,216.824945 279.520898,217.004664 282.223891,217.714109 C283.122484,217.949852 284.425445,218.416898 284.815391,219.357648 C285.550352,221.13043 284.732742,224.068055 284.297312,225.864133 C280.912055,239.828391 272.84357,251.602187 265.964891,263.989469 C263.343437,268.710969 260.886172,273.451328 258.695711,278.390266 C251.216305,295.251656 244.481844,317.251117 247.324617,335.798203 C247.721219,338.383047 249.096289,343.302016 247.720664,345.641687 C247.254172,346.434891 246.523094,346.949086 245.61618,347.102734 C242.320781,347.660195 238.081859,344.68707 235.56968,342.800023 C225.181492,334.110289 219.418289,322.222227 217.807477,308.846492 C214.888156,284.610531 222.939445,259.325656 237.942633,240.268812 C246.566359,229.315398 258.471617,219.028719 272.79032,217.323055 Z" id="Shape" fill="#F2E6E6"></path>
    <path d="M409.486398,128.901055 C411.236992,130.689367 423.012453,183.451242 423.996469,188.898828 C425.204578,195.582258 426.184711,202.262359 426.465938,209.053953 C426.746609,215.83057 426.565227,222.677633 426.562453,229.46257 L426.566891,264.542672 L426.566336,372.995727 L426.564672,442.838094 L426.569109,464.564648 C426.571328,469.197398 426.760477,473.938867 426.302859,478.551648 C425.838586,483.224336 424.409156,487.491547 421.157023,490.968883 C417.312484,495.079117 412.485594,496.551258 407.000844,496.762039 C401.163313,497.036609 395.31025,496.959508 389.467727,496.956734 C392.470805,492.309563 394.50207,487.403352 395.156602,481.876445 C396.085703,474.0315 395.493852,465.637414 395.498289,457.725906 L395.51493,412.879977 L395.524914,277.736469 L395.526023,234.192945 C395.52325,225.021188 395.28307,215.781203 395.823891,206.624422 C396.759648,190.778109 400.084445,174.767055 403.133008,159.203633 C405.10825,149.118859 406.892125,138.843273 409.486398,128.901055 Z" id="Shape" fill="#FFFFFF"></path>
    <path d="M400.955305,65.3127891 C401.600961,65.2789531 402.015867,65.2123906 402.586641,65.5496406 C402.905031,68.2809219 402.70368,71.2124453 402.698687,73.9675781 L402.660414,89.8943203 C381.425312,90.4295938 360.176898,89.9708672 338.937914,90.0668281 L167.723633,90.1156406 C167.122906,90.1422656 166.753484,90.1467031 166.197687,89.9048594 C165.700133,87.3998906 166.007984,84.3468906 165.997445,81.7786875 L165.929773,65.5685 C188.258719,64.9999453 211.190609,65.4841875 233.585562,65.4592266 L400.955305,65.3127891 Z" id="Shape" fill="#FCFCFA"></path>
</svg>