<?xml version="1.0" encoding="UTF-8"?>
<svg width="568px" height="568px" viewBox="0 0 568 568" version="1.1" xmlns="http://www.w3.org/2000/svg">
    <polygon id="Shape" fill="#FFFFFF" fill-rule="nonzero" points="0 0 568 0 568 568 0 568"></polygon>
    <ellipse id="Oval-4" fill="#E5D7DD" cx="284.5" cy="445.5" rx="151.5" ry="25.5"></ellipse>
    <path d="M402.617471,411.702314 C402.781668,413.875587 402.650225,416.149675 402.645121,418.332731 C402.629382,425.270275 402.375004,431.442557 398.597193,437.513173 C398.374293,437.866523 398.142744,438.214201 397.902545,438.556208 C397.66263,438.898214 397.414349,439.234123 397.157703,439.563936 C396.901056,439.893464 396.636327,440.216612 396.363516,440.53338 C396.090988,440.849863 395.810804,441.159541 395.522962,441.462412 C395.234838,441.765284 394.939623,442.060782 394.637319,442.348907 C394.334731,442.637032 394.025195,442.9175 393.708711,443.190311 C393.392228,443.463406 393.069221,443.728418 392.739693,443.985349 C392.410448,444.242279 392.074822,444.490843 391.732815,444.731042 C391.391092,444.971524 391.043698,445.203357 390.690631,445.42654 C390.337281,445.649724 389.978685,445.863974 389.614842,446.069291 C389.250999,446.274892 388.882336,446.471277 388.508851,446.658444 C388.135366,446.845896 387.757486,447.023847 387.37521,447.192298 C386.992934,447.361032 386.606688,447.520125 386.216471,447.669576 C385.826255,447.819026 385.432635,447.958693 385.035613,448.088576 C384.63859,448.218743 384.23859,448.338984 383.835612,448.4493 C383.432634,448.559615 383.027104,448.659863 382.619022,448.750044 C377.052908,449.984926 365.796044,449.427676 359.682464,449.438736 L306.554046,449.177552 L228.333663,449.122253 L203.630497,449.108215 C199.117202,449.105663 194.472464,449.312398 189.973631,448.985705 C185.650481,448.671774 181.578307,447.396906 177.938745,445.020301 C177.601843,444.798536 177.270612,444.568688 176.945054,444.330758 C176.619212,444.092545 176.299609,443.846532 175.986245,443.592722 C175.67288,443.338911 175.365897,443.077443 175.065294,442.808319 C174.764691,442.539194 174.471036,442.26298 174.18433,441.979676 C173.897339,441.696088 173.61758,441.405553 173.345052,441.10807 C173.072525,440.81087 172.807512,440.507006 172.550015,440.196478 C172.292234,439.885949 172.042393,439.569324 171.800493,439.246601 C171.558593,438.923879 171.324917,438.595343 171.099465,438.260993 C170.873729,437.926643 170.656359,437.586905 170.447355,437.241779 C170.238635,436.896937 170.038422,436.54699 169.846717,436.191938 C169.655012,435.836887 169.472239,435.47744 169.2984,435.113597 C169.124561,434.749754 168.959797,434.381658 168.804107,434.009307 C168.648418,433.63724 168.502087,433.261629 168.365114,432.882472 C168.227857,432.503032 168.100101,432.120473 167.981845,431.734794 C167.863589,431.349115 167.754975,430.960741 167.656003,430.569674 C167.557031,430.178607 167.467701,429.785413 167.388013,429.390092 C166.46366,424.878073 166.753344,420.065309 166.761001,415.479274 L166.766106,399.132297 L166.944766,331.957364 L166.97199,254.069204 L166.978371,231.642679 C166.978796,224.193827 166.933706,216.83303 167.738527,209.411828 C169.690176,191.422029 174.117119,173.466261 178.080397,155.83676 L181.053386,142.601022 C181.658278,139.889642 182.394613,137.124238 182.741299,134.368193 C183.078201,131.688291 182.819995,128.838662 182.783837,126.137065 L182.688552,113.04936 C182.679619,110.932237 182.494578,108.663679 182.818293,106.57293 C183.035237,105.173851 183.490395,103.784981 184.301172,102.613481 C185.765334,100.497125 188.229143,99.1395629 190.756758,98.7964078 C192.564203,98.5510904 194.571577,98.7120121 196.404545,98.7171593 L207.112242,98.7239228 L245.207687,98.675004 L331.22148,98.5506225 L359.6948,98.5365424 C364.917206,98.5270564 370.251062,98.2987542 375.463258,98.5720192 C377.559962,98.6819377 379.522246,99.2925725 381.172725,100.633459 C381.360744,100.786795 381.542665,100.947263 381.71849,101.114863 C381.89403,101.282747 382.062907,101.457012 382.225119,101.637657 C382.387047,101.818586 382.541744,102.00547 382.68921,102.198309 C382.836675,102.391149 382.976484,102.589377 383.108636,102.792992 C383.240787,102.996892 383.364715,103.20547 383.480419,103.418728 C383.596123,103.63227 383.70346,103.849923 383.802432,104.071688 C383.901121,104.293454 383.99116,104.518764 384.07255,104.747619 C384.153656,104.976191 384.225829,105.20774 384.289069,105.442267 C385.013068,108.074526 384.549827,123.405692 384.545574,127.314946 C384.543872,129.234692 384.4639,131.213565 384.664255,133.123953 C385.278505,138.9789 387.595132,146.805916 389.006121,152.64002 L396.560467,183.584805 C398.633776,192.173253 400.946999,201.104132 401.739059,209.91548 C403.215983,219.478051 402.634912,229.510242 402.636188,239.162569 L402.625128,283.238874 L402.607687,359.85089 C402.656181,377.112011 402.972239,394.447574 402.617471,411.702314 Z" id="Shape" fill="#F2E6E6" fill-rule="nonzero"></path>
    <path d="M192.446373,137.273547 L373.532878,137.237815 C370.482044,152.464763 367.101113,167.619821 364.171513,182.872717 C362.136489,193.467688 360.152936,204.194953 359.342159,214.962629 C358.771723,222.541221 358.985264,230.197233 358.98654,237.793692 L358.994197,272.62476 L358.855097,378.819491 L358.820642,408.552791 C358.81341,414.291184 359.073318,420.200155 358.590085,425.914302 C358.241272,430.038798 356.790297,434.190094 353.211139,436.610514 C351.668281,437.653974 349.549457,438.558334 347.702452,438.78166 C343.394615,439.303177 338.901313,439.091337 334.5637,439.099419 L312.898607,439.102397 L250.333531,439.068367 L229.734443,439.059008 C226.156987,439.059434 222.537418,438.936924 218.966342,439.08921 C215.839364,438.937349 212.660065,439.044971 209.527557,439.041568 L192.670974,439.050926 C188.126626,438.844616 184.078698,438.26312 180.827083,434.753724 C178.425381,432.161451 177.337681,428.760528 176.9961,425.304305 C176.582629,421.12068 176.778304,416.817949 176.777879,412.614757 L176.785111,391.873166 L176.898262,325.649811 L176.778304,252.877711 C176.781282,240.638642 176.455865,228.226016 177.127542,216.00694 C177.748174,204.717746 180.130734,193.426426 182.409927,182.370342 C185.601988,167.304188 188.94747,152.271923 192.446373,137.273547 Z" id="Shape" fill="#FFFFFF" fill-rule="nonzero"></path>
    <path d="M289.182751,227.647785 C289.764247,227.634599 290.34149,227.647785 290.896187,227.84261 C295.934828,229.61092 300.954752,236.207307 303.225012,240.8295 C310.051105,254.726706 308.753692,273.963723 303.789068,288.376065 C298.813383,302.820737 289.29888,316.425281 275.316598,323.261583 C273.969841,323.834997 272.617554,324.353111 271.215497,324.776365 C268.998836,325.445916 262.693834,326.999408 260.705177,325.509723 C259.972245,324.960556 259.862071,323.38154 259.802518,322.552472 C259.566431,319.25832 259.781249,315.806776 260.001596,312.513474 C261.051012,296.836048 265.638749,282.310129 272.94212,268.436319 C276.706744,261.285234 281.183882,254.490194 284.088385,246.911601 C285.473426,243.296711 286.645352,239.560162 287.343403,235.748746 C287.743686,233.563563 287.883211,231.294579 288.363467,229.131941 C288.504268,228.498973 288.765452,228.134422 289.182751,227.647785 Z" id="Shape" fill="#E5D7DD" fill-rule="nonzero"></path>
    <path d="M274.736803,224.783693 C276.815216,224.401701 279.89838,224.539525 281.971263,225.083587 C282.66038,225.264374 283.659601,225.622545 283.958644,226.343992 C284.522274,227.70351 283.895262,229.95633 283.561338,231.333714 C280.965236,242.042687 274.77764,251.07183 269.502487,260.571444 C267.492135,264.19229 265.607696,267.827598 263.927865,271.615193 C258.192025,284.545932 253.027471,301.416979 255.20755,315.640452 C255.511697,317.622729 256.566217,321.39501 255.511272,323.189268 C255.153526,323.797563 254.592874,324.191892 253.897375,324.309722 C251.370185,324.73723 248.119422,322.457187 246.19287,321.01004 C238.22633,314.346017 233.806618,305.229246 232.571311,294.971602 C230.332529,276.385418 236.506938,256.994839 248.012651,242.38044 C254.626053,233.980436 263.756011,226.091741 274.736803,224.783693 Z" id="Shape" fill="#E5D7DD" fill-rule="nonzero"></path>
    <path d="M379.566911,156.974229 C380.909414,158.345658 389.939833,198.807924 390.69446,202.985594 C391.62094,208.111013 392.372589,213.233879 392.588257,218.442247 C392.8035,223.63913 392.6644,228.890036 392.662273,234.0933 L392.665676,260.995687 L392.665251,344.166657 L392.663975,397.727688 L392.667378,414.389447 C392.66908,417.942231 392.814135,421.578391 392.463195,425.115861 C392.107151,428.699273 391.010943,431.971731 388.516933,434.638446 C385.568615,437.790521 381.866948,438.919483 377.660778,439.081128 C373.184065,439.291692 368.695442,439.232564 364.214901,439.230437 C366.517916,435.666593 368.075662,431.904095 368.577612,427.665596 C369.290125,421.649429 368.836243,415.212135 368.839647,409.144922 L368.852408,374.753272 L368.860065,271.113806 L368.860916,237.720952 C368.858789,230.687272 368.674599,223.601271 369.089345,216.579077 C369.806964,204.426785 372.356699,192.148155 374.694594,180.212808 C376.209377,172.478951 377.577403,164.598763 379.566911,156.974229 Z" id="Shape" fill="#FAF5F5" fill-rule="nonzero"></path>
    <path d="M373.024547,108.209372 C373.519691,108.183424 373.837876,108.132378 374.275594,108.39101 C374.519763,110.485587 374.365349,112.733727 374.361521,114.846596 L374.332169,127.060568 C358.047298,127.471061 341.752218,127.119271 325.46437,127.192862 L194.162786,127.230295 C193.702098,127.250714 193.418794,127.254117 192.992562,127.06865 C192.610995,125.147629 192.847082,122.80633 192.838999,120.836815 L192.787103,108.405473 C209.910826,107.969457 227.496938,108.340815 244.671281,108.321673 L373.024547,108.209372 Z" id="Shape" fill="#FFFFFF" fill-rule="nonzero"></path>
</svg>