<?xml version="1.0" encoding="UTF-8"?>
<svg width="568px" height="568px" viewBox="0 0 568 568" version="1.1" xmlns="http://www.w3.org/2000/svg" xmlns:xlink="http://www.w3.org/1999/xlink">
    <!-- Generator: Sketch 51.3 (57544) - http://www.bohemiancoding.com/sketch -->
    <title>roaster-placeholder</title>
    <desc>Created with Sketch.</desc>
    <defs>
        <linearGradient x1="50%" y1="0%" x2="50%" y2="41.4069377%" id="linearGradient-1">
            <stop stop-color="#FDFBFB" offset="0%"></stop>
            <stop stop-color="#FAF5F5" offset="100%"></stop>
        </linearGradient>
    </defs>
    <g id="roaster-placeholder" stroke="none" stroke-width="1" fill="none" fill-rule="evenodd">
        <polygon id="Shape" fill="url(#linearGradient-1)" fill-rule="nonzero" points="0 0 568 0 568 568 0 568"></polygon>
        <ellipse id="Oval-4" fill="#E5D7DD" cx="284.5" cy="445.5" rx="151.5" ry="25.5"></ellipse>
        <g id="roaster" transform="translate(138.000000, 132.000000)" fill-rule="nonzero">
            <path d="M32.52,1.033 C48.43,1.031 151.92,-1.159 158.37,2.327 C159.7,3.042 160.66,4.091 161.01,5.545 C163,13.732 133.84,49.322 127.89,58.025 C123.97,63.757 119.61,70.213 120.99,77.462 C125.69,80.611 206.72,78.804 219.12,78.806 C219.28,61.15 216.54,23.781 221.11,8.595 C223.19,6.527 224.42,5.971 227.39,5.75 C234.32,5.234 255.76,3.589 260.67,7.712 C265.16,20.578 262.69,71.598 262.64,88.103 C267.64,93.879 272.21,99.805 274.81,107.106 C276.6,112.122 277.11,117.243 277.36,122.524 C278.83,153.397 277.48,184.924 277.42,215.859 C277.35,245.199 278.59,274.917 277.5,304.207 C277.37,307.8 277.16,311.33 275.56,314.6 C265.04,318.9 227.76,316.48 214.46,316.42 C189,316.42 26.83,318.12 21.33,315.22 C19.91,314.47 19.35,312.98 18.98,311.48 C17.48,305.469 16.83,282.116 20.56,276.666 C21.64,275.084 25.02,275.329 26.86,275.118 C26.11,269.105 18.27,267.663 14.65,263.284 C11.34,259.289 8.89,253.667 6.78,248.938 C2.8,240.038 -1.91,226.616 1.72,217.183 C3.96,215.091 4.42,214.684 7.59,214.365 C18.23,213.296 29.86,214.453 40.63,214.452 L117.19,214.411 L117.16,196.277 C110.79,201.509 104.9,204.798 96.52,205.423 C96.0066667,205.462333 95.49,205.489 94.97,205.503 C94.4566667,205.516333 93.9433333,205.517 93.43,205.505 C92.91,205.492333 92.3933333,205.467 91.88,205.429 C91.3666667,205.391 90.8533333,205.34 90.34,205.276 C89.8266667,205.212667 89.3166667,205.136333 88.81,205.047 C88.3033333,204.957667 87.7966667,204.855333 87.29,204.74 C86.79,204.625333 86.29,204.498333 85.79,204.359 C85.2966667,204.219 84.8033333,204.066667 84.31,203.902 C83.8233333,203.737333 83.34,203.560667 82.86,203.372 C82.38,203.183333 81.9033333,202.982667 81.43,202.77 C80.9633333,202.556667 80.5,202.332 80.04,202.096 C79.58,201.86 79.1266667,201.612667 78.68,201.354 C78.2333333,201.095333 77.7933333,200.825667 77.36,200.545 C76.9266667,200.264333 76.5,199.972667 76.08,199.67 C75.66,199.368 75.25,199.055667 74.85,198.733 C74.4433333,198.410333 74.0466667,198.077667 73.66,197.735 C65.71,190.62 63.39,182.188 62.69,171.967 C57.33,172.095 51.18,172.744 45.91,171.823 C42.71,171.264 38.79,170.169 36.84,167.421 L37.86,165.579 C46.11,161.295 53.81,162.173 62.88,162.327 C62.61,138.463 58.77,115.133 73.19,94.556 C68.8,85.845 69.5,77.598 69.59,68.095 C61.66,57.045 30.57,18.427 28.71,8.144 C29.09,4.917 30.52,3.41 32.52,1.033 Z" id="Combined-Shape" fill="#F2E6E6"></path>
            <path d="M9.97,223.775 L148.32,223.838 C146.89,238.456 142.72,248.93 133.19,260.169 C124.96,267.994 116,272.576 104.72,274.246 C97.35,275.338 89.63,275.042 82.19,275.089 C63.79,275.204 44.91,276.365 29.5,264.28 C16.43,254.029 11.83,239.609 9.97,223.775 Z" id="Shape" fill="#FFFFFF"></path>
            <path d="M42.95,10.327 L151.06,10.281 L129.04,40.985 L112.56,63.941 L77.91,63.953 C69.32,52.21 45.8,22.559 41.09,11.385 L42.95,10.327 Z" id="Shape" fill="#FFFFFF"></path>
            <path d="M228.47,15.09 L253.34,15.064 L253.27,82.009 C244.69,79.33 237.33,78.718 228.45,78.797 L228.47,15.09 Z" id="Shape" fill="#FFFFFF"></path>
            <path d="M79,73.373 L111.75,73.288 C111.656667,87.712 111.44,102.134333 111.1,116.555 C106.09,115.948 84.32,92.106 79.01,86.799 C78.79,82.353 78.98,77.828 79,73.373 Z" id="Shape" fill="#FFFFFF"></path>
            <path d="M71.59,171.336 C80.35,171.43 106.98,168.545 113.41,172.423 C114.85,173.293 115.83,174.401 116.01,176.081 C116.52,181 112.92,185.786 110.33,189.648 C106.2,192.942 102.36,195.314 97.03,196.022 C91.1,196.81 85.42,195.412 80.74,191.594 C74.11,186.18 72.23,179.565 71.59,171.336 Z" id="Shape" fill="#FFFFFF"></path>
            <path d="M120.61,87.876 L197.45,87.8 C211.8,87.77 228.43,85.911 242.4,88.925 C248.31,90.2 253.56,93.362 257.81,97.639 C258.41,98.2403333 258.986667,98.864 259.54,99.51 C260.093333,100.156 260.62,100.822333 261.12,101.509 C261.626667,102.195 262.103333,102.899667 262.55,103.623 C262.996667,104.345667 263.416667,105.084667 263.81,105.84 C264.203333,106.595333 264.566667,107.364333 264.9,108.147 C265.233333,108.930333 265.536667,109.725 265.81,110.531 C266.083333,111.337667 266.323333,112.153333 266.53,112.978 C266.743333,113.802667 266.923333,114.634333 267.07,115.473 C269.99,131.674 268.12,150.922 268.12,167.452 L268.04,274.92 L174.52,274.911 C161.06,274.915 145.26,276.637 132.13,274.537 C132.58,272.143 134.34,271.53 136.22,270.1 C148.09,259.584 157.13,241.537 158.03,225.521 C158.24,221.952 157.77,218.637 155.11,216.031 C151.59,212.579 131.88,214.328 126.38,214.391 C126.47,198.906 128.81,175.984 124.89,161.569 C119.7,160.085 111.19,161.684 105.6,161.775 L104.4,160.587 C105.48,158.103 106.6,155.598 107.5,153.042 C108.78,149.44 109.66,145.028 107.44,141.583 C105.64,138.8 102.29,137.365 99.22,136.559 C95.06,135.467 91.76,135.751 87.99,138.08 C84.63,140.158 82.43,144.204 81.91,148.046 C81.23,153.138 83.31,156.301 86.25,160.217 C86.53,160.595 86.83,160.962 87.12,161.335 C83.19,163.329 76.46,162.225 72,162.134 C71.9,150.258 71.45,138.228 71.98,126.367 C72.31,119.133 72.91,107.788 78.46,102.764 C86.41,101.984 104.71,127.399 112.32,132.767 C114.6,134.377 115.81,134.755 118.49,134.204 C123.05,128.322 120.68,97.153 120.61,87.876 Z" id="Shape" fill="#FFFFFF"></path>
            <polygon id="Shape" fill="#FFFFFF" points="27.9 283.946 268.03 283.952 268.02 306.702 27.89 306.677"></polygon>
            <path d="M189.814331,118 C219.590345,132.926544 198.642736,152.345531 210.398761,164.695956 C214.953097,164.026819 217.236104,158.859399 221.336174,156.389548 L223.517584,157.507112 C225.860148,162.28099 225.892845,166.674172 224.950448,171.839256 C223.602832,179.223119 219.884626,187.840156 213.440824,192.138748 C209.966683,194.456789 207.443114,194.140321 203.612801,193.460674 C203.338373,190.578596 203.286991,189.007935 201.735013,186.458674 C201.4057,185.916825 201.008655,185.418184 200.645476,184.898522 C197.780916,180.910559 194.168977,174.828769 189.288831,173.464804 C185.970005,178.727981 189.466333,186.316205 186.535209,192.351284 L184.067694,192.685269 C180.836451,190.990822 178.490384,189.113035 176.039217,186.380433 C152.107934,159.7002 189.169718,144.989695 189.794479,119.407173 L189.814331,118 Z" id="Shape" fill="#E5D7DD"></path>
        </g>
    </g>
</svg>