<?xml version="1.0" encoding="UTF-8"?>
<svg viewBox="0 0 148 221" version="1.1" xmlns="http://www.w3.org/2000/svg">
    <path d="M147.440858,195.790073 C147.543481,197.148368 147.461329,198.569673 147.458139,199.934084 C147.448302,204.270048 147.289316,208.127725 144.928184,211.92186 C144.788872,212.142703 144.644153,212.360002 144.494029,212.573756 C144.344082,212.78751 144.188907,212.997454 144.028503,213.203586 C143.868098,213.409542 143.702643,213.611509 143.532136,213.809489 C143.361806,214.007291 143.186691,214.20084 143.00679,214.390134 C142.826712,214.579429 142.642203,214.764115 142.453263,214.944193 C142.264145,215.124271 142.070685,215.299564 141.872883,215.470071 C141.675081,215.640755 141.473202,215.806388 141.267247,215.966969 C141.061468,216.127551 140.851702,216.282904 140.637948,216.433028 C140.424371,216.583329 140.20725,216.728225 139.986583,216.867714 C139.765739,217.007204 139.541617,217.14111 139.314215,217.269434 C139.086813,217.397934 138.856398,217.520675 138.62297,217.637654 C138.389542,217.754811 138.153367,217.866031 137.914445,217.971313 C137.675522,218.076772 137.434118,218.176205 137.190233,218.269611 C136.946348,218.363018 136.700336,218.45031 136.452196,218.531487 C136.204057,218.612841 135.954057,218.687992 135.702196,218.756939 C135.450335,218.825886 135.196879,218.888541 134.941827,218.944904 C131.463006,219.716705 124.427466,219.368424 120.606479,219.375337 L87.4012171,219.212097 L38.5134778,219.177535 L23.073999,219.168761 C20.2531895,219.167166 17.3502282,219.296375 14.538458,219.092192 C11.8364894,218.895985 9.29138015,218.099193 7.01665385,216.613815 C6.80609012,216.475211 6.59907124,216.331557 6.3955972,216.18285 C6.19194592,216.033967 5.99219397,215.880209 5.79634135,215.721578 C5.60048872,215.562946 5.40862405,215.399529 5.22074732,215.231326 C5.0328706,215.063123 4.84933631,214.890489 4.67014445,214.713424 C4.49077535,214.536182 4.31592593,214.354597 4.14559618,214.16867 C3.97526643,213.98292 3.8096336,213.793005 3.64869769,213.598925 C3.48758454,213.404845 3.33143417,213.206954 3.18024657,213.005252 C3.02905898,212.803551 2.88301142,212.598216 2.74210387,212.389247 C2.60101909,212.180279 2.46516295,211.967942 2.33453545,211.752239 C2.2040852,211.536712 2.07895221,211.317995 1.95913649,211.096088 C1.83932076,210.874181 1.72508817,210.649526 1.6164387,210.422125 C1.50778924,210.194723 1.40481153,209.964663 1.30750556,209.731944 C1.2101996,209.499402 1.11874263,209.264645 1.03313465,209.027672 C0.947349425,208.790522 0.867501817,208.551422 0.793591823,208.310373 C0.719681828,208.069323 0.651798068,207.82659 0.589940543,207.582173 C0.528083017,207.337756 0.472251727,207.09201 0.42244667,206.844934 C-0.155274258,204.024922 0.0257786419,201.016945 0.0305641811,198.150673 L0.0337545406,187.933812 L0.145417122,145.949479 L0.162432373,97.2693793 L0.166420322,83.2528008 C0.166686186,78.5972687 0.138504677,73.9967703 0.641518021,69.3585194 C1.86129879,58.114895 4.62813805,46.8925397 7.10518632,35.8741015 L8.96330485,27.6017652 C9.34136245,25.9071526 9.80157181,24.1787754 10.0182504,22.4562471 C10.2288141,20.7813084 10.0674351,19.0002902 10.0448367,17.3117924 L9.98528334,9.13197661 C9.97970021,7.80877502 9.86404968,6.3909261 10.0663716,5.08420803 C10.2019619,4.20978367 10.4864356,3.34174003 10.9931711,2.60955253 C11.9082725,1.28682949 13.4481527,0.438353383 15.0279124,0.223881467 C16.1575655,0.070558108 17.4121743,0.171134191 18.5577793,0.174351136 L25.25009,0.178578363 L49.0597428,0.148004084 L102.818363,0.0702656584 L120.614189,0.0614655835 C123.878192,0.0555368322 127.211852,-0.0871519955 130.469475,0.0836385819 C131.779915,0.152337656 133.006342,0.533984408 134.037892,1.37203867 C134.488707,1.77784353 134.594255,1.88675886 134.695638,1.99966214 C135.077861,2.47059465 135.165241,2.59448694 135.247836,2.72174683 C135.552515,3.2462951 135.619601,3.38232849 135.681459,3.52093188 C135.900973,4.08624586 135.946081,4.23096411 135.985606,4.3775434 C136.438106,6.02270544 136.148581,15.6046843 136.145922,18.0479679 C136.144859,19.2478089 136.094876,20.4846049 136.220098,21.678597 C136.604004,25.3379393 138.051896,30.2298238 138.933764,33.8761389 L143.655231,53.2166297 C144.951048,58.5844096 146.396813,64.1662093 146.89185,69.6733015 C147.814928,75.6499083 147.451758,81.9200281 147.452556,87.952732 L147.445643,115.500423 L147.434743,163.382933 C147.465052,174.171133 147.662588,185.00586 147.440858,195.790073 Z" id="path-1"></path>
        
</svg>