<?xml version="1.0" encoding="UTF-8"?>
<svg viewBox="0 0 210 210" version="1.1" xmlns="http://www.w3.org/2000/svg" fill="currentColor">
        <path d="M92.0680677,208.776581 L60.5607662,208.931306 C56.9351662,208.924754 50.2593902,209.254866 46.9584596,208.523327 C46.7164502,208.469904 46.4759544,208.410518 46.2369722,208.345167 C45.99799,208.279817 45.7607738,208.208586 45.5253233,208.131476 C45.2898729,208.054534 45.0564407,207.971796 44.8250265,207.883262 C44.5936124,207.794728 44.3645528,207.700482 44.1378477,207.600525 C43.9111426,207.500735 43.6870443,207.395317 43.4655527,207.284272 C43.2440611,207.173394 43.0254286,207.057057 42.8096551,206.93526 C42.5938816,206.813631 42.3812194,206.68671 42.1716686,206.554497 C41.9622859,206.422284 41.7562668,206.284947 41.5536112,206.142486 C41.3507875,206.000194 41.1517478,205.852945 40.9564922,205.700741 C40.7610683,205.548536 40.5695126,205.391544 40.381825,205.229764 C40.1941374,205.068151 40.0105702,204.902003 39.8311233,204.731319 C39.6518446,204.560635 39.4767704,204.385583 39.3059007,204.206163 C39.1351992,204.026744 38.9690384,203.843292 38.8074185,203.655808 C38.6456305,203.468156 38.4886355,203.276725 38.3364336,203.081513 C38.1842318,202.886134 38.0369912,202.687143 37.8947118,202.484539 C37.7522643,202.281936 37.6149463,202.075973 37.4827577,201.86665 C35.2423629,198.270441 35.0915065,194.614006 35.0821726,190.504234 C35.0791454,189.211 35.0011945,187.863839 35.09857,186.576401 C34.8881783,176.354762 35.0756136,166.085245 35.1043722,155.859826 L35.0940292,118.475176 L35.0874702,92.3645507 C35.088227,86.6465515 34.7479972,83.0021541 35.6195041,75.0386931 C36.4910109,67.0752321 35.4602711,68.3698532 38.6906183,59.4405074 C41.9209655,50.5111616 51.8169455,19.2437192 51.8159364,18.1064696 C51.8134137,15.7906434 51.5386936,6.70852231 51.9680542,5.14918253 C52.0055581,5.01024976 52.0483596,4.87308094 52.2566491,4.33725739 C52.3153436,4.20588444 52.3789993,4.07694743 52.6680987,3.57976298 C52.7464701,3.45914178 52.8293823,3.34171251 53.19206,2.89534688 C53.2882583,2.78833336 53.3884088,2.68509976 53.8161718,2.30046429 C54.7949728,1.50612834 55.9586864,1.14439074 57.2021169,1.07927545 C60.2931603,0.917394414 63.4563525,1.05263967 66.5534504,1.05825914 L83.4392813,1.06660015 L126.560719,1.06660015 L143.44655,1.05825914 C146.543647,1.05263967 149.70684,0.917394414 152.797883,1.07927545 C154.041314,1.14439074 155.205027,1.50612834 156.183828,2.30046429 C156.611591,2.68509976 156.711742,2.78833336 156.80794,2.89534688 C157.170618,3.34171251 157.25353,3.45914178 157.331901,3.57976298 C157.621001,4.07694743 157.684656,4.20588444 157.743351,4.33725739 C157.95164,4.87308094 157.994442,5.01024976 158.031946,5.14918253 C158.461306,6.70852231 158.186586,15.7906434 158.184064,18.1064696 C158.183055,19.2437192 168.764155,52.4049772 171.309382,59.4405074 C173.854608,66.4760376 173.450429,66.5401324 174.380496,75.0386931 C175.310563,83.5372538 174.911773,86.6465515 174.91253,92.3645507 L174.905971,118.475176 L174.895628,155.859826 C174.924386,166.085245 175.111822,176.354762 174.90143,186.576401 C174.998806,187.863839 174.920855,189.211 174.917827,190.504234 C174.908493,194.614006 174.757637,198.270441 172.517242,201.86665 C172.385054,202.075973 172.247736,202.281936 172.105288,202.484539 C171.963009,202.687143 171.815768,202.886134 171.663566,203.081513 C171.511364,203.276725 171.35437,203.468156 171.192581,203.655808 C171.030962,203.843292 170.864801,204.026744 170.694099,204.206163 C170.52323,204.385583 170.348155,204.560635 170.168877,204.731319 C169.98943,204.902003 169.805863,205.068151 169.618175,205.229764 C169.430487,205.391544 169.238932,205.548536 169.043508,205.700741 C168.848252,205.852945 168.649212,206.000194 168.446389,206.142486 C168.243733,206.284947 168.037714,206.422284 167.828331,206.554497 C167.618781,206.68671 167.406118,206.813631 167.190345,206.93526 C166.974571,207.057057 166.755939,207.173394 166.534447,207.284272 C166.312956,207.395317 166.088857,207.500735 165.862152,207.600525 C165.635447,207.700482 165.406388,207.794728 165.174973,207.883262 C164.943559,207.971796 164.710127,208.054534 164.474677,208.131476 C164.239226,208.208586 164.00201,208.279817 163.763028,208.345167 C163.524046,208.410518 163.28355,208.469904 163.04154,208.523327 C159.74061,209.254866 153.064834,208.924754 149.439234,208.931306 L117.931932,208.776581 L92.0680677,208.776581 Z" id="path-1"></path>
</svg>