<?xml version="1.0" encoding="UTF-8"?>
<svg width="3861px" height="3098px" viewBox="0 0 3861 3098" fill="#3C1518" fill-rule="evenodd" fill-opacity="0.2" opacity="0.13" version="1.1" xmlns="http://www.w3.org/2000/svg">
            <path d="M196.72169,2356.86931 L3728.85707,479.075601 L3732.61321,486.138834 L200.477829,2363.93255 L196.72169,2356.86931 Z M200.863199,2341.41526 L3732.99858,463.621549 L3736.75472,470.684782 L204.619338,2348.4785 L200.863199,2341.41526 Z M186.367917,2395.50444 L3718.5033,517.71073 L3722.25944,524.773963 L190.124056,2402.56768 L186.367917,2395.50444 Z M190.509426,2380.05039 L3722.64481,502.256678 L3726.40095,509.319911 L194.265565,2387.11362 L190.509426,2380.05039 Z M176.014143,2434.13957 L3708.14953,556.345859 L3711.90567,563.409092 L179.770283,2441.20281 L176.014143,2434.13957 Z M180.155653,2418.68552 L3712.29104,540.891808 L3716.04718,547.95504 L183.911792,2425.74875 L180.155653,2418.68552 Z M165.66037,2472.7747 L3697.79575,594.980988 L3701.55189,602.044221 L169.41651,2479.83793 L165.66037,2472.7747 Z M169.80188,2457.32065 L3701.93726,579.526937 L3705.6934,586.590169 L173.558019,2464.38388 L169.80188,2457.32065 Z M238.136782,2202.3288 L3770.27217,324.535085 L3774.02831,331.598317 L241.892922,2209.39203 L238.136782,2202.3288 Z M242.278292,2186.87475 L3774.41368,309.081033 L3778.16981,316.144266 L246.034431,2193.93798 L242.278292,2186.87475 Z M227.783009,2240.96393 L3759.91839,363.170214 L3763.67453,370.233446 L231.539149,2248.02716 L227.783009,2240.96393 Z M231.924518,2225.50988 L3764.0599,347.716162 L3767.81604,354.779395 L235.680658,2232.57311 L231.924518,2225.50988 Z M217.429236,2279.59906 L3749.56462,401.805343 L3753.32076,408.868575 L221.185375,2286.66229 L217.429236,2279.59906 Z M221.570745,2264.145 L3753.70613,386.351291 L3757.46227,393.414524 L225.326885,2271.20824 L221.570745,2264.145 Z M207.075463,2318.23419 L3739.21085,440.440472 L3742.96699,447.503705 L210.831602,2325.29742 L207.075463,2318.23419 Z M211.216972,2302.78013 L3743.35236,424.98642 L3747.1085,432.049653 L214.973111,2309.84337 L211.216972,2302.78013 Z M279.551875,2047.78828 L3811.68726,169.994568 L3815.4434,177.057801 L283.308014,2054.85151 L279.551875,2047.78828 Z M283.693384,2032.33423 L3815.82877,154.540516 L3819.58491,161.603749 L287.449523,2039.39746 L283.693384,2032.33423 Z M269.198102,2086.42341 L3801.33349,208.629697 L3805.08963,215.69293 L272.954241,2093.48664 L269.198102,2086.42341 Z M273.339611,2070.96936 L3805.47499,193.175646 L3809.23113,200.238878 L277.09575,2078.03259 L273.339611,2070.96936 Z M258.844329,2125.05854 L3790.97971,247.264826 L3794.73585,254.328059 L262.600468,2132.12177 L258.844329,2125.05854 Z M262.985838,2109.60449 L3795.12122,231.810775 L3798.87736,238.874007 L266.741977,2116.66772 L262.985838,2109.60449 Z M248.490555,2163.69367 L3780.62594,285.899955 L3784.38208,292.963188 L252.246695,2170.7569 L248.490555,2163.69367 Z M252.632065,2148.23962 L3784.76745,270.445904 L3788.52359,277.509136 L256.388204,2155.30285 L252.632065,2148.23962 Z M320.966967,1893.24776 L3853.10235,15.4540516 L3856.85849,22.5172843 L324.723107,1900.311 L320.966967,1893.24776 Z M325.108477,1877.79371 L3857.24386,0 L3861,7.06323267 L328.864616,1884.85695 L325.108477,1877.79371 Z M310.613194,1931.88289 L3842.74858,54.0891808 L3846.50472,61.1524134 L314.369334,1938.94613 L310.613194,1931.88289 Z M314.754704,1916.42884 L3846.89009,38.6351291 L3850.64623,45.6983618 L318.510843,1923.49208 L314.754704,1916.42884 Z M300.259421,1970.51802 L3832.39481,92.7243099 L3836.15094,99.7875425 L304.015561,1977.58126 L300.259421,1970.51802 Z M304.40093,1955.06397 L3836.53631,77.2702582 L3840.29245,84.3334909 L308.15707,1962.1272 L304.40093,1955.06397 Z M289.905648,2009.15315 L3822.04103,131.359439 L3825.79717,138.422672 L293.661787,2016.21638 L289.905648,2009.15315 Z M294.047157,1993.6991 L3826.18254,115.905387 L3829.93868,122.96862 L297.803297,2000.76233 L294.047157,1993.6991 Z M155.306597,2511.40983 L3687.44198,633.616117 L3691.19812,640.67935 L159.062737,2518.47306 L155.306597,2511.40983 Z M159.448106,2495.95578 L3691.58349,618.162066 L3695.33963,625.225298 L163.204246,2503.01901 L159.448106,2495.95578 Z M144.952824,2550.04496 L3677.08821,672.251246 L3680.84435,679.314479 L148.708963,2557.10819 L144.952824,2550.04496 Z M149.094333,2534.59091 L3681.22972,656.797195 L3684.98586,663.860428 L152.850473,2541.65414 L149.094333,2534.59091 Z M134.599051,2588.68009 L3666.73443,710.886376 L3670.49057,717.949608 L138.35519,2595.74332 L134.599051,2588.68009 Z M138.74056,2573.22604 L3670.87594,695.432324 L3674.63208,702.495557 L142.496699,2580.28927 L138.74056,2573.22604 Z M124.245278,2627.31522 L3656.38066,749.521505 L3660.1368,756.584737 L128.001417,2634.37845 L124.245278,2627.31522 Z M128.386787,2611.86117 L3660.52217,734.067453 L3664.27831,741.130686 L132.142926,2618.9244 L128.386787,2611.86117 Z M113.891505,2665.95035 L3646.02689,788.156634 L3649.78303,795.219866 L117.647644,2673.01358 L113.891505,2665.95035 Z M118.033014,2650.4963 L3650.1684,772.702582 L3653.92454,779.765815 L121.789153,2657.55953 L118.033014,2650.4963 Z M103.537731,2704.58548 L3635.67312,826.791763 L3639.42925,833.854996 L107.293871,2711.64871 L103.537731,2704.58548 Z M107.679241,2689.13142 L3639.81462,811.337711 L3643.57076,818.400944 L111.43538,2696.19466 L107.679241,2689.13142 Z M93.1839583,2743.22061 L3625.31934,865.426892 L3629.07548,872.490125 L96.9400977,2750.28384 L93.1839583,2743.22061 Z M97.3254675,2727.76655 L3629.46085,849.97284 L3633.21699,857.036073 L101.081607,2734.82979 L97.3254675,2727.76655 Z M82.8301851,2781.85573 L3614.96557,904.062021 L3618.72171,911.125254 L86.5863245,2788.91897 L82.8301851,2781.85573 Z M86.9716944,2766.40168 L3619.10708,888.60797 L3622.86322,895.671202 L90.7278338,2773.46492 L86.9716944,2766.40168 Z M72.476412,2820.49086 L3604.6118,942.69715 L3608.36794,949.760383 L76.2325514,2827.5541 L72.476412,2820.49086 Z M76.6179212,2805.03681 L3608.75331,927.243099 L3612.50944,934.306331 L80.3740606,2812.10004 L76.6179212,2805.03681 Z M62.1226389,2859.12599 L3594.25802,981.332279 L3598.01416,988.395512 L65.8787782,2866.18923 L62.1226389,2859.12599 Z M66.2641481,2843.67194 L3598.39953,965.878228 L3602.15567,972.94146 L70.0202875,2850.73517 L66.2641481,2843.67194 Z M51.7688657,2897.76112 L3583.90425,1019.96741 L3587.66039,1027.03064 L55.5250051,2904.82435 L51.7688657,2897.76112 Z M55.910375,2882.30707 L3588.04576,1004.51336 L3591.8019,1011.57659 L59.6665144,2889.3703 L55.910375,2882.30707 Z M41.4150926,2936.39625 L3573.55048,1058.60254 L3577.30662,1065.66577 L45.171232,2943.45948 L41.4150926,2936.39625 Z M45.5566018,2920.9422 L3577.69199,1043.14849 L3581.44813,1050.21172 L49.3127412,2928.00543 L45.5566018,2920.9422 Z M31.0613194,2975.03138 L3563.1967,1097.23767 L3566.95284,1104.3009 L34.8174588,2982.09461 L31.0613194,2975.03138 Z M35.2028287,2959.57733 L3567.33821,1081.78362 L3571.09435,1088.84685 L38.9589681,2966.64056 L35.2028287,2959.57733 Z M20.7075463,3013.66651 L3552.84293,1135.8728 L3556.59907,1142.93603 L24.4636857,3020.72974 L20.7075463,3013.66651 Z M24.8490555,2998.21246 L3556.98444,1120.41874 L3560.74058,1127.48198 L28.6051949,3005.27569 L24.8490555,2998.21246 Z M10.3537731,3052.30164 L3542.48916,1174.50792 L3546.2453,1181.57116 L14.1099125,3059.36487 L10.3537731,3052.30164 Z M14.4952824,3036.84759 L3546.63067,1159.05387 L3550.38681,1166.11711 L18.2514218,3043.91082 L14.4952824,3036.84759 Z M0,3090.93677 L3532.13538,1213.14305 L3535.89152,1220.20629 L3.7561394,3098 L0,3090.93677 Z M4.14150926,3075.48272 L3536.27689,1197.689 L3540.03303,1204.75224 L7.89764865,3082.54595 L4.14150926,3075.48272 Z" id="Combined-Shape"></path>
</svg>