<?xml version="1.0" encoding="UTF-8"?>
<svg viewBox="0 0 100 88" fill="currentColor" version="1.1" xmlns="http://www.w3.org/2000/svg">
        <path d="M81.17926,53.6091954 C81.2523342,53.6577734 81.3153054,53.7142503 81.3789633,53.774874 C82.704401,55.03573 83.6470085,58.5035282 83.6725109,60.2369337 C83.7009559,62.1603067 83.0967454,63.1240667 81.7971044,64.4788204 L81.0681284,64.7356322 C80.512863,64.4335994 80.3417027,64.3018859 80.088052,63.7041394 C78.8983655,60.9004381 80.0830496,56.3095204 81.17926,53.6091954 Z M16.8969635,62.8766399 C15.9292969,60.1038308 16.2250488,57.8666627 17.5394691,55.2154462 C17.8218355,54.6458053 18.0929658,54.0115264 18.605622,53.6091954 L19.0180332,53.720127 L19.1877462,54.1953559 C19.8729487,56.4355014 21.1063719,60.7478102 19.9012831,62.9659614 C19.6961033,63.343513 19.4170589,63.541365 19.0332752,63.7241379 C18.1170012,63.7045448 17.6795776,63.3274735 16.8969635,62.8766399 Z M22.4720754,11.2597398 L27.5510204,11.1264368 C25.7653979,12.8913872 24.0046107,14.4348856 21.7514678,15.6118008 C20.6078886,15.9525683 19.1917019,16.4221328 18.0132375,16.0432519 C17.4812615,15.5904911 17.4748836,15.5501247 17.3469388,14.8714998 C17.4514013,14.411229 17.6044712,14.0317848 17.8878052,13.6474592 C19.090525,12.0157179 20.5317402,11.5642714 22.4720754,11.2597398 Z M72.4489796,11.2359532 C75.1257467,11.0971771 78.7595289,10.7931127 80.9522514,12.6019608 C82.0313705,13.4919149 82.5228947,14.6386388 82.6530612,16.0040637 C81.47962,16.1730423 80.3975868,16.2977369 79.224437,16.0219327 C76.6655968,15.4201163 73.8483665,13.5081329 72.4489796,11.2359532 Z M20.1128561,18.2604051 C20.6805464,18.1984235 20.9021236,18.1440877 21.4215966,18.37764 L21.4285714,18.9260953 C19.7339916,21.8273015 17.3147373,24.0797402 14.1656532,25.2248701 C13.8979815,25.2618755 13.5714787,25.3169249 13.304919,25.268094 C12.7162031,25.160136 12.5266698,24.8680683 12.246868,24.4011677 C12.2101743,23.5896985 12.6924483,22.6039061 13.1605704,21.9671678 C15.101392,19.3270385 17.0769866,18.7169075 20.1128561,18.2604051 Z M16.9367514,26.2988506 L17.3468858,26.5399816 C17.348061,26.8024243 17.3302197,27.0692693 17.2399453,27.3198055 C15.919161,30.9838972 13.5873032,33.6280344 9.96777949,35.4022989 C9.76062906,35.0318975 9.55604264,34.6549926 9.39675369,34.2639801 C9.01428926,33.3248696 9.18340691,32.1198146 9.6130918,31.2196253 C10.8627249,28.6013021 14.2575774,27.2609735 16.9367514,26.2988506 Z M22.8077141,60.6896552 C23.5571708,60.9818653 24.2431768,61.9132971 24.7637751,62.536543 C26.8243542,65.0034818 27.764542,67.5583352 27.5103603,70.8045977 C27.1431246,70.7938504 26.7793033,70.7552183 26.4221211,70.6646893 C25.1824162,70.3503069 24.0812783,69.3065611 23.4583434,68.1974601 C22.3076969,66.1486006 22.2147499,62.9570429 22.8077141,60.6896552 Z M82.6530612,26.2988506 C85.2533965,27.0470956 88.2783832,28.5318847 89.8322933,30.7592737 C90.9091256,32.3031834 90.9793766,33.577766 90.6249761,35.3622637 C89.74946,35.4797864 88.9903299,35.3380407 88.2081322,34.944006 C85.0353038,33.3445681 83.678516,29.3955997 82.6530612,26.2988506 Z M78.5714286,18.2068966 C81.1210112,18.6141418 84.1884825,18.9143496 86.1468015,20.8084622 C87.5290277,22.1460801 87.7114737,23.4535465 87.755102,25.2873563 C86.5721782,25.2414256 85.4794857,25.2464509 84.389768,24.7145797 C81.9108831,23.5046029 79.4993248,20.8761019 78.5714286,18.2068966 Z M77.5379794,61.7011494 L78.0178117,61.9933156 C78.8637029,64.3635386 78.7927579,66.5691049 77.4391358,68.8025552 C76.5083504,70.3381526 75.2688288,71.3006658 73.3529866,71.816092 C72.7645026,71.3660747 72.6086633,70.9460209 72.4972873,70.2766191 C71.9910821,67.2342532 75.5859563,63.9771344 77.5379794,61.7011494 Z M14.8604381,35.4022989 C15.085685,35.4696241 15.1636397,35.6235242 15.3061224,35.7966739 C15.2132381,38.2268642 14.8302782,40.458174 13.6270907,42.6324122 C12.8825132,43.9778533 11.8434514,45.0651175 10.3003894,45.5172414 C9.72995748,44.7280075 9.48136419,43.7251901 9.18367347,42.8151384 C10.0355639,39.2587011 11.9216064,37.4786446 14.8604381,35.4022989 Z M84.6938776,35.4022989 C84.8408024,35.4334788 84.9887547,35.4703456 85.1284874,35.5251555 C87.2717405,36.3671112 89.6132908,39.1633021 90.3992873,41.1134192 C91.008563,42.6262332 90.941779,43.6431102 90.2544174,45.1053303 C89.9615951,45.3704576 89.7006238,45.4784107 89.2865629,45.5125321 C88.7872239,45.5537131 88.336175,45.3198638 87.9827334,45.0046329 C85.4624074,42.7580125 84.8366926,38.5257808 84.6938776,35.4022989 Z M69.7462393,67.7701149 L70.1548755,67.7711834 L70.4081633,68.0707335 C69.8500916,69.9720608 69.4258668,72.0263684 68.281449,73.7221679 C67.0210306,75.5900823 65.5050668,76.3620746 63.19903,76.8735632 L62.4989408,76.3488649 C62.2345798,75.7282017 62.1628723,75.1855342 62.3488603,74.5383545 C63.2135435,71.5295465 66.9680294,69.2648544 69.7462393,67.7701149 Z M16.4087708,44.5057471 L16.8802248,44.7039232 C17.0849462,45.3825079 17.1660703,46.0702895 17.2360451,46.7699379 C17.4935396,49.344644 17.4388552,52.668147 15.5527209,54.7361395 C14.9968512,55.3456989 14.688601,55.5706742 13.8375416,55.6321839 C13.1564818,54.5910675 12.7135911,53.4702456 12.244898,52.3376558 C12.6287507,49.0893094 14.1347487,46.8694215 16.4087708,44.5057471 Z M84.066565,44.5057471 C84.1814759,44.5422706 84.2927389,44.5831024 84.4012659,44.6388179 C85.5640552,45.2375872 86.8116597,47.595064 87.2311759,48.8693705 C88.0008968,51.20462 87.9370574,52.9414917 86.9429865,55.1554205 C86.7332284,55.4387956 86.5380622,55.5171301 86.232545,55.6321839 C85.5950629,55.3818073 85.4099286,55.2452115 85.0232442,54.6528068 C83.2503325,51.9387122 83.5631456,47.5830201 84.066565,44.5057471 Z M30.6122449,66.7586207 C32.2942625,67.2083336 34.5761838,68.740227 35.8221627,69.8650535 C37.7499239,71.6056256 38.7440101,73.3091916 38.7755102,75.7972074 C37.1482941,75.9158445 35.9767504,75.9675936 34.5984064,75.0689594 C31.7991072,73.2438868 31.1558369,69.6448971 30.6122449,66.7586207 Z M15.317895,3.03448276 C15.5363984,3.08748682 15.7193443,3.27740998 15.8838529,3.41239109 C16.2553415,6.40271187 16.8837446,10.2957491 15.3099934,13.1069994 C14.83271,13.9595219 13.9376252,14.8650484 12.8974569,15.1724138 C12.1028991,14.2837478 11.5333197,13.3077753 11.3268883,12.1841279 C10.6909129,8.72132482 13.1385679,5.67393019 15.317895,3.03448276 Z M84.1916673,3.03448276 C86.0153512,3.91646874 87.7469635,7.01734376 88.3160328,8.73217197 C89.0714639,11.011768 88.9328018,12.7077096 87.6205037,14.7751202 C87.4696393,14.984993 87.0614181,15.0788479 86.8040612,15.1724138 C86.1395924,15.0105285 85.8722519,14.6724965 85.4362983,14.2156522 C82.7473628,11.3909459 83.8411295,6.39119442 84.1916673,3.03448276 Z M96.7495826,24.2758621 L97.4291476,24.5991084 C98.0583744,26.4614551 98.070959,28.2936752 97.7602177,30.2278544 C97.3178228,32.9802571 96.2994433,34.7901032 94.0777885,36.4137931 C93.5327812,36.0361817 93.2123595,35.5479756 93.0400482,34.9077633 C92.0874955,31.3662822 95.0845515,27.1946964 96.7495826,24.2758621 Z M99.666037,35.4022989 L99.9981305,35.8620124 C100.03298,38.4532142 99.5871135,40.7960437 98.1131921,43.0155663 C96.8575915,44.9068895 95.5568918,46.0399052 93.2455617,46.5287356 C92.9882917,46.088075 92.8437695,45.6953887 92.8581192,45.1857466 C92.974967,40.947881 96.6966696,38.1010765 99.666037,35.4022989 Z M98.691318,47.5402299 L98.9795918,47.9096465 C98.548709,49.987367 97.3069923,52.1569449 95.8656231,53.7745263 C94.188949,55.6563282 92.6813684,56.4172981 90.0909783,56.6436782 C90.0369906,56.5705516 90.0400465,56.5785927 89.9870775,56.488438 C89.6672259,55.9440096 89.806779,55.0488009 89.9860589,54.4776951 C91.0087689,51.2052594 95.7199582,49.0368167 98.691318,47.5402299 Z M2.46938121,23.2643678 C3.60843253,23.6415763 5.03430117,26.0881596 5.59626832,27.1395402 C7.05409573,29.8672727 7.64660127,32.4203607 6.6464438,35.4022989 L6.02867561,35.3817008 C5.11019057,34.8587438 4.21930168,34.2946884 3.60822962,33.4317167 C1.68623905,30.7170655 1.83081446,26.3760446 2.46938121,23.2643678 Z M91.7541855,13.1494253 L92.3013053,13.4983475 C93.2562446,15.5239981 93.8152782,17.311678 93.872098,19.5843313 C93.9344165,22.0179453 93.4743594,23.5454071 91.8834048,25.2873563 C91.7486868,25.2787996 91.6213005,25.2545557 91.4929977,25.2101561 C90.9128858,25.0094545 90.5417242,24.5644122 90.2823692,24.0098445 C88.8994485,21.0574108 90.8084107,16.0762841 91.7541855,13.1494253 Z M0,35.4022989 C1.26303409,35.6971712 2.74095354,37.4065675 3.63460693,38.335561 C5.83512427,40.6233569 7.18829717,43.293272 7.14169074,46.5287356 C5.75321596,46.4780341 4.61671336,46.1698086 3.50043992,45.2849907 C0.711095033,43.0744018 0.415887961,38.7048291 0,35.4022989 Z M1.02040816,47.5402299 C2.9241225,47.8675203 5.60526175,49.6319125 7.07367674,50.8709199 C9.00102637,52.4970325 10.0053304,54.0749261 10.2040816,56.5851191 C9.09713015,56.7149917 7.96058573,56.6487992 6.93831105,56.1829394 C3.51656716,54.6234058 2.24006673,50.7762211 1.02040816,47.5402299 Z M7.0790021,12.137931 L7.36536846,12.3344988 C8.49060692,14.5475379 9.17586348,18.3154644 9.18360804,20.8409604 C9.18898367,22.6231878 8.86453232,24.0017264 7.68663087,25.2873563 C6.84958101,24.5449753 6.04332715,23.6410398 5.62120328,22.5495119 C4.26772818,19.0490674 5.84916657,15.3825317 7.0790021,12.137931 Z M88.2785246,70.8436089 C88.4951857,70.8076307 88.5917077,70.9236762 88.7755102,71.037226 C88.7426517,71.1321629 88.7056858,71.2250201 88.6594784,71.3143418 C87.7959146,72.9900344 83.8467272,74.8179587 82.116519,75.4130557 C80.5238033,75.9611523 78.7841482,76.0899877 77.2394881,75.3289331 C76.4038541,74.8273172 75.9587233,74.6903711 75.5102041,73.8015209 C75.5756131,73.481252 75.5738675,73.1863551 75.8061364,72.9481291 C78.3348075,70.3540551 85.0162863,70.8384098 88.2785246,70.8436089 Z M11.2244898,69.7931034 C14.9556114,70.4378682 18.6707704,69.4861649 22.3515327,70.9264622 C23.1563551,71.2413521 24.1297628,71.7126165 24.4897959,72.5386289 C24.4398485,73.3341615 24.3507671,73.4156108 23.8372873,74.0013528 C23.1037301,74.4053374 22.2843869,74.7176788 21.4456827,74.8105453 C18.6151589,75.1238041 14.9390309,73.5486413 12.8190989,71.8272979 C12.1701947,71.3002728 11.3126444,70.6746727 11.2244898,69.7931034 Z M95.3575611,59.7146535 L95.5963101,59.6781609 L95.9183673,59.9183375 C95.423598,62.1530115 92.6937312,65.2708452 90.8304726,66.5614723 C89.315686,67.6105344 87.8039473,67.9697085 85.9833588,67.6661657 C85.5444669,67.5075024 85.214282,67.2901336 84.8414271,67.0166377 C84.6849703,66.4440614 84.5965823,66.2666559 84.8708898,65.7064752 C86.21906,62.9498981 92.6236304,60.5997966 95.3575611,59.7146535 Z M4.08163265,58.6666667 C6.8108791,58.9624917 12.4311472,61.6551037 14.3264988,63.722958 C15.0982951,64.5650565 15.3628369,65.1755974 15.2962529,66.2782712 C13.6661409,66.8281475 12.3709425,66.9817078 10.7275735,66.3339697 C7.52585973,65.0719904 5.38051912,61.6478006 4.08163265,58.6666667 Z M19.4343593,8.04233568 C19.4573238,6.83004842 19.4821174,5.92142127 20.1072401,4.82973521 C21.898676,1.70126143 25.580214,0.896959229 28.8704406,0 L27.1759435,2.77588683 C25.3130737,5.8062128 23.7568717,7.62954618 20.1305095,8.52170097 C12.3041802,18.3800163 6.99459984,29.3555106 8.29605822,42.0268737 C8.79599382,46.8934756 12.4844415,59.9195827 16.5250796,63.116103 C18.1360509,66.9266109 23.4576216,70.4503233 27.0287063,72.3505277 C29.6004279,73.7190082 32.5812432,74.8813881 34.6938776,76.8735632 C32.154164,76.0522984 29.6740973,74.8196168 27.3203354,73.5888962 C17.436954,68.4213795 12.0604107,60.0072391 8.93540676,49.7840806 C5.24035425,37.6964079 7.47868383,27.1739034 13.6223031,16.2642985 C15.41191,13.4452698 17.2278346,10.5783928 19.4343593,8.04233568 Z M71.3302472,1.01149425 C71.6826478,1.06137444 72.0330181,1.12203601 72.381358,1.19347898 C75.2512541,1.78629326 78.672694,2.88833355 79.7217746,5.80106344 C80.1002313,6.85185964 80.3199149,8.07294989 80.8863818,9.04006039 C82.047233,11.0210441 83.7872407,12.7864323 85.0826024,14.7121776 C90.0843632,22.1463707 92.7857405,30.0490673 92.8527419,38.8889658 C92.8689847,41.1512074 92.8659392,43.2487081 92.3674889,45.4659406 C89.9584817,56.1798532 85.4328373,65.7683441 75.6794544,72.0675682 C72.7116956,73.9842532 69.4101476,75.3858668 66.399853,77.2491644 C70.7718001,76.7856295 74.3330295,77.985092 78.4580863,79.1865029 C75.9325372,80.1997916 73.2742033,81.207722 70.5154688,81.3911681 C67.3271127,81.6032563 66.0114476,80.4956629 63.7620257,78.6046974 C61.0721199,78.6092762 56.0155397,81.6763229 52.9592577,82.4927212 C57.2485696,83.4143355 61.2774895,84.7451232 65.6630399,85.3929811 L64.1914441,87.9542116 C59.7283345,87.2907662 54.9802655,85.3501153 50.8987596,83.4971444 C46.6900525,85.2760744 42.2206487,86.6487536 37.8446409,88 C37.1970616,87.3433742 36.3740603,86.6438825 36.0179373,85.7963091 C35.980985,85.7086291 36.144631,85.4153882 36.1891971,85.3150433 L37.0158531,85.1689099 C40.9657925,84.5570983 44.811575,83.4406395 48.6543121,82.3962732 C45.2683017,81.2461063 42.1221768,79.4909474 38.8266184,78.1286923 C34.7530309,76.4446516 36.7129253,78.9258011 32.9941409,80.3132885 C29.359413,81.6695034 24.7439257,79.8177016 21.4285714,78.4412229 C23.781135,77.8877672 26.1183694,77.0807214 28.5038246,76.702236 C36.3914197,75.4504578 43.5508308,79.0838199 50.6528845,81.8175852 C55.5103892,80.1609201 60.4921512,78.5500435 65.2411338,76.634625 C75.9788291,72.3038171 84.0481403,65.5507028 88.4712522,55.0990509 C93.0212608,44.3456824 93.087247,33.2261037 88.353492,22.5387874 C87.0540697,19.6051118 82.4035589,11.1881232 79.7237034,9.21279 C79.0983564,8.75188543 77.968468,8.82748508 77.2338884,8.52810656 C74.7937153,7.53342557 72.2686737,3.27967866 71.3302472,1.01149425 Z"></path>
</svg>