<?xml version="1.0" encoding="UTF-8"?>
<svg viewBox="0 0 48 48" xmlns="http://www.w3.org/2000/svg" stroke="none" stroke-width="1" fill="none" fill-rule="evenodd">
    <g id="icon-producers">
        <path d="M21.706087,2.63783479 C23.6086568,2.51195769 25.6817853,2.3738292 27.3957797,3.3637901 C29.2430982,4.43050239 29.9505563,6.30941021 30.4742434,8.25449959 C31.1925116,8.38638228 31.9167853,8.54072585 32.6134334,8.76293256 C33.5430982,9.05960853 34.6937686,9.54281803 35.1273719,10.4908599 C35.1393831,10.5164838 35.1505935,10.5424279 35.1610032,10.5686923 C35.1714129,10.5949568 35.1810218,10.6215015 35.18983,10.6483264 C35.1986382,10.6751514 35.2066457,10.7021765 35.2138524,10.7294018 C35.2210591,10.7566272 35.2278654,10.7840527 35.2342714,10.8116784 C35.2398766,10.8393041 35.2450814,10.8670499 35.2498859,10.8949158 C35.2538896,10.9228618 35.257493,10.9508879 35.2606959,10.978994 C35.2630982,11.0070201 35.2651,11.0351663 35.2667015,11.0634326 C35.2675023,11.0916188 35.2679026,11.119845 35.2679026,11.1481113 C35.2679026,11.1762975 35.2667015,11.2044838 35.2642993,11.23267 C35.2626978,11.2608562 35.2602956,11.2889624 35.2570926,11.3169884 C35.2538896,11.3450946 35.2498859,11.3730406 35.2450814,11.4008264 C35.2402769,11.4286123 35.2346717,11.456278 35.2282658,11.4838236 C35.2218598,11.5112892 35.2146531,11.5385946 35.2066457,11.5657398 C35.1986382,11.592805 35.18983,11.61967 35.1802211,11.6463348 C35.1706121,11.6729195 35.1606028,11.699264 35.1501931,11.7253683 C35.1389827,11.7513925 35.1273719,11.7771365 35.1153607,11.8026002 C34.5508356,13.0002342 32.9317295,13.4950946 31.7834613,13.915846 C31.7246065,14.498508 31.6357239,15.044656 31.3834892,15.5792733 C31.0567853,16.2684745 30.5318971,16.5876113 29.8412546,16.8418879 C29.4689082,17.7886085 29.056925,18.414751 28.473182,19.2215415 C28.2233496,19.5671029 27.8738244,19.92948 27.9446903,20.3553962 C28.9380144,21.5199996 31.9191876,21.8487454 33.3821484,22.4669605 L33.6043552,22.5617286 C34.4163105,21.7030499 36.0149976,20.2799661 37.2209194,20.1635778 C37.4707518,20.1393152 37.7434054,20.1952873 37.9211708,20.3794186 C38.2562825,20.7261812 38.2875116,21.2268069 38.2742993,21.6862342 C38.2094389,24.149846 36.9218412,26.3096951 35.2150535,27.9830918 C36.0894669,27.8043655 37.9499976,27.5169381 38.7619529,28.0011085 C38.9180982,28.0935946 39.0862546,28.2024158 39.1294948,28.3895499 C39.2688244,28.9829018 38.763154,29.9869158 38.4604725,30.4846588 C37.2893831,32.41017 34.882344,33.6856365 32.6446624,33.7289968 C32.2098579,33.7374046 31.3018133,33.5412622 30.930668,33.7029326 C30.24483,34.0027314 29.4653049,36.2363292 29.1530144,36.9203655 C29.9205283,36.5959437 31.5864781,36.0986812 32.0417015,35.4398683 C32.0405004,35.1440331 32.0296903,34.8659745 32.1161708,34.5791476 C32.1834334,34.3563404 32.3107518,34.3479326 32.5005283,34.2373097 C32.8968971,34.2319046 32.8812825,34.2078823 33.1683496,34.4770527 C33.3749417,35.0629577 33.3172881,35.7295778 33.3208915,36.345751 C32.1233775,37.0443208 30.7841317,37.5419437 29.5085451,38.0810052 C29.7523719,38.4565946 29.9421484,38.8252175 29.9853887,39.2797203 C30.0982937,40.4749521 29.2731261,41.38648 28.565668,42.2437175 C30.3805563,41.6924046 36.47983,39.3676421 37.6124836,38.1461057 C38.3091317,37.3954074 38.2130423,36.4068879 38.1926233,35.4589661 C38.0605004,34.3518962 37.688154,32.7058851 38.2034334,31.6902203 L38.4340479,31.6508236 C38.4784892,31.6885387 38.5265339,31.7228907 38.5673719,31.764089 C39.4345786,32.6309353 39.4237686,34.8898767 39.4273719,36.0577231 C39.4309753,37.1641923 39.2123719,38.3946169 38.3703887,39.1865136 C37.3049976,40.1880052 30.8069529,43.03117 29.3596065,43.2263515 C28.4984054,43.3423795 27.6672322,42.8715415 26.7976233,42.8615722 C25.7742714,43.2482119 25.863154,44.2967873 25.3298579,45.0942091 C25.1340758,45.3863208 25.0499976,45.3901644 24.7329026,45.437008 C24.5491317,45.3358739 24.3929864,45.3116113 24.3161149,45.1030974 C24.0794948,44.4592985 24.6872602,43.3381756 24.9214781,42.7264465 C24.1972043,42.4401002 23.4969529,42.1085918 22.7282378,41.961575 C19.6029306,41.3640191 14.7516177,41.5829828 12.0118691,40.7119326 C11.252763,40.4707482 10.557316,40.0634493 10.0168133,39.4721393 C8.37608699,37.6761085 9.000668,35.8081309 9.09915962,33.6977678 C9.04991381,33.6486421 8.99946688,33.6005974 8.95142219,33.5505108 C8.67996968,33.2684884 8.55985794,33.1470555 8.570668,32.7622175 C8.59469035,31.8392789 8.7580423,30.8911169 8.88055627,29.9757454 C9.44988588,25.748413 11.1350535,22.8970806 15.4806959,21.7825638 C16.679411,21.4748376 18.1399697,21.376346 19.0708356,20.4995303 C19.1392993,19.797237 17.6703328,17.9039158 17.3304166,17.0481197 L17.2535451,16.8522175 C16.9280423,16.7359493 16.6001373,16.622684 16.3298859,16.3995164 C15.5719808,15.7736141 15.4062267,14.8371029 15.2885172,13.9134437 C14.6182937,13.6751421 13.9408635,13.4416448 13.3138803,13.1001672 C12.7025116,12.7670974 12.0430982,12.2416085 11.8641317,11.5319884 C11.7428188,11.0532231 11.8653328,10.575899 12.1475954,10.1794102 C13.0520367,8.90922864 15.1347741,8.53640183 16.5713105,8.26615043 C16.8319529,7.20640462 17.1634613,6.1526644 17.7496065,5.22348004 C18.7092993,3.7037063 20.0017015,3.00669792 21.706087,2.63783479 Z M18.4306401,11.7768962 C18.1075395,11.8319074 18.0883216,11.7754549 17.8625116,12.0388599 C17.8721205,12.4848348 17.8961429,12.5916141 17.6691317,12.9918264 C17.3472322,13.139684 17.1142155,13.1634661 16.7682937,13.1906113 C16.4980423,13.47948 16.4560032,13.8878599 16.4668133,14.2851895 C16.47402,14.5696141 16.5629026,14.8608851 16.7670926,15.0660359 C17.1538524,15.4526756 17.7976512,15.4959158 18.1784054,15.8826756 C18.6288244,16.3415024 18.7489362,17.2261253 19.0384054,17.8079465 C19.9224278,19.5919661 22.3246624,20.6287705 24.2320367,20.3558767 C25.3022322,20.2026141 26.2246903,19.711237 27.0354445,19.0083432 C27.3825674,18.6453655 27.7585172,18.2754214 27.9831261,17.8205583 C28.4287406,16.9196002 28.3975116,15.8915638 29.5337686,15.6100219 C29.8052211,15.5427594 29.9865898,15.4997594 30.1571484,15.2529298 C30.4045786,14.8934353 30.7012546,14.1358907 30.6159753,13.700846 C30.5763384,13.4943739 30.4466177,13.4387622 30.2604445,13.3534828 C30.2208077,13.335346 29.978182,13.2688041 29.9433496,13.2585946 C29.6490758,13.1729549 29.5133496,13.0916393 29.3007518,12.8607845 C29.2322881,12.5297566 29.1602211,12.215184 29.056925,11.8924437 C27.6564222,11.4901895 20.221506,11.6893348 18.4306401,11.7768962 Z M17.6270926,22.5407091 L16.2914501,22.8642901 L16.2914501,34.9418851 L17.8216736,35.3704437 C17.815668,34.16248 17.5586289,30.8941197 18.0522881,29.9660164 C19.085249,29.5809381 23.3071764,29.3823934 24.2284334,29.9261393 C24.3485451,29.9972454 24.3845786,30.0563404 24.4650535,30.1556728 C24.4626512,30.5091616 24.419411,30.5245359 24.2008077,30.8092007 C23.4068691,31.1486365 20.1458356,30.9197035 19.1116736,30.9133376 L19.1032658,35.5256281 C19.5596903,36.0678124 23.1750535,36.7793543 24.0350535,36.9980778 C25.0487965,35.836237 25.9880702,34.9500527 27.613182,34.8355862 C27.9735172,34.8102426 28.3254445,34.830061 28.6833775,34.8702985 C28.9608356,34.2858348 29.2226792,33.6886393 29.5313663,33.1201504 C27.2816736,31.9882175 25.8703607,30.5487985 24.8109753,28.2594689 C23.1101931,28.266075 19.4660032,28.5675555 18.0138524,28.0095164 C17.3556401,26.9585387 18.3621764,23.5871225 17.7255842,22.5521197 L17.6270926,22.5407091 Z M10.3435172,33.5680471 C10.1621484,35.0902231 9.69010934,37.0551309 10.7134613,38.3744381 C11.6851652,39.6267231 13.1349138,39.758846 14.5942714,39.8960136 C17.3556401,40.1556951 20.2803607,40.2073432 23.0044948,40.682265 C24.0734892,40.8686784 25.0175674,41.6215387 26.118992,41.6484437 C26.7375674,41.6635778 27.4534334,41.4805275 27.9230702,41.059656 C28.5428468,40.5052203 28.7230144,39.7924772 28.7386289,38.9910918 C28.4611708,38.7905052 28.1921205,38.6164633 27.8894389,38.4567147 C27.6360032,38.323751 27.5074836,38.2271812 27.347735,37.9801113 C27.2888803,37.2983571 28.1416736,36.6120387 27.9591038,36.0439102 C27.4077909,35.9257203 27.0774836,35.9986281 26.5946345,36.2985471 C25.7262267,36.8373683 25.1833216,37.629265 24.4818691,38.3381644 C22.8675674,37.9975275 16.1785451,36.5255583 15.2116457,35.7230918 C14.9221764,35.0497454 15.0062546,34.3120191 15.0194669,33.5918292 L10.3435172,33.5680471 Z M14.6687406,23.266184 C12.8022043,24.1699046 11.4005004,25.3526448 10.7122602,27.358751 C10.3411149,28.4428795 9.69251158,31.1625694 10.0156121,32.2194326 C10.1909753,32.3006281 10.2546345,32.3385834 10.4516177,32.3319772 L15.0783216,32.3770191 C15.081925,31.0811337 15.2861149,23.9430136 14.9498021,23.2945303 L14.6687406,23.266184 Z M26.6618971,20.8792035 C24.9370926,21.6469577 23.3059753,22.0311951 21.4658635,21.3070415 C21.1235451,21.1725164 20.7896345,21.0181728 20.4557239,20.8663515 C20.0665619,21.4224689 19.6930144,21.77848 19.1080702,22.1219996 L19.1080702,27.0178739 L24.4110032,27.0420164 C24.1960032,25.9975247 23.6242714,23.7871085 24.2920926,22.8499968 C24.3221205,22.8079577 24.3569529,22.7698823 24.3905842,22.7298851 C25.6325395,23.1714158 26.8240479,23.633846 27.9591038,24.3130778 L27.9591038,22.1215191 C27.4041876,21.7647873 27.0330423,21.4252314 26.6618971,20.8792035 Z M22.9396345,3.83979289 C21.5487406,3.92963647 20.313992,4.13358619 19.3278747,5.23068675 C18.6204166,6.01609736 18.2504725,7.02707781 17.9249697,8.01571747 C20.0401373,7.81729289 22.1444948,7.63604429 24.2716736,7.66475099 C25.8947835,7.72744932 27.51429,7.83875285 29.1301931,7.99866161 C28.6089082,6.49318116 28.0155563,5.04175099 26.4781261,4.31831803 C25.3634892,3.79451077 24.1395507,3.83775099 22.9396345,3.83979289 Z M20.6298859,9.05984876 C18.9206959,9.19569513 14.5330144,9.43063367 13.433992,10.7470583 C13.2670367,10.9468041 13.2910591,11.011184 13.2550255,11.2562119 C13.6117574,12.052913 14.4129026,12.2461728 15.1684054,12.5311979 C15.2949231,12.5792426 15.4222416,12.6253255 15.5503607,12.6694465 C15.7257239,12.5151029 16.5316736,11.9594661 16.597735,11.8065638 C16.7899138,11.3617901 16.5208635,10.9600164 17.0589641,10.6549326 C17.7375954,10.2712957 25.1953328,10.4871365 26.5045507,10.5015499 C27.4534334,10.5029912 29.1325954,10.2965191 29.9445507,10.7026169 C30.4874557,11.5269437 30.7204725,12.072251 31.5720646,12.6307705 C32.4008356,12.3469465 33.24402,12.0788571 33.8613943,11.4246085 C33.9634892,11.0828907 33.9454725,11.0828907 33.8061429,10.7510219 C31.7774557,8.90454429 23.8861149,8.86250518 20.9613943,9.03426496 C20.8508915,9.04027054 20.7403887,9.04879848 20.6298859,9.05984876 Z M25.2169529,24.2647929 C25.5208356,26.8541616 26.1021764,29.1485359 28.2413663,30.8602482 C28.8106959,31.3160722 29.5133496,31.7785024 30.1967853,32.0361421 C30.4105842,30.1087091 29.9565619,28.3260108 28.73983,26.7888208 C27.8137686,25.6185722 26.569411,24.850818 25.2169529,24.2647929 Z M36.90983,21.6087622 C35.0252769,22.5986029 33.4626233,24.2716393 32.8572602,26.3584605 C32.8204259,26.4807342 32.7891969,26.6043692 32.763573,26.7293655 C32.7379492,26.8543618 32.7175302,26.9802389 32.702316,27.1069968 C32.6871019,27.2337547 32.677493,27.360913 32.6734892,27.4884717 C32.6694855,27.6160303 32.671087,27.7435489 32.6782937,27.8710275 L32.81402,28.0472314 C34.6541317,26.9951728 36.2468133,25.4660303 36.8017295,23.3434158 C36.9182378,22.8941979 37.12483,22.0116169 36.90983,21.6087622 Z M29.1650255,22.4597538 L29.1662267,25.3568488 C30.2832658,26.6475694 30.8369808,27.8229828 31.2922043,29.4553013 L31.3726792,27.9460974 C31.5696624,26.3102957 31.9840479,24.99267 32.8272322,23.5751113 C31.6225116,23.1161644 30.4129864,22.7785303 29.1650255,22.4597538 Z M36.2432099,29.0409158 C34.9772322,29.3888795 32.6254445,30.5736616 32.0453049,31.8474465 C31.9600255,32.0344605 31.96483,32.0503152 31.9287965,32.22748 C32.0236848,32.397318 32.0080702,32.472508 32.2170646,32.5215136 C32.5749976,32.6057119 32.9485451,32.5304018 33.3088803,32.4859605 C34.6709473,32.1587761 36.7741038,31.1553627 37.4227071,29.7934158 C37.5668412,29.490494 37.5500255,29.4251532 37.4575395,29.1269158 C37.104411,28.901346 36.643182,29.0105275 36.2432099,29.0409158 Z"></path>
    </g>
</svg>