<?xml version="1.0" encoding="UTF-8"?>
<svg viewBox="0 0 48 48" version="1.1" xmlns="http://www.w3.org/2000/svg" stroke="none" stroke-width="1" fill="none" fill-rule="evenodd">
    <g id="icon-decaf">
        <path d="M21.8421008,6.6294136 C22.1257166,6.59429663 22.4099715,6.56657345 22.6948743,6.54624305 C22.9808734,6.52583442 23.2672429,6.51191949 23.5539885,6.50449805 C23.8385898,6.49805547 24.1247559,6.49851845 24.4108779,6.50592614 C24.6969909,6.5133336 24.9827774,6.52768542 25.2682444,6.54898202 C25.5526109,6.57112149 25.8378848,6.59987613 26.1224643,6.63512393 C26.4058194,6.6702315 26.6881778,6.71273309 26.9695285,6.7626278 C27.2524873,6.81186493 27.5324162,6.86821095 27.8109203,6.9319482 C28.0913973,6.99520925 28.3686227,7.06505913 28.6441418,7.14184921 C28.9195683,7.21861348 29.1929598,7.3023142 29.464324,7.39295391 C29.736045,7.48371278 30.0053522,7.58095232 30.2722524,7.6846748 C30.5390414,7.78835409 30.8031431,7.8985122 31.0645644,8.01515199 C31.3258486,8.13173062 31.584125,8.2547855 31.8394007,8.38432011 C32.094814,8.51397151 32.3469994,8.64967462 32.595898,8.7913995 C32.8442104,8.93279066 33.0888775,9.08065364 33.3299063,9.23499342 C33.5723319,9.38930029 33.8097254,9.54888866 34.0432411,9.71449607 C34.2769136,9.88021468 34.5063214,10.0514836 34.7314705,10.2283072 C34.9566626,10.4050917 35.1772882,10.5873658 35.3934318,10.775196 C35.6098699,10.9632017 35.8214072,11.1562238 36.0281294,11.3543364 C36.2349189,11.5524248 36.4366311,11.7555249 36.6333521,11.9637198 C36.8303417,12.1721009 37.0219689,12.38502 37.2083192,12.6025676 C37.3943712,12.8206929 37.5756623,13.0433066 37.7515156,13.2696157 C37.9262941,13.4955847 38.0961546,13.7266024 38.2604163,13.961791 C38.4245557,14.1969371 38.5829307,14.4358889 38.7354696,14.6785435 C38.8877688,14.9209638 39.0341709,15.1672045 39.1746067,15.4171561 C39.3148958,15.6670114 39.4490482,15.9202252 39.5769984,16.1766811 C39.7047645,16.4336936 39.826444,16.6936411 39.9417203,16.9558853 C40.0566992,17.2183786 40.1654481,17.4837666 40.2677093,17.7514613 C40.3697857,18.0195976 40.4654352,18.2901027 40.5544561,18.5624456 C40.6431566,18.8350163 40.7253431,19.1100514 40.800815,19.3869361 C40.876326,19.6630386 40.9449308,19.9410658 41.0067418,20.2214361 C41.0685138,20.5011238 41.1233996,20.7824946 41.1714405,21.0657416 C41.2194022,21.3481415 41.2604056,21.631833 41.2944694,21.9169327 C41.3285431,22.2021141 41.3556249,22.4877464 41.375716,22.7738368 C41.3957031,23.059764 41.4087115,23.3463172 41.4147298,23.6333432 C41.4207471,23.9193978 41.4197288,24.2058986 41.4116746,24.4928868 C41.4036208,24.7798617 41.3885319,25.0663661 41.3664077,25.3524074 C41.3442877,25.6374674 41.3151647,25.9226783 41.2790462,26.2079225 C41.2429655,26.4919418 41.1999155,26.7752384 41.1499204,27.0576182 C41.0999314,27.3399634 41.0430465,27.6209167 40.9792641,27.9004854 C40.9154552,28.1801704 40.8448368,28.4584761 40.7674067,28.7354092 C40.6900477,29.0108318 40.6058598,29.2849749 40.515,29.5572765 C40.4242321,29.8281001 40.3266692,30.0977182 40.2225194,30.3655056 C40.1185636,30.6327939 40.0080971,30.8968224 39.8911176,31.1575987 C39.7738325,31.4201896 39.6504978,31.6787947 39.5207806,31.9341581 C39.3910278,32.1897738 39.2550913,32.4420222 39.1129023,32.6910381 C38.970753,32.9401467 38.82266,33.1854256 38.6685502,33.4270033 C38.5142951,33.6686634 38.3541754,33.9067355 38.1882602,34.1411103 C38.0228196,34.3738896 37.851177,34.6037351 37.6738684,34.8298891 C37.4972332,35.0542595 37.3146043,35.2752488 37.1265934,35.4920776 C36.939164,35.7072038 36.7457578,35.9190605 36.5471457,36.1267595 C36.3494359,36.3325899 36.1459904,36.5345992 35.9375773,36.7319847 C35.7298622,36.9277835 35.5166011,37.1197603 35.2986428,37.3071117 C35.0820777,37.4922628 34.860112,37.6727228 34.6337506,37.8476299 C34.40657,38.0240968 34.1762494,38.193763 33.9417724,38.3574161 C33.7067827,38.521427 33.4678982,38.6798803 33.225113,38.8327794 C32.983744,38.9838631 32.7376073,39.1296567 32.4878558,39.2694361 C32.2371328,39.4107384 31.984433,39.5448334 31.728452,39.672454 C31.4731535,39.7987638 31.2135725,39.9197255 30.9510649,40.0346652 C30.6879351,40.1507634 30.4234782,40.2593557 30.1563917,40.3610149 C29.8891929,40.4627169 29.6196917,40.5574814 29.3478802,40.6453117 C29.0744229,40.7345712 28.8004476,40.8164308 28.5245313,40.8913527 C28.2484832,40.9662854 27.9707338,41.0342886 27.6913167,41.0953533 C27.4112943,41.1565502 27.1299754,41.2112563 26.8473539,41.2594726 C26.5667041,41.3064136 26.2834877,41.3466813 25.9992962,41.3800067 C25.715777,41.413351 25.4317339,41.4397327 25.1469908,41.4591723 C24.8623021,41.4786144 24.5773032,41.4911123 24.2919759,41.4966671 C24.0066398,41.5022219 23.7213541,41.5008332 23.4361117,41.4925009 C23.15196,41.4832756 22.8665623,41.4675078 22.5815331,41.4452471 C22.2976129,41.4230731 22.0144348,41.393508 21.7319899,41.3565508 C21.4479912,41.3203168 21.166603,41.2768984 20.8862211,41.2260878 C20.6039482,41.1758456 20.3246088,41.1189414 20.0466525,41.0550966 C19.768775,40.9912699 19.49261,40.9205058 19.2181497,40.8428022 C18.9439211,40.765138 18.6716834,40.680526 18.4014713,40.5889757 C18.1299234,40.4978997 17.862186,40.4003809 17.596795,40.2959254 C17.3302831,40.1919185 17.0677961,40.0815095 16.8079755,39.9641652 C16.5469485,39.847202 16.2902634,39.7239155 16.0365633,39.5936945 C15.7808878,39.4633879 15.5298363,39.327722 15.2821182,39.1860365 C15.0354827,39.0439925 14.7911354,38.8956504 14.5503606,38.7417474 C14.3109191,38.5877724 14.0742739,38.4275077 13.841568,38.2616862 C13.6090216,38.0959784 13.3806915,37.9247193 13.1565719,37.7479045 C12.9324335,37.571148 12.7128606,37.3889029 12.4977684,37.201102 C12.2825015,37.0131485 12.0719605,36.8201063 11.86614,36.6219705 C11.6603032,36.4239081 11.4595427,36.2208347 11.2637722,36.0126667 C11.0675098,35.8048034 10.8770532,35.5925684 10.6917162,35.375232 C10.5061063,35.1575757 10.3259687,34.9357611 10.1512987,34.7097829 C9.97690356,34.4841604 9.80809411,34.2539026 9.64486629,34.0190025 C9.481069,33.7842095 9.32362383,33.5460066 9.17199841,33.3036279 C9.02016226,33.0616902 8.87466359,32.8161872 8.73511544,32.5664987 C8.59517095,32.3170271 8.46180335,32.0645351 8.33462326,31.808325 C8.20695286,31.5522402 8.08604835,31.2936877 7.9715211,31.0318847 C7.85680792,30.7698683 7.74867782,30.505211 7.64706869,30.2377698 C7.54515338,29.9706927 7.45010592,29.7015072 7.36166563,29.4295256 C7.27302552,29.1572142 7.19119383,28.8832076 7.11612057,28.6073527 C7.04089464,28.3312772 6.97251898,28.0539785 6.91095029,27.7752991 C6.84947053,27.4960973 6.79481197,27.215168 6.74704842,26.9328447 C6.69913485,26.6511081 6.6582317,26.3683951 6.62426672,26.084274 C6.59028558,25.8000175 6.56324993,25.5153099 6.54315871,25.2301442 C6.52317157,24.945142 6.5101169,24.6595132 6.50400599,24.3734117 C6.49789584,24.0873455 6.49877532,23.8012821 6.50664451,23.5152141 C6.5146028,23.2292719 6.52950941,22.9436389 6.55136006,22.6584695 C6.57320239,22.3734085 6.60203111,22.089286 6.63784651,21.8060945 C6.6736166,21.5216028 6.71627987,21.2388777 6.76588214,20.9575514 C6.81550031,20.6761349 6.87196797,20.3961108 6.93528655,20.117472 C6.99866055,19.8376634 7.06870335,19.5605456 7.14549476,19.2857619 C7.22248615,19.0096679 7.30606223,18.7361714 7.39629976,18.4649961 C7.48656672,18.1937323 7.58340645,17.9247845 7.68682149,17.6581459 C7.79021989,17.3915502 7.90004883,17.1277386 8.01631099,16.8667041 C8.13268812,16.6056194 8.25537966,16.3471752 8.38432863,16.0915005 C8.51301152,15.837462 8.64825873,15.5854083 8.78967932,15.3361151 C8.93065958,15.0885233 9.0780154,14.8434707 9.23135545,14.6016474 C9.38434395,14.36145 9.54367641,14.1236334 9.70881769,13.8890419 C9.87311002,13.6564494 10.0435081,13.42737 10.2195552,13.2024517 C10.39574,12.9773576 10.5773475,12.7564273 10.7643822,12.539656 C10.9505942,12.3246554 11.1426027,12.1135757 11.3398,11.9071203 C11.5374047,11.6993124 11.739166,11.4978746 11.9458601,11.301991 C12.1535744,11.104214 12.365095,10.9128052 12.5812796,10.7269493 C12.7982236,10.5395147 13.0186561,10.3589004 13.2435131,10.1842991 C13.4695004,10.0078215 13.6985954,9.83820706 13.9318923,9.6746034 C14.1660764,9.50938686 14.4029613,9.35146354 14.643715,9.20001132 C14.8862431,9.0465733 15.1311965,8.89984198 15.3796681,8.75912781 C15.6278862,8.61860956 15.8793993,8.48453088 16.1341449,8.3569269 C16.3903579,8.22770695 16.648295,8.10558466 16.9091923,7.98993866 C17.1692894,7.87557212 17.4334369,7.76663101 17.700283,7.66371258 C17.9662578,7.56109459 18.2345745,7.46543225 18.5052956,7.37670153 C18.77757,7.28650399 19.0503612,7.20374192 19.3251878,7.12791493 C19.60012,7.05205882 19.8767109,6.98314236 20.154968,6.92116354 C20.4344113,6.85801497 20.7136262,6.80259686 20.994131,6.75456838 C21.2763348,6.70533849 21.5579992,6.66376781 21.8421008,6.6294136 Z M35.7856107,13.2822544 L35.6150338,13.1186732 L35.4421341,13.2797973 C34.3990425,14.2518471 33.380489,15.2487251 32.3864763,16.2704289 L32.2510451,16.4096329 L32.3524393,16.5752788 C33.7444968,18.8494595 34.1117993,21.2605372 33.49386,23.916109 C32.6745053,27.4387858 30.3189363,30.6052515 27.1189734,32.593807 C24.5975815,34.1603523 21.8384554,34.762969 19.3318549,34.1374544 C18.3014291,33.8808229 17.4419635,33.4474348 16.3533329,32.685585 L16.1827418,32.5662013 L16.0344716,32.7123853 C15.0859469,33.6475639 14.1467166,34.591799 13.2167807,35.5450906 L13.0307182,35.735826 C13.1766669,35.8610928 13.2552188,35.9285133 13.266374,35.9380877 C14.688798,37.1589234 15.3734839,37.675386 16.3375442,38.1543922 C20.7794214,40.279693 25.0023732,40.7194757 29.1609423,39.2487705 C29.2865621,39.2042862 29.4115064,39.1583863 29.5358717,39.1110367 C29.6602592,39.0636786 29.7840197,39.0148703 29.9071528,38.9646119 C30.031294,38.9129737 30.1533092,38.8610114 30.2747492,38.8080859 C30.3977252,38.7534798 30.5184441,38.6986076 30.6384921,38.6427713 C30.7600513,38.5852633 30.8794042,38.5274886 30.9980383,38.4687493 C31.118604,38.4080809 31.2369909,38.346688 31.354652,38.2838451 C31.4714275,38.2224406 31.5887897,38.1583454 31.7053208,38.0923112 C31.8209785,38.0268264 31.9358509,37.9603315 32.04986,37.8928704 C32.1651806,37.8236642 32.2783458,37.754291 32.3906947,37.6839524 C32.5043532,37.6117636 32.6157676,37.5394792 32.7263175,37.4662291 C32.8381471,37.3911615 32.9478091,37.3159647 33.0565584,37.2398016 C33.1657442,37.1633329 33.2739609,37.0854129 33.3812083,37.0060421 C33.4884819,36.9266519 33.5947378,36.8458103 33.6999756,36.7635177 C33.8044361,36.682799 33.9090469,36.5992657 34.0126757,36.5137987 C34.1149195,36.4303582 34.2170903,36.344651 34.3181933,36.2574932 C34.4192909,36.1703401 34.5193204,36.081737 34.6182814,35.9916844 C34.7163172,35.9034379 34.8141848,35.8128377 34.9108868,35.7207867 C35.0075874,35.6288292 35.1032128,35.5353353 35.197672,35.4403917 C35.2911994,35.3472521 35.3844242,35.251848 35.4765304,35.1549961 C35.5683717,35.0583211 35.6589648,34.9607741 35.7484001,34.8622602 C35.8381297,34.7633151 35.9265528,34.6630214 36.0137596,34.5612802 C36.1002321,34.4613608 36.1862114,34.3590968 36.2709253,34.2553853 C36.3551558,34.1522655 36.4381381,34.0486581 36.519872,33.944563 C36.6025086,33.8382236 36.6831125,33.7319115 36.7624597,33.6246333 C36.8418263,33.5171981 36.9198009,33.4089134 36.9964699,33.2996625 C37.0729328,33.1905679 37.1480123,33.0811071 37.2217934,32.9711588 C37.2963276,32.8589721 37.3688631,32.7467838 37.4400436,32.6336301 C37.5110552,32.5207447 37.5807193,32.4073718 37.6490354,32.2935115 C37.7177051,32.1789004 37.7848321,32.0629801 37.8504968,31.9456178 C37.9156334,31.8303362 37.9797795,31.7131789 38.0424231,31.5950564 C38.1048001,31.4785852 38.1661914,31.359779 38.2261201,31.2395336 C38.2855459,31.1210691 38.3438073,31.0010623 38.4006144,30.8800932 C38.4569383,30.7605017 38.5118851,30.6401698 38.5653353,30.519351 C38.61898,30.3971252 38.6708376,30.2755615 38.7212041,30.1539871 C38.7719428,30.030545 38.8208697,29.9072607 38.8682504,29.7834906 C38.9156682,29.6598763 38.9616005,29.5356174 39.0059861,29.4108734 C39.0503147,29.286018 39.0930877,29.1608406 39.1343625,29.0351795 C39.1757113,28.9092933 39.2155073,28.7824494 39.2537508,28.6546485 C39.2917355,28.5283548 39.328322,28.4012445 39.3634099,28.2736523 C39.3984783,28.1457787 39.4319035,28.0175926 39.4637319,27.8889245 C39.4956276,27.7603753 39.5259201,27.6311724 39.5545668,27.5014881 C39.5832445,27.372101 39.6103185,27.2425326 39.6357501,27.1129568 C39.6613086,26.9822601 39.6851917,26.8517251 39.7074321,26.7211836 C39.7297665,26.5906584 39.7504361,26.4594767 39.7694107,26.3278165 C39.7884039,26.1976623 39.8058638,26.0665924 39.8217268,25.9350453 C39.8375132,25.8033316 39.8516813,25.6713213 39.864253,25.5388347 C39.8768155,25.4074124 39.8877488,25.2753422 39.8970366,25.1427967 C39.9063147,25.0103918 39.9139988,24.8784571 39.9200887,24.746993 C39.9260947,24.6142825 39.9304934,24.4818369 39.933297,24.3493902 C39.9360078,24.2167596 39.9371196,24.0843109 39.9366362,23.951862 C39.9361526,23.8193526 39.9340247,23.6868436 39.9302526,23.5543354 C39.9264805,23.4218295 39.9210643,23.2893248 39.9140039,23.156822 C39.9070469,23.0244443 39.8983871,22.8918872 39.8880344,22.759333 C39.8777888,22.6278802 39.8658977,22.4959183 39.8523646,22.3634873 C39.8388052,22.2317663 39.823621,22.1002344 39.8067932,21.9687071 C39.7899631,21.8371614 39.7715361,21.7060931 39.7515123,21.5755028 C39.7315329,21.4442364 39.7099152,21.313176 39.6867007,21.1825945 C39.663367,21.0518863 39.6385168,20.921834 39.6121188,20.7922611 C39.5856133,20.6626356 39.5575995,20.5331923 39.5280416,20.403756 C39.4982404,20.2746466 39.4669776,20.1461166 39.4341224,20.0175948 C39.401372,19.8891045 39.3669813,19.7609254 39.3309941,19.633229 C39.2950065,19.5055311 39.2574226,19.3783164 39.2182424,19.2515854 C39.1791539,19.1248379 39.1384119,18.9988819 39.0960679,18.8738844 C39.0541314,18.7488409 39.0103572,18.6235645 38.9649875,18.4987735 C38.221875,16.440872 37.105236,14.5477592 35.7856107,13.2822544 Z M22.2332167,8.02800009 C17.5636476,8.69430083 13.8325785,10.7474522 11.2093709,14.2746764 C11.1294845,14.3813817 11.0504767,14.4896911 10.9728226,14.5989677 C10.8951294,14.7081634 10.8187535,14.8184465 10.7437804,14.9296968 C10.6684438,15.0424551 10.5950603,15.1548703 10.5230722,15.267774 C10.451049,15.3807326 10.38047,15.4941803 10.3113355,15.608117 C10.2415507,15.7239361 10.1736218,15.8400538 10.1071458,15.9571368 C10.0409583,16.0727449 9.97579084,16.19057 9.9120855,16.3098357 C9.84888549,16.4271904 9.78678595,16.5462588 9.72618883,16.6662915 C9.66571321,16.7860834 9.60673277,16.906363 9.54924775,17.0271298 C9.49157879,17.1480797 9.43544035,17.2701408 9.38090267,17.3931654 C9.32645707,17.5157644 9.27348966,17.6390007 9.2220674,17.7627234 C9.17050427,17.8865522 9.12047818,18.0114963 9.07205311,18.1374015 C9.02385628,18.261747 8.97702702,18.3876581 8.93179895,18.5145292 C8.88660155,18.6410431 8.84294222,18.7682015 8.80087805,18.8958445 C8.75888702,19.0232655 8.71843756,19.1506958 8.67952993,19.2781352 C8.64045332,19.4074152 8.60317509,19.536511 8.56749262,19.6660896 C8.53181067,19.7956663 8.49772457,19.9257253 8.46523439,20.0562662 C8.4328653,20.185742 8.40203355,20.316426 8.37280217,20.448064 C8.34357153,20.5782966 8.31591561,20.7100376 8.28995789,20.8427319 C8.2640981,20.9739595 8.23981691,21.1060066 8.21718101,21.238533 C8.19448517,21.3708446 8.17345076,21.5033372 8.15410791,21.6358357 C8.13476111,21.7683612 8.11705958,21.9013646 8.10100321,22.0348452 C8.08495566,22.1682526 8.07055107,22.3016642 8.05778961,22.4350795 C8.04501271,22.5696235 8.03394257,22.7035286 8.0245634,22.8369643 C8.01517973,22.9714308 8.00744712,23.1053017 8.00135711,23.238702 C7.99526009,23.3732232 7.99085933,23.5076641 7.98815114,23.642106 C7.98534864,23.7764297 7.98428422,23.9109337 7.98496158,24.0454378 C7.98554092,24.1786985 7.9877646,24.3126033 7.99163155,24.4469797 C7.99560052,24.5815396 8.0012077,24.7159186 8.00845827,24.8502959 C8.01581632,24.9839054 8.02475258,25.1177077 8.03528186,25.2519802 C8.04594245,25.3857247 8.05822106,25.5191459 8.07214289,25.6525634 C8.08606391,25.7859732 8.10162791,25.9193789 8.11883474,26.0527802 C8.13616348,26.1863765 8.15506545,26.3193188 8.17556358,26.4517831 C8.63562792,29.3802572 9.8169477,32.0131266 11.7011491,34.3265218 L11.8757725,34.5409219 L15.0482026,31.3764667 L14.9521842,31.2101255 C14.0821055,29.7028102 13.6584588,28.4095996 13.5436934,26.8098393 C13.5833647,22.9603791 14.9041221,19.6890099 17.5549988,17.0518827 C19.9405135,14.6784968 22.8913905,13.3124111 25.9017623,13.3427775 C27.7561039,13.3615557 29.3977894,13.9263426 31.0410165,15.0690032 L31.2114738,15.1875351 L31.3592942,15.0417455 C31.5914867,14.812743 31.8100984,14.5950985 32.1687107,14.2366311 C32.2568109,14.1485579 32.2568109,14.1485579 32.3448936,14.0604974 C33.2838352,13.1218588 33.7615914,12.6528965 34.3277004,12.1244112 L34.5423338,11.9240424 L34.3103022,11.7441079 C30.5815583,8.85256219 26.7549949,7.64561194 22.2332167,8.02800009 Z M30.5830258,17.0743453 C30.5615337,17.0565227 30.46583,16.9855029 30.4437645,16.9686682 L30.3104523,16.8669586 L30.1657656,16.9517098 C28.7145721,17.801756 27.6728017,18.5933561 26.8883578,19.4249935 C26.0867011,20.2748794 25.5786362,21.1060844 24.9626669,22.4522268 C24.8842869,22.623519 24.3103743,23.917511 24.1152456,24.3371064 C23.743855,25.1357265 23.3756675,25.8541175 22.9402094,26.6084836 C21.8027569,28.5796483 20.3348327,30.0779159 18.1724483,31.5856278 L17.7687842,31.8670806 L18.2341339,32.027112 C18.3261413,32.0588104 18.3261413,32.0588104 18.4181838,32.0906601 C18.595387,32.1520457 18.6787391,32.1808462 18.773116,32.2131346 C19.499297,32.4615768 19.984645,32.6020194 20.5051942,32.6965069 C23.391332,32.8407837 25.9283045,31.7969398 28.2446792,29.672706 C30.591502,27.5215412 32.0700888,24.5940104 32.1704049,21.6461753 C32.2303275,19.8856453 31.7757941,18.3767771 30.7314374,17.2264631 C30.6531327,17.1395508 30.6346951,17.1198606 30.5830258,17.0743453 Z M24.3464105,15.117785 C21.1560962,15.8903806 18.5395096,17.8277589 16.7837713,20.6855954 C15.3348169,23.0440652 14.7624266,25.7755376 15.3589422,28.1790348 C15.5568028,28.9762601 15.9013007,29.6896989 16.4411103,30.4856865 L16.5716789,30.6782192 L16.7730994,30.5618285 C17.4347504,30.1794941 18.0072856,29.7965392 18.5606759,29.3606447 C20.511035,27.5277328 21.3486773,26.1752903 22.8623192,22.9766888 C24.5499784,19.4103573 25.7427034,17.7949357 28.7034249,15.8555279 L29.1999829,15.5302597 L28.6203361,15.4022798 C27.074015,15.0608685 25.8481977,14.9715119 24.3464105,15.117785 Z" id="decaf" fill="#170404" fill-rule="nonzero"></path>
    </g>
</svg>