<?xml version="1.0" encoding="UTF-8"?>
<svg viewBox="0 0 48 48" version="1.1" xmlns="http://www.w3.org/2000/svg" stroke="none" stroke-width="1" fill="none" fill-rule="evenodd">
    <g id="icon-organic">
        <path d="M27.7571059,14.4613422 C30.8658572,9.92519248 35.524654,7.48404004 42.3084843,6.20205179 L42.7612488,6.25162455 C43.1405894,6.5569737 43.2448255,6.73511212 43.3649863,7.24756248 C44.4373736,11.7760805 43.4706947,18.4888618 41.1419197,22.3791275 C38.1474103,27.3832241 33.1593806,30.2853172 25.7262289,32.1731768 L25.5821663,32.3156709 C25.02888,34.3983242 24.7114525,37.5214432 24.6275829,41.6898652 L23.1951441,41.6914273 C22.7049422,37.49553 22.0293085,34.3186192 21.1653847,32.1568493 L21.0075569,32.0330237 C14.569472,31.1263502 10.5260426,29.2972106 7.5367805,25.2901801 C5.20985642,22.1669397 3.67054396,16.088629 4.37300924,12.4573366 C4.4723648,11.9332922 4.67158541,11.6236509 5.07754968,11.4102388 C6.23276486,10.8055448 9.37699358,11.6410706 12.575149,12.9531343 C18.7523351,15.4899825 22.3408769,20.482294 22.663545,27.0824983 C22.6897889,27.6152048 22.6898802,28.0358399 22.6743066,28.9345906 C22.6569761,29.9347331 22.6587307,30.3612289 22.6969711,30.907155 C22.7635886,31.8581957 22.9438096,32.6863074 23.2938852,33.5129377 L23.3775914,33.7105922 L23.5688462,33.6131468 C23.9229065,33.4327511 24.0528218,32.9196928 24.0783968,32.1082014 C24.0862021,31.8605387 24.0835884,31.6264466 24.0732298,31.2818988 C24.0673211,31.0930142 24.0651377,31.0170646 24.064219,30.9477029 C23.9620666,23.0130115 24.7044534,18.9173389 27.7571059,14.4613422 Z M37.1001978,14.6990634 L37.3901656,14.9524333 C37.3703843,15.3998459 37.3076105,15.5084285 36.9299379,15.8660477 C36.910995,15.8843443 36.8892211,15.8988369 36.8273492,15.9347075 C36.7924459,15.9549691 36.7924459,15.9549691 36.7527008,15.980084 C32.3054311,19.8306441 28.8632344,24.6221581 26.3726404,30.2846388 L26.1981306,30.6813949 L26.6132478,30.5567082 C33.3827586,28.5233843 37.7393486,25.8139371 40.2264562,21.2154973 C42.1096599,17.7329697 42.8940568,12.5359032 42.103925,8.60794752 C42.0785691,8.49362234 42.0513871,8.41099075 42.0117234,8.32431212 C41.9906456,8.27825008 41.9649502,8.22843819 41.9093711,8.12176205 L41.8022362,8.02571374 C41.5966853,7.94765644 41.5319419,7.92560323 41.4358686,7.90637074 C41.3076321,7.88069962 41.1839849,7.88030164 40.949397,7.90694746 C34.5238337,9.59589876 30.7963247,11.8508435 28.1622947,16.3536111 C26.2806947,19.5681576 25.5626786,23.00763 25.3982381,28.0375726 L25.3702297,28.8943015 L25.7744922,28.1384307 C29.0994672,21.9215507 33.6267889,15.624086 36.4192468,14.7278946 C36.6261717,14.6617351 36.8030225,14.6566515 37.1001978,14.6990634 Z M13.1189601,21.5684838 C12.0817993,20.603622 11.4822494,19.9751967 11.0470387,19.3323986 C11.1926509,19.2153552 11.3861276,19.0621023 11.4365542,19.030306 C11.6096888,18.9211368 11.7838544,18.8840009 12.1776644,18.8850158 C14.7989555,20.2264256 18.4259431,24.5821561 20.9652347,28.8672107 L21.35831,29.5305253 L21.3372181,28.7597791 C21.2017119,23.8080611 19.9983783,20.2553839 17.0906338,17.4706802 C14.4249788,14.9165948 11.3813934,13.7518855 6.01121542,12.7233865 L5.77240898,12.6776502 L5.77359747,12.920794 C5.80352661,19.043799 6.85904632,22.9015031 10.0516774,26.0487248 C12.4932762,28.4546538 15.4990203,29.7078025 19.8592485,30.4773934 L20.2884316,30.5531453 L20.0660022,30.1783631 C18.4722205,27.4929223 16.7312994,25.1823332 14.6668125,23.0424577 C14.455223,22.8237196 14.2189402,22.5936319 13.9205133,22.313173 C13.7453875,22.1485913 13.1077167,21.5580242 13.1189601,21.5684838 Z" id="organic" fill="#2F2525" fill-rule="nonzero"></path>
    </g>
</svg>