<?xml version="1.0" encoding="UTF-8"?>
<svg viewBox="0 0 48 48" xmlns="http://www.w3.org/2000/svg" stroke="none" stroke-width="1" fill="none" fill-rule="evenodd">
    <g id="icon-processes">
        <path d="M24.0869634,4.17740741 C24.6356359,3.61103573 25.3966979,4.47829236 25.3966979,5.68183219 C25.3966979,5.96501803 25.2020076,6.60218617 24.95422,7.08006228 C24.4586448,8.07121272 24.3878483,8.70838086 24.7772289,9.02696493 C24.9719191,9.18625697 24.9896182,9.32784989 24.8480253,9.5756375 C24.6179368,10.0358145 24.0515651,10.0004163 23.7329811,9.50484104 C23.2197067,8.70838086 23.2374059,8.10661095 23.8037775,6.93846936 C24.4055474,5.66413307 24.4586448,5.27475254 24.0692643,4.95616847 C23.7329811,4.67298263 23.7329811,4.51369059 24.0869634,4.17740741 Z M20.218393,5.17015663 C20.4130833,4.69228053 21.0325523,4.83387345 21.4042337,5.45334247 C21.8467116,6.19670531 21.8467116,6.63918318 21.4042337,7.70113008 C21.1210479,8.35599734 21.0679506,8.63918318 21.2095435,9.0108646 C21.3511364,9.3648469 21.3334373,9.54183805 21.1210479,9.73652831 C20.7847647,10.0728115 20.4484815,9.94891769 20.1829948,9.38254601 C19.899809,8.72767876 19.9352072,8.17900619 20.359986,7.29405044 C20.7316674,6.53298849 20.7316674,6.33829823 20.3068886,5.75422743 C20.2006939,5.59493539 20.1652957,5.32944867 20.218393,5.17015663 Z M27.4266607,5.25663717 C27.479758,5.04424779 27.6921474,4.88495575 27.8691386,4.88495575 C28.6832979,4.88495575 29.0372802,6.49557522 28.4709085,7.57522124 C28.2762182,7.96460177 28.2231209,8.37168142 28.2939173,8.88495575 C28.3824129,9.52212389 28.3293156,9.68141593 28.0638288,9.82300885 C27.8160412,9.96460177 27.6744483,9.92920354 27.479758,9.69911504 C27.0018819,9.16814159 26.9487846,8.28318584 27.3381651,7.4159292 C27.7452448,6.49557522 27.780643,6.10619469 27.4974571,5.82300885 C27.3912625,5.71681416 27.3558642,5.46902655 27.4266607,5.25663717 Z" ></path>
        <path d="M33.6491283,18.3407859 C34.6135663,18.9641526 35.4988496,19.788979 35.4988496,21.0106805 L35.4988496,41.1486115 C35.4988496,42.6462385 34.3432816,43.8741972 32.8744255,43.9909227 C32.8119047,43.9969177 32.7486409,44 32.6846903,44 L15.3438108,44 C13.7676946,44 12.49,42.7233899 12.49,41.1486115 L12.49,20.9026549 C12.49,20.8685749 12.4927352,20.83298 12.4979604,20.7960877 C12.5842702,19.6370805 13.5262112,18.9399595 14.4240348,18.3106272 C15.3218584,17.6812949 16.7023894,16.9911504 16.8439823,16.2477876 C16.950177,15.7168142 16.9324779,15.6814159 16.4192035,15.6814159 C15.569646,15.6814159 15.3218584,15.1681416 15.3218584,13.3982301 C15.3218584,12.2477876 15.3926549,11.8230088 15.6227434,11.5752212 C15.8882301,11.2743363 16.3838053,11.2566372 23.9590265,11.2566372 C31.2156637,11.2566372 32.0475221,11.2920354 32.3484071,11.5575221 C32.6138938,11.7876106 32.6669912,12.1238938 32.6669912,13.4159292 C32.6669912,15.1504425 32.4015044,15.6814159 31.4988496,15.6814159 C31.0740708,15.6814159 31.0386726,15.7345133 31.1448673,16.2477876 C31.3041593,17.0265487 32.6846903,17.7174191 33.6491283,18.3407859 Z M31.4165676,13.487457 L31.4519659,12.3185841 L16.4077181,12.3185841 L16.4254172,13.487457 L16.4431163,14.6371681 L31.3988685,14.6371681 L31.4165676,13.487457 Z M34.2599115,26.5356055 C33.2649263,26.6928546 31.7850341,26.5337312 31.059036,26.1651327 C29.7167287,25.4709735 28.8092534,25.4522124 27.2967944,26.0525664 C25.5574667,26.7842478 24.1773479,26.7842478 22.4569259,26.0713274 C20.8877497,25.4334513 20.509635,25.4334513 19.0349876,26.0713274 C18.1653237,26.4465487 17.5603401,26.5778761 16.633959,26.5778761 C15.7075779,26.5778761 15.1025944,26.4465487 14.2329305,26.0713274 C14.0560561,25.9938918 13.8849075,25.9207176 13.7289381,25.8553228 L13.7289381,41.14 C13.7289381,42.0686204 14.4817336,42.8214159 15.410354,42.8214159 L32.5784956,42.8214159 C33.507116,42.8214159 34.2599115,42.0686204 34.2599115,41.14 L34.2599115,26.5356055 Z M34.4369027,21.2566372 C34.4369027,20.6459148 34.1056859,20.1112411 33.6102056,19.8167395 C33.1876565,19.3870631 32.5536116,19.0001323 31.6050442,18.4955752 C30.6669912,17.9823009 30.0121239,17.079646 30.0121239,16.2831858 L30.0121239,15.6814159 L17.9767257,15.6814159 L17.9767257,16.2831858 C17.9767257,17.2035398 17.3218584,17.9823009 15.8528319,18.7787611 C15.1732972,19.158501 14.7119302,19.4605031 14.3960499,19.8065317 C13.8909359,20.0987776 13.5519469,20.6387908 13.5519469,21.2566372 L13.5519469,24.4824558 C13.7507082,24.5643314 13.9862507,24.6640389 14.2329305,24.7720354 C15.1025944,25.1472566 15.7075779,25.2785841 16.633959,25.2785841 C17.5603401,25.2785841 18.1653237,25.1472566 19.0349876,24.7720354 C20.509635,24.1341593 20.8877497,24.1341593 22.4569259,24.7720354 C24.1773479,25.4849558 25.5574667,25.4849558 27.2967944,24.7532743 C28.8092534,24.1529204 29.7167287,24.1716814 31.059036,24.8658407 C31.8294767,25.2570032 33.4489372,25.4122593 34.4369027,25.2038538 L34.4369027,21.2566372 Z"></path>
        <path d="M20.2008496,27.3956805 C21.6698761,26.705415 22.9619115,26.9178044 23.8822655,28.0151495 C25.192,29.5903707 24.8203186,32.3337336 23.0504071,34.0328486 L22.4309381,34.6346185 L23.0858053,35.1124946 C24.8026195,36.3514327 25.1566018,38.3868309 23.8822655,39.8912557 C22.0415576,42.0859459 17.652177,41.6080698 16.0238584,39.023999 C15.4397876,38.1213442 15.333593,36.8470079 15.7583717,36.0151495 C16.0946549,35.3956805 17.192,34.40453 17.5813806,34.40453 C17.8291682,34.40453 17.8291682,34.3514327 17.5282832,34.0328486 C17.0681062,33.5195743 16.9796107,31.6965654 17.3689912,30.5284238 C17.7583717,29.3602822 19.0504071,27.9266539 20.2008496,27.3956805 Z M22.2362478,28.2098397 C22.2362478,27.9620521 21.5459823,27.9974504 20.8203186,28.3160344 C18.9442124,29.1301937 17.7229735,31.625769 18.3601416,33.2894858 L18.5548319,33.785061 L18.7849204,33.0770964 C18.9442124,32.5992203 19.4220885,32.0151495 20.1654514,31.3071849 C21.192,30.3691318 22.2362478,28.7939105 22.2362478,28.2098397 Z M23.5105841,30.2983353 C23.5105841,29.8381583 23.4220885,29.324884 23.333593,29.165592 C23.192,28.9178044 23.0681062,29.0770964 22.6787257,29.944353 C22.3247434,30.7231141 21.8999646,31.2717867 21.0858053,31.9974504 C20.4840354,32.5284238 19.8822655,33.2186893 19.7937699,33.5195743 L19.5990797,34.0505477 L20.4663363,34.0505477 C21.2450974,34.0505477 21.4397876,33.9620521 22.0946549,33.3779813 C22.9973098,32.563822 23.5459823,31.3956805 23.5105841,30.2983353 Z M21.1566018,35.3956805 C19.5813806,34.9178044 18.1654514,35.1124946 17.3158938,35.8912557 L16.8911151,36.2629371 L17.9707611,36.3691318 C18.6964248,36.4399282 19.4574868,36.6877159 20.3247434,37.1124946 C21.1212036,37.5195743 22.0061593,37.8027601 22.6079292,37.8735566 L23.6167788,37.9797513 L23.5105841,37.5018751 C23.3689912,36.7408132 22.2185487,35.6965654 21.1566018,35.3956805 Z M19.7937699,38.1213442 C18.6964248,37.5726716 18.1654514,37.4133796 17.4751859,37.4133796 C16.4309381,37.4133796 16.3601416,37.5726716 16.9796107,38.4930256 C17.4751859,39.2363884 18.5371328,39.8381583 19.7937699,40.0859459 C20.9265133,40.3160344 21.8645664,40.1213442 22.731823,39.484176 L23.2981947,39.0593973 L22.2539469,38.9355035 C21.5636814,38.864707 20.7141239,38.563822 19.7937699,38.1213442 Z"></path>
        <path d="M28.0296087,30.3272904 C29.0915556,29.9202107 30.5782813,30.0795028 31.3570423,30.6635736 C32.2419981,31.3361399 32.5782813,32.1856975 32.4543875,33.4423346 C32.224299,35.955609 29.9765114,38.0795028 27.5517326,38.0972019 C25.3747414,38.114901 23.9588122,36.2564939 24.5251839,34.1326001 C24.9499627,32.5219807 26.4012901,30.9467594 28.0296087,30.3272904 Z M30.2065999,31.2653435 C30.2065999,30.9998568 29.0561574,31.1237506 28.2596972,31.495432 C26.4012901,32.3272904 25.1623521,34.3626886 25.6402282,35.7609187 L25.8349184,36.2918922 L26.2065999,35.8671134 C26.4012901,35.6193258 26.9676618,35.1414497 27.4278388,34.7697683 C27.9057149,34.3980869 28.4366883,33.7609187 28.6313786,33.3538391 C28.8260689,32.9290603 29.2508476,32.3272904 29.5871308,32.0087063 C29.923414,31.6724231 30.2065999,31.3361399 30.2065999,31.2653435 Z M31.3747414,32.6104762 C31.303945,32.274193 31.1800512,32.0087063 31.1092547,32.0087063 C30.8260689,32.0087063 29.8880158,33.2122461 29.5340335,34.0087063 C29.2862459,34.575078 28.8083698,35.0883523 27.8880158,35.8317152 L26.5782813,36.875963 L27.2862459,36.9290603 C28.3658919,37.0175559 29.2154494,36.6812727 30.1004052,35.8140161 C31.0207591,34.8936621 31.5517326,33.5662284 31.3747414,32.6104762 Z"></path>
    </g>
</svg>