<?xml version="1.0" encoding="UTF-8"?>
<svg viewBox="0 0 48 48" xmlns="http://www.w3.org/2000/svg" stroke="none" stroke-width="1" fill="none" fill-rule="evenodd">
    <g id="icon-altitude">
        <path d="M23.4792438,8.71399969 C23.7501157,8.69865122 23.9885193,8.72969699 24.2571921,8.76928907 C25.2281399,9.49241135 38.5210441,37.6547626 38.6157329,38.3082936 C38.6699331,38.6825869 38.6792468,38.5311952 38.518457,38.863978 C38.1226792,39.0702945 25.6326888,39.1615141 23.7712008,39.1639708 L11.7132605,39.1744357 C9.59763946,39.1866447 7.33688075,39.4168718 5.23484213,39.1395528 C4.84276342,39.0872285 4.58353355,39.0994375 4.3310302,38.6634014 C4.31343775,37.8778387 4.52351226,37.2323309 4.7810605,36.5385102 C6.07255303,33.0591165 8.20848298,29.2404867 9.79684804,25.9135312 C10.6900528,24.0429363 11.6025316,22.1817597 12.4619743,20.2825609 C12.9474482,19.2095632 13.3582836,18.0563349 13.8876092,17.0227549 C14.1747801,16.4620125 14.4312934,16.175624 14.9408276,16.045162 C16.1209444,16.3317249 17.0248857,18.3627811 17.7571713,19.5470552 C19.6113634,15.9684196 21.3871656,12.0212464 23.4792438,8.71399969 Z M14.8424575,18.1154329 C11.8344301,24.7768629 8.57757061,31.1375208 5.6623794,37.877884 L36.8623794,37.8305624 L35.5930311,35.1025756 C33.7940424,31.1819686 32.0235144,27.2257268 30.1849516,23.3428622 L27.9979484,21.8837466 C27.7285202,22.7958854 27.4988015,24.0956019 26.7798294,24.4546332 C26.5015919,24.5937243 26.2015346,24.5009969 25.9452526,24.3032806 C25.2182844,23.7421265 24.5360402,22.7123541 23.9126148,21.9370073 C23.1373989,22.7797922 21.0283238,25.742663 20.0887134,25.5788573 C19.0944855,25.4054724 18.2372756,23.5302329 17.6480031,22.533988 L14.8424575,18.1154329 Z M23.8107967,10.7154329 C22.0408972,14.2604954 20.2914248,17.8268338 18.5623794,21.414448 L20.0323233,23.9154329 L22.4407037,21.1753388 C22.8860679,20.684433 23.3260566,20.1769358 23.7866068,19.716675 C24.5582668,20.5857963 25.3105301,21.4892063 26.0433966,22.4269048 C26.2912095,21.6004653 26.4871482,20.6131882 26.9925842,20.0541606 C27.3531492,20.0155127 27.6903305,20.0162935 28.0502235,20.0414732 C27.3305719,18.3694653 24.5402587,11.3759599 23.8107967,10.7154329 Z M40.654739,17.2129532 C39.2232525,18.1662969 37.3345002,19.5301916 35.3650709,20.57109 C35.4561367,20.6391158 35.5501915,20.7092166 35.6464745,20.7808107 C36.5783956,21.4737681 37.5632633,22.1914273 38.5111039,22.8631079 C39.5034343,23.5663158 40.4136983,24.185769 41.1732116,24.6793265 L39.0096375,20.7963406 L41.208231,16.850505 C41.0325248,16.9634873 40.8478435,17.0843492 40.654739,17.2129532 Z M43.1218944,14.5044254 C43.404004,14.4543428 43.7396385,14.7727681 43.6439498,14.9445014 L40.3833438,20.7963406 L43.6439498,26.6481798 C43.7396385,26.8199131 43.404004,27.1383383 43.1218944,27.0882557 C41.5810411,26.8147098 33.6663063,20.8029428 33.6743136,20.7963406 C38.9454653,16.7840944 42.0946589,14.6867894 43.1218944,14.5044254 Z" id="Combined-Shape" fill="#170404" fill-rule="nonzero"></path>
    </g>
</svg>