<?xml version="1.0" encoding="UTF-8"?>
<svg viewBox="0 0 48 48" version="1.1" xmlns="http://www.w3.org/2000/svg" stroke="none" stroke-width="1" fill="currentColor" fill-rule="evenodd">
    <g id="icon-fairtrade">
        <path d="M7.70050689,11.0014133 C9.81614594,10.9144692 13.8558951,14.8672743 15.5456342,15.0386423 C19.130502,15.4015393 21.1415562,13.0011269 23.99937,13.0338885 C27.0172113,13.0691701 29.9985108,15.6485109 33.0226524,14.9579986 C33.0717947,14.946658 33.120937,14.9378376 33.1688193,14.925237 C33.8794925,14.7362282 34.5876457,13.941131 35.1975142,13.5202712 C36.2106017,12.8209385 38.7395401,11.250905 39.9113949,11.0933976 C40.1886079,11.0555959 40.3259544,11.0530757 40.5300839,11.2584654 C40.8425785,11.5734801 45.272946,19.5332728 45.7492483,20.4606762 C45.8853346,20.7252886 45.9798391,20.9193377 46,21.2217518 C45.7404278,21.5014849 45.4833758,21.7396361 45.1683611,21.9588863 C44.4677683,22.4465292 41.1134912,24.4601034 40.4267591,24.5772889 C40.2843724,24.60123 39.9176952,24.4827845 39.7589278,24.4538031 C38.7471004,24.9338856 37.6974713,26.1233813 36.8456714,26.8894972 C37.1266646,27.6228515 37.2123486,28.1092343 37.1128039,28.9005513 C35.9623701,31.0653327 35.6750766,29.8846574 34.530943,30.6961354 C34.3091727,30.8536428 33.9613964,31.7873465 33.7660872,32.0759 C33.4498124,32.5421218 33.0503737,32.6441866 32.5350096,32.7475114 C30.9309545,33.0688265 31.3971763,34.2041396 30.3412469,34.6426402 C29.8926659,34.8291289 28.7523125,34.6060984 28.5015608,34.8039277 C27.8765715,35.2953507 27.9471348,36.1068287 27.0020906,36.3348994 C25.3438529,36.7355981 23.8091011,35.4112761 22.5112403,34.5569561 C21.9303531,35.1794253 21.3003236,35.8283557 20.517827,36.1937728 C19.4203156,36.7066168 18.8444686,35.3495333 18.0342507,34.874491 C17.2517541,34.4183497 16.4490965,34.9954567 15.6035969,34.2835233 C15.2596008,33.9949698 15.0655517,32.8911582 14.7190355,32.7764928 C14.2969157,32.6366262 13.7651708,32.7487715 13.3531315,32.5320413 C12.8352473,32.2611287 12.6676594,31.8906713 12.4799107,31.370267 C11.9254847,29.8304749 10.1198202,29.9262393 9.92199089,28.7896661 C9.78716458,28.0134698 10.1979438,27.141509 10.5696612,26.4913185 C9.87914889,25.8159269 9.24155904,25.0082291 8.44268163,24.4626235 C8.38345886,24.4752241 8.32549615,24.4878247 8.26627338,24.4979052 C8.19066984,24.5117658 8.1150663,24.5218463 8.03946276,24.5344469 C7.25570606,24.665493 2.86944071,21.9664467 2,21.4019403 C3.76408259,17.8800754 5.80033792,14.4527149 7.70050689,11.0014133 Z M13.1212807,15.6056689 C11.7301755,18.1182265 10.287408,20.6181836 8.94922535,23.1584625 L11.5184856,25.6357385 C12.1648959,24.9805078 13.1099401,24.001442 14.1066468,24.0430239 C15.2192789,24.088386 15.4801111,25.8071065 16.4402761,25.6785805 C17.0980269,25.5903763 17.6335519,25.5349338 18.2093989,25.9368926 C18.8028867,26.3501919 18.8646296,27.1566297 19.3610928,27.6379722 C20.0541253,28.3083236 21.6380194,27.5296071 21.86357,29.3617329 C21.8786907,29.4839586 21.8887712,29.6049243 21.9026318,29.72715 C21.9643747,30.2903964 22.1735445,30.6696742 22.6259057,31.0124102 C22.7052894,31.072893 22.7884533,31.1283356 22.8703571,31.1862983 L23.2685358,31.4672915 C23.5898508,32.0607793 23.4739254,32.867217 23.3416192,33.5060669 C24.129156,34.061753 25.4610384,35.2890504 26.4653054,35.1076019 C26.8458432,35.0395587 26.9340474,34.894652 27.1419571,34.6060984 C27.1381769,34.1650778 27.075174,33.8954252 26.7626793,33.5652897 C26.2032132,32.9755821 23.870844,31.9120923 23.8557232,31.1610972 C23.8532031,31.0464318 23.9086457,30.8385221 23.936367,30.7238567 C24.1908989,30.5663493 24.2299608,30.5285475 24.5386752,30.6066712 C26.0847676,31.0023297 28.4940004,33.9168462 29.9720496,33.6056116 C30.2064206,33.3926616 30.2681635,33.2414546 30.2757238,32.9264398 C30.2858043,32.4803789 30.1648386,32.1930855 29.8258828,31.905792 C28.8228758,31.050212 25.6198058,29.4574974 25.3199118,28.3284845 C25.4496979,27.975668 25.4635585,27.9945689 25.7987342,27.8131204 C26.3266989,27.825721 26.4930267,27.9353461 26.9176666,28.2352402 C28.2835705,29.2546279 30.7318652,31.584477 32.416564,31.5693563 C32.7391392,31.4080687 32.8727054,31.370267 33.0062717,31.00737 C33.1335376,30.6570736 33.076835,30.2929165 32.8601048,29.9968026 C31.5773648,28.2415405 28.2029268,27.654353 27.4557118,25.5248533 L27.5602967,25.3018228 C28.1739454,25.1543959 28.8228758,25.5009122 29.3319396,25.817187 C30.8591311,26.7660114 33.3414473,29.4146554 35.1445918,29.3352717 C35.4747272,29.191625 35.6536556,29.0693992 35.8010825,28.7241431 C35.9359088,28.4040881 35.9333887,28.0890733 35.7985624,27.7702784 C35.641055,27.398561 35.3298204,27.1364687 35.0248862,26.8882371 C33.5228958,25.6697601 25.1346831,19.6769195 23.593631,19.0065681 C21.7602451,19.6038361 18.3316246,21.3086959 16.5473811,20.3775123 C15.9916951,20.0876987 15.5909963,19.5420932 15.4297088,18.939785 C15.2104585,18.1245268 15.5468942,17.3042284 15.969014,16.6187563 C16.033697,16.5145914 16.1000601,16.4116866 16.1681033,16.3100419 C15.0894928,16.1978966 14.1331081,16.0114079 13.1212807,15.6056689 Z M23.5318881,14.199443 C21.8320685,14.7299279 17.4067413,16.2205777 16.6330651,17.8863757 C16.5196598,18.129567 16.5045391,18.299675 16.5007589,18.5630273 C16.7187491,18.9423051 16.8938973,19.1388743 17.3273576,19.2573198 C19.621925,19.8848292 21.9227927,17.2828074 24.0800137,17.9443384 C25.9398608,18.512625 31.6781695,22.9379522 33.5518772,24.2937756 L35.9296085,26.0477778 C37.0309001,25.0939131 38.1233712,24.1249277 39.2385234,23.1887039 C37.8121367,20.649685 36.431112,18.065304 34.935422,15.5678671 C31.3114923,17.0736376 29.4856668,15.84256 26.0142043,14.7311879 C25.2052464,14.4716158 24.3887282,14.2044833 23.5318881,14.199443 Z M39.6442624,12.5298649 L35.8086429,14.5547797 C36.3895301,15.5918082 40.2957129,22.8736892 40.6938916,23.0576578 C41.9778917,22.3520247 43.288353,21.674113 44.5509322,20.9331983 C43.5063433,19.0431098 40.9748847,13.9524715 39.8345313,12.5701868 L39.6442624,12.5298649 Z M8.30281509,12.4605616 C6.77058335,15.3007346 5.2060101,18.1224267 3.60909533,20.925638 C4.38529168,21.3603583 6.88650878,23.0135557 7.62490335,23.0148158 L12.3072826,14.56234 C11.0396632,13.8579671 9.65611845,12.9557648 8.30281509,12.4605616 Z M19.4770182,28.9068516 C18.6000172,29.7183296 16.1895243,31.4849323 16.1643231,32.7097097 C16.1592829,32.9428206 16.2978894,33.0789069 16.4150749,33.2704359 C16.717489,33.4569246 16.9417795,33.550169 17.2895558,33.6232524 C18.1841977,33.1393898 20.3968613,31.0766732 20.6236719,30.1177683 C20.6967553,29.8065337 20.6866749,29.5734228 20.4800252,29.3138507 C20.2418741,29.0152167 19.8273146,28.9660744 19.4770182,28.9068516 Z M16.696068,26.8239741 C15.7270827,27.7727985 13.5219794,29.4789184 13.4778774,30.8826241 C13.6479853,31.1812581 13.7702111,31.3627066 14.1255477,31.4496507 C14.323377,31.4975329 14.5577479,31.4861924 14.7606174,31.4861924 C15.5746155,30.8612031 17.7721584,28.979935 17.9384862,27.9630674 C18.0040093,27.5636287 17.9246256,27.482985 17.7167158,27.16419 C17.3374381,26.9348593 17.1358286,26.864296 16.696068,26.8239741 Z M13.5471806,25.4505098 C12.8869097,26.0729789 11.2979753,27.3116169 11.2148114,28.2276798 C11.18457,28.5578153 11.3004954,28.7594247 11.5487271,28.9635543 C11.7755377,29.150043 12.1812767,29.213046 12.4584896,29.234467 C13.3065094,28.4318094 14.7051748,27.3657995 14.880323,26.1561428 C14.7492769,25.8134068 14.7152553,25.731503 14.3599187,25.5639151 C14.1255477,25.45429 13.7979324,25.4454696 13.5471806,25.4505098 Z M21.3847476,31.5920373 C20.5883903,32.2812896 19.6395659,32.9125792 19.2451674,33.9206264 C19.2817091,34.3011642 19.280449,34.446071 19.5664824,34.7333644 C19.6811478,34.8492898 19.9192989,34.958915 20.0541253,35.0345185 C20.7975601,34.5708168 21.9757152,33.6333329 22.1962256,32.7462514 C22.2630087,32.4778588 22.2025258,32.3669736 22.140783,32.1061414 C21.8938114,31.8049873 21.7337839,31.7319039 21.3847476,31.5920373 Z"></path>
    </g>
</svg>