<?xml version="1.0" encoding="UTF-8"?>
<svg width="409px" height="82px" viewBox="0 0 409 82" version="1.1" xmlns="http://www.w3.org/2000/svg" xmlns:xlink="http://www.w3.org/1999/xlink" fill="#000000" fill-rule="evenodd">
            <path d="M341.523726,1.62380775 L367.325157,1.62380775 C372.688988,1.62380775 378.054182,2.12926403 383.163241,3.39494833 C394.914078,6.43177323 403.85425,15.5422479 406.919686,27.1840912 C409.73035,36.5479752 409.73035,46.9241342 406.664914,56.2880182 C403.343345,67.9298615 393.892266,76.53488 381.885295,78.8128392 C378.051628,79.8307125 374.100939,80.3409812 370.134459,80.3305705 C361.194286,80.5839798 350.465261,80.3305705 341.525088,80.3305705 L341.525088,1.62380775 L341.523726,1.62380775 Z M357.105676,66.9175866 C363.492681,67.1709959 369.623553,66.6641772 376.009196,65.9053116 C383.161879,64.3875804 389.037978,59.0727962 391.336374,52.2389184 C393.636132,45.406403 393.636132,38.0670689 391.592508,31.2331911 C389.803656,23.3884007 383.672785,17.5667978 375.754424,15.7956573 C369.623553,14.7833823 363.492681,14.5299729 357.105676,14.7833823 L357.105676,66.9175866 Z M258.502192,80.0785235 L243.68592,80.0785235 L243.68592,1.62380775 L257.736515,1.62380775 C269.742123,19.5913478 294.776514,56.2880182 294.776514,56.2880182 L294.776514,1.62380775 L309.592786,1.62380775 L309.592786,80.0785235 L295.798326,80.0785235 C283.791355,62.1096211 258.502192,24.9061319 258.502192,24.9061319 C258.502192,24.9061319 258.758327,62.1096211 258.502192,80.0785235 Z M196.682574,1.62380775 L212.009752,1.62380775 L212.009752,80.0785235 L196.682574,80.0785235 L196.682574,1.62380775 Z M170.115465,80.0785235 L153.766475,80.0785235 L132.563198,43.8873093 C136.395673,43.8873093 140.226787,43.6339 144.059262,43.1284437 C150.190134,41.8627594 154.532153,36.8013846 155.043059,30.7277348 C155.810099,25.1595413 152.999435,19.5913478 147.890376,16.8079322 C145.081074,15.5422479 142.015639,15.0367916 138.694069,15.0367916 L127.710272,15.0367916 L127.710272,80.0785235 L112.12696,80.0785235 L112.12696,1.62380775 C112.12696,1.62380775 133.074103,1.62380775 143.548356,2.12926403 C147.37947,2.38267337 151.211945,3.14153899 155.043059,4.4072233 C161.430064,6.68518257 166.282989,11.4931481 168.071841,17.8202072 C170.881143,25.1595413 170.626371,33.5111503 167.05003,40.5970751 C164.4955,45.406403 160.152118,49.2020935 154.788287,50.9732341 L152.488529,51.7334621 L170.115465,80.0785235 Z M66.4015598,50.9732341 L36.7690154,50.9732341 L36.7690154,38.5725252 L84.5394018,38.5725252 C84.7941736,40.8504844 84.7941736,43.1284437 84.5380394,45.1529936 C84.0271335,52.4923277 81.217832,59.3248431 76.8744503,65.146446 C70.4888073,73.7514644 61.2925004,79.3182955 51.0743817,81.0907985 C42.1328466,82.8619391 32.6817679,82.1030735 24.5072729,78.3060205 C3.56012949,68.9421365 -5.63617739,44.8995843 3.56012949,24.4006757 C9.94713492,10.2274637 23.7415952,0.863579715 39.5796793,0.104714096 C50.3237754,-0.639668921 60.9650537,2.60408494 69.4669954,9.21518878 C74.0651489,13.0122417 77.8976246,17.5667978 80.4521543,22.881582 C80.7069261,23.3884007 81.4726038,25.4129506 81.4726038,25.4129506 L63.590896,25.4129506 C63.3361242,24.9061319 63.07999,24.4006757 62.5690841,23.893857 C54.1398173,12.7588324 37.7908273,10.4808731 26.5508967,18.8324821 C22.9745551,21.3638508 20.1638913,24.9061319 18.6311734,28.9552318 C13.7782482,39.8382095 16.0766438,52.4923277 24.2511388,61.0973461 C34.4692575,70.9666864 52.3509653,70.7146395 61.5472722,60.5905275 C63.5520641,58.3776833 65.1134833,55.8006016 66.1467881,52.9991464 C66.1454256,52.2389184 66.4015598,51.7334621 66.4015598,50.9732341 Z"></path>
</svg>