
<svg viewBox="0 0 1773 1014" version="1.1" xmlns="http://www.w3.org/2000/svg">
<g id="espress-logo-mark-60" transform="translate(0.920000, 0.000000)" fill="#F96C6E">
    <g id="Group">
        <path d="M304.809619,158.117909 C362.948434,119.875866 341.729828,16.0094934 401.520916,0 C396.589583,42.5596294 446.312759,105.930844 505.178671,104.09298 L630.71508,473.566566 L707.158317,855.810525 C649.019502,894.052567 669.970828,997.990507 610.17974,1014 C615.111073,971.440371 564.554628,907.833115 505.688716,909.670978 L380.985576,540.433434 L304.809619,158.117909 Z" id="Combined-Shape" opacity="0.6"></path>
        <path d="M158.497662,305.223826 C189.695999,243.030857 119.387175,163.648694 163.133985,119.891784 C180.149335,159.22973 254.879387,189.279511 304.912517,158.263137 L598.343185,415.620233 L855.66692,708.58057 C824.468583,770.77354 894.581848,850.351306 850.835039,894.108216 C833.819689,854.77027 758.250347,824.932496 708.217216,855.94887 L415.625839,598.379767 L158.497662,305.223826 Z" id="Combined-Shape" opacity="0.3"></path>
        <path d="M102.503107,505.222973 C98.4343644,435.788152 -2.08708279,402.217558 13.9174478,342.469153 C48.3006062,368.016636 128.000746,356.671536 155.812351,304.809619 L538.390452,380.906805 L907.503202,505.874778 C911.571944,575.309599 1012.02185,609.147282 996.017317,668.895687 C961.634158,643.348203 881.313457,655.2964 853.501853,707.158317 L471.544312,630.458035 L102.503107,505.222973 Z" id="Combined-Shape" opacity="0.4"></path>
        <path d="M158.117909,707.158317 C119.875866,649.019502 16.0094934,670.238108 0,610.44702 C42.5596294,615.378353 105.930844,565.655177 104.09298,506.789265 L473.566566,381.252856 L855.810525,304.809619 C894.052567,362.948434 997.990507,341.997108 1014,401.788196 C971.440371,396.856863 907.833115,447.413308 909.670978,506.27922 L540.433434,630.98236 L158.117909,707.158317 Z" id="Combined-Shape" opacity="0.6"></path>
        <path d="M305.223826,855.502338 C243.030857,824.304001 163.648694,894.612825 119.891784,850.866015 C159.22973,833.850665 189.279511,759.120613 158.263137,709.087483 L415.620233,415.656815 L708.58057,158.33308 C770.77354,189.531417 850.351306,119.418152 894.108216,163.164961 C854.77027,180.180311 824.932496,255.749653 855.94887,305.782784 L598.379767,598.374161 L305.223826,855.502338 Z" id="Combined-Shape" opacity="0.8"></path>
        <path d="M505.222973,909.464829 C435.788152,913.533571 402.217558,1014.05502 342.469153,998.050488 C368.016636,963.66733 356.671536,883.96719 304.809619,856.155585 L380.906805,473.577483 L505.874778,104.464734 C575.309599,100.395992 609.147282,-0.0539115311 668.895687,15.950619 C643.348203,50.3337775 655.2964,130.654479 707.158317,158.466083 L630.458035,540.423624 L505.222973,909.464829 Z" id="Combined-Shape" opacity="0.9"></path>
    </g>
</g>
<g id="COFFEE" transform="translate(223.000000, 247.000000)" fill="#1D0207">
    <path d="M105.100917,360 C89.7736237,360 75.6781989,357.534271 62.8142202,352.60274 C49.9502415,347.671208 38.8198737,340.7763 29.4227829,331.917808 C20.0256921,323.059316 12.7727065,312.511477 7.66360856,300.273973 C2.55451064,288.036468 0,274.611945 0,260 C0,245.388055 2.6001269,231.963532 7.80045872,219.726027 C13.0007905,207.488523 20.3450086,196.940684 29.8333333,188.082192 C39.321658,179.2237 50.5888746,172.328792 63.6353211,167.39726 C76.6817676,162.465729 91.0508899,160 106.743119,160 C115.684041,160 124.487979,161.050218 133.155199,163.150685 C141.822418,165.251152 150.033346,168.447467 157.788226,172.739726 C165.543107,177.031985 172.613628,182.465721 179,189.041096 L143.692661,230.410959 C141.138112,227.305921 138.081822,224.474899 134.5237,221.917808 C130.965579,219.360718 126.860115,217.305944 122.207187,215.753425 C117.554258,214.200905 112.217155,213.424658 106.195719,213.424658 C99.991814,213.424658 94.1073163,214.474875 88.5420489,216.575342 C82.9767816,218.67581 78.1414578,221.73514 74.0359327,225.753425 C69.9304076,229.77171 66.691653,234.703167 64.3195719,240.547945 C61.9474907,246.392723 60.7614679,253.150647 60.7614679,260.821918 C60.7614679,267.762592 61.9474907,274.063899 64.3195719,279.726027 C66.691653,285.388156 70.0672564,290.22829 74.4464832,294.246575 C78.82571,298.26486 84.1171963,301.369852 90.3211009,303.561644 C96.5250055,305.753436 103.458677,306.849315 111.122324,306.849315 C116.596358,306.849315 121.796611,306.027405 126.723242,304.383562 C131.649872,302.739718 136.120265,300.593621 140.134557,297.945205 C144.148848,295.29679 147.615684,292.328784 150.535168,289.041096 L178.7263,333.424658 C173.982137,338.538838 167.687093,343.105003 159.840979,347.123288 C151.994864,351.141573 143.327774,354.292226 133.83945,356.575342 C124.351125,358.858459 114.77171,360 105.100917,360 Z" id="Path"></path>
    <path d="M385.38493,223.10933 C385.38493,298.968733 323.888733,360.46493 248.02933,360.46493 C238.810038,360.46493 218.074661,357.826007 202.498701,342.128878 C186.922741,326.43175 184.92,306.574892 184.92,297.3556 C184.92,221.496197 246.416197,160 322.2756,160 C331.494892,160 350.001271,160.434082 367.6931,178.222175 C385.38493,196.010269 385.38493,213.890038 385.38493,223.10933 Z M224.638623,334.450544 C230.50291,336.11058 259.191623,263.865065 295.743652,274.212048 C332.29568,284.559031 353.447212,188.104983 346.062554,186.014568 C340.198267,184.354532 312.289464,256.130978 275.142801,245.615669 C237.996138,235.100359 217.253965,332.360129 224.638623,334.450544 Z" id="Combined-Shape"></path>
    <polygon id="Combined-Shape" points="463.260437 215.468571 463.260437 242.897143 531.848907 242.897143 531.848907 289.525714 463.260437 289.525714 463.260437 357 404 357 404 165 542 165 542 215.468571"></polygon>
    <polygon id="Combined-Shape" points="626.260437 215.468571 626.260437 242.897143 694.848907 242.897143 694.848907 289.525714 626.260437 289.525714 626.260437 357 567 357 567 165 705 165 705 215.468571"></polygon>
    <polygon id="Combined-Shape" points="785.628466 237.411429 861.953789 237.411429 861.953789 282.394286 785.628466 282.394286 785.628466 309 877 309 877 357 729 357 729 165 872.075786 165 872.075786 213 785.628466 213"></polygon>
    <polygon id="Combined-Shape" points="956.628466 237.411429 1032.95379 237.411429 1032.95379 282.394286 956.628466 282.394286 956.628466 309 1048 309 1048 357 900 357 900 165 1043.07579 165 1043.07579 213 956.628466 213"></polygon>
</g>
<g id="GUIDE" transform="translate(223.000000, 624.000000)" fill="#1D0207">
    <path d="M111.736,124.396 L111.736,82.748 L193.992,82.748 C194.174668,84.7573434 194.402999,88.0453105 194.677,92.612 C194.951001,97.1786895 195.133666,101.699644 195.225,106.175 C195.316334,110.650356 195.362,113.709992 195.362,115.354 C195.362,127.592728 193.07869,138.917948 188.512,149.33 C183.94531,159.742052 177.506375,168.692629 169.195,176.182 C160.883625,183.671371 151.06539,189.516646 139.74,193.718 C128.41461,197.919354 115.993401,200.02 102.476,200.02 C86.0359178,200.02 71.4683968,197.554025 58.773,192.622 C46.0776032,187.689975 35.3460438,180.748711 26.578,171.798 C17.8099562,162.847289 11.1883557,152.252728 6.713,140.014 C2.23764429,127.775272 0,114.440739 0,100.01 C0,85.3965936 2.51164155,72.0163941 7.535,59.869 C12.5583585,47.7216059 19.8192858,37.1727114 29.318,28.222 C38.8167142,19.2712886 50.096268,12.3300247 63.157,7.398 C76.217732,2.46597534 90.785253,0 106.86,0 C118.002722,0 128.368952,1.3699863 137.959,4.11 C147.549048,6.8500137 156.225628,10.5489767 163.989,15.207 C171.752372,19.8650233 178.465305,25.1166374 184.128,30.962 L149.056,68.226 C145.402648,64.755316 141.475354,61.6956799 137.274,59.047 C133.072646,56.3983201 128.414692,54.2976744 123.3,52.745 C118.185308,51.1923256 112.431365,50.416 106.038,50.416 C99.4619671,50.416 93.4340274,51.6489877 87.954,54.115 C82.4739726,56.5810123 77.7246868,60.0059781 73.706,64.39 C69.6873132,68.7740219 66.5363448,74.0256361 64.253,80.145 C61.9696552,86.2643639 60.828,92.8859644 60.828,100.01 C60.828,107.134036 62.0153215,113.755636 64.39,119.875 C66.7646785,125.994364 70.0526457,131.245978 74.254,135.63 C78.4553543,140.014022 83.4786374,143.438988 89.324,145.905 C95.1693626,148.371012 101.562632,149.604 108.504,149.604 C113.253357,149.604 117.591647,148.827674 121.519,147.275 C125.446353,145.722326 128.825653,143.62168 131.657,140.973 C134.488347,138.32432 136.725992,135.127685 138.37,131.383 C139.343303,129.166031 140.02849,126.837039 140.425564,124.396 L111.736,124.396 Z" id="Path"></path>
    <path d="M298.73,198.924 C282.10725,198.924 267.357064,195.681699 254.479,189.197 C241.600936,182.712301 231.508703,173.80739 224.202,162.482 C216.895297,151.15661 213.242,138.187406 213.242,123.574 L213.242,5.48 L272.974,5.48 L272.974,121.108 C272.974,126.40536 274.069989,131.108979 276.262,135.219 C278.454011,139.329021 281.513647,142.571321 285.441,144.946 C289.368353,147.320679 293.797975,148.508 298.73,148.508 C304.02736,148.508 308.685313,147.320679 312.704,144.946 C316.722687,142.571321 319.919321,139.329021 322.294,135.219 C324.668679,131.108979 325.856,126.40536 325.856,121.108 L325.856,5.48 L384.218,5.48 L384.218,123.574 C384.218,138.187406 380.564703,151.15661 373.258,162.482 C365.951297,173.80739 355.859064,182.712301 342.981,189.197 C330.102936,195.681699 315.35275,198.924 298.73,198.924 Z" id="Path"></path>
    <polygon id="Path" points="405.688 197.28 405.688 149.33 439.39 149.33 439.39 53.43 405.688 53.43 405.688 5.48 532.276 5.48 532.276 53.43 498.574 53.43 498.574 149.33 532.276 149.33 532.276 197.28"></polygon>
    <path d="M557.746,197.28 L557.746,5.48 L633.138,5.48 C647.568739,5.48 660.81194,7.85464292 672.868,12.604 C684.92406,17.3533571 695.427289,23.9749575 704.378,32.469 C713.328711,40.9630425 720.224309,51.0552749 725.065,62.746 C729.905691,74.4367251 732.326,87.3145963 732.326,101.38 C732.326,115.262736 729.905691,128.094941 725.065,139.877 C720.224309,151.659059 713.328711,161.796958 704.378,170.291 C695.427289,178.785042 684.92406,185.406643 672.868,190.156 C660.81194,194.905357 647.568739,197.28 633.138,197.28 L557.746,197.28 Z M631.768,146.864 C637.79603,146.864 643.275975,145.722345 648.208,143.439 C653.140025,141.155655 657.432648,138.004687 661.086,133.986 C664.739352,129.967313 667.570657,125.172361 669.58,119.601 C671.589343,114.029639 672.594,107.956033 672.594,101.38 C672.594,94.8039671 671.589343,88.7303612 669.58,83.159 C667.570657,77.5876388 664.739352,72.7926868 661.086,68.774 C657.432648,64.7553132 653.140025,61.6043447 648.208,59.321 C643.275975,57.0376552 637.79603,55.896 631.768,55.896 L616.93,55.896 L616.93,146.864 L631.768,146.864 Z" id="Combined-Shape"></path>
    <polygon id="Combined-Shape" points="804.924 77.816 881.37 77.816 881.37 122.752 804.924 122.752 804.924 149.33 896.44 149.33 896.44 197.28 748.206 197.28 748.206 5.48 891.508 5.48 891.508 53.43 804.924 53.43"></polygon>
</g>
<g id="SPECIALTY" transform="translate(223.000000, 189.000000)" fill="#1D0207">
    <path d="M89.598,200.02 C75.1672612,200.02 62.4263886,198.421683 51.375,195.225 C40.3236114,192.028317 30.6423749,187.507363 22.331,181.662 C14.0196251,175.816637 6.57603288,168.966706 0,161.112 L34.25,122.752 C43.383379,134.442725 52.9276169,142.160315 62.883,145.905 C72.8383831,149.649685 82.1999562,151.522 90.968,151.522 C94.438684,151.522 97.5439863,151.202337 100.284,150.563 C103.024014,149.923663 105.124659,148.873341 106.586,147.412 C108.047341,145.950659 108.778,143.941346 108.778,141.384 C108.778,139.009321 108.001674,137.000008 106.449,135.356 C104.896326,133.711992 102.841346,132.296339 100.284,131.109 C97.7266539,129.921661 94.9410151,128.917004 91.927,128.095 C88.9129849,127.272996 85.9903475,126.588003 83.159,126.04 C80.3276525,125.491997 77.816011,124.944003 75.624,124.396 C64.6639452,121.838654 55.0740411,118.733352 46.854,115.08 C38.6339589,111.426648 31.7840274,107.042692 26.304,101.928 C20.8239726,96.8133078 16.7596799,90.9680329 14.111,84.392 C11.4623201,77.8159671 10.138,70.4180411 10.138,62.198 C10.138,52.8819534 12.2843119,44.3880384 16.577,36.716 C20.8696881,29.0439616 26.6236306,22.4680274 33.839,16.988 C41.0543694,11.5079726 49.2742872,7.30668128 58.499,4.384 C67.7237128,1.46131872 77.2679507,0 87.132,0 C101.562739,0 113.618618,1.32432009 123.3,3.973 C132.981382,6.62167991 141.109967,10.4119753 147.686,15.344 C154.262033,20.2760247 159.924643,26.0299671 164.674,32.606 L130.15,65.76 C126.131313,61.9239808 121.930022,58.7730123 117.546,56.307 C113.161978,53.8409877 108.641023,52.0143393 103.983,50.827 C99.3249767,49.6396607 94.7126895,49.046 90.146,49.046 C85.9446457,49.046 82.3826813,49.3656635 79.46,50.005 C76.5373187,50.6443365 74.2540082,51.6489932 72.61,53.019 C70.9659918,54.3890069 70.144,56.2613215 70.144,58.636 C70.144,61.0106785 71.1943228,62.9743256 73.295,64.527 C75.3956772,66.0796744 78.0443174,67.4039945 81.241,68.5 C84.4376827,69.5960055 87.6343174,70.4636635 90.831,71.103 C94.0276826,71.7423365 96.721989,72.2446648 98.914,72.61 C108.960717,74.4366758 118.185291,76.9483173 126.588,80.145 C134.990709,83.3416826 142.342968,87.3603091 148.645,92.201 C154.947032,97.0416909 159.78765,103.069631 163.167,110.285 C166.54635,117.500369 168.236,126.039951 168.236,135.904 C168.236,149.969404 164.719702,161.751286 157.687,171.25 C150.654298,180.748714 141.201393,187.918309 129.328,192.759 C117.454607,197.599691 104.211406,200.02 89.598,200.02 Z" id="Path"></path>
    <path d="M190.102,197.28 L190.102,5.48 L276.412,5.48 C289.564066,5.48 301.254616,8.31130502 311.484,13.974 C321.713384,19.636695 329.750637,27.3999507 335.596,37.264 C341.441363,47.1280493 344.364,58.4532694 344.364,71.24 C344.364,84.5747333 341.441363,96.4479479 335.596,106.86 C329.750637,117.272052 321.713384,125.446304 311.484,131.383 C301.254616,137.319696 289.564066,140.288 276.412,140.288 L249.286,140.288 L249.286,197.28 L190.102,197.28 Z M248.19,89.872 L265.452,89.872 C268.922684,89.872 272.027986,89.1870068 274.768,87.817 C277.508014,86.4469931 279.654326,84.4833461 281.207,81.926 C282.759674,79.3686539 283.536,76.1720192 283.536,72.336 C283.536,68.4999808 282.759674,65.3946785 281.207,63.02 C279.654326,60.6453215 277.508014,58.8643393 274.768,57.677 C272.027986,56.4896607 268.922684,55.896 265.452,55.896 L248.19,55.896 L248.19,89.872 Z" id="Combined-Shape"></path>
    <polygon id="Combined-Shape" points="419.962 77.816 496.408 77.816 496.408 122.752 419.962 122.752 419.962 149.33 511.478 149.33 511.478 197.28 363.244 197.28 363.244 5.48 506.546 5.48 506.546 53.43 419.962 53.43"></polygon>
    <path d="M628.532,200.02 C613.187923,200.02 599.077064,197.554025 586.199,192.622 C573.320936,187.689975 562.17838,180.794378 552.771,171.935 C543.36362,163.075622 536.102692,152.526728 530.988,140.288 C525.873308,128.049272 523.316,114.623406 523.316,100.01 C523.316,85.3965936 525.918974,71.9707279 531.125,59.732 C536.331026,47.4932721 543.683286,36.9443776 553.182,28.085 C562.680714,19.2256224 573.960268,12.3300247 587.021,7.398 C600.081732,2.46597534 614.466588,0 630.176,0 C639.126711,0 647.94029,1.05032283 656.617,3.151 C665.29371,5.25167717 673.513628,8.44831187 681.277,12.741 C689.040372,17.0336881 696.118635,22.4679671 702.512,29.044 L667.166,70.418 C664.608654,67.3126511 661.549018,64.4813461 657.987,61.924 C654.424982,59.3666539 650.315023,57.3116744 645.657,55.759 C640.998977,54.2063256 635.65603,53.43 629.628,53.43 C623.417302,53.43 617.526361,54.4803228 611.955,56.581 C606.383639,58.6816772 601.543021,61.7413132 597.433,65.76 C593.322979,69.7786868 590.080679,74.7106374 587.706,80.556 C585.331321,86.4013626 584.144,93.1599616 584.144,100.832 C584.144,107.773368 585.331321,114.075305 587.706,119.738 C590.080679,125.400695 593.459978,130.241313 597.844,134.26 C602.228022,138.278687 607.525302,141.383989 613.736,143.576 C619.946698,145.768011 626.887962,146.864 634.56,146.864 C640.040027,146.864 645.245975,146.042008 650.178,144.398 C655.110025,142.753992 659.585313,140.60768 663.604,137.959 C667.622687,135.31032 671.093319,132.342016 674.016,129.054 L702.238,173.442 C697.488643,178.556692 691.186706,183.123313 683.332,187.142 C675.477294,191.160687 666.800714,194.311655 657.302,196.595 C647.803286,198.878345 638.213382,200.02 628.532,200.02 Z" id="Path"></path>
    <polygon id="Path" points="720.076 197.28 720.076 149.33 753.778 149.33 753.778 53.43 720.076 53.43 720.076 5.48 846.664 5.48 846.664 53.43 812.962 53.43 812.962 149.33 846.664 149.33 846.664 197.28"></polygon>
    <path d="M940.446183,128.506 L973.945817,128.506 L968.43,113.436 C966.420657,107.773305 964.685341,102.932687 963.224,98.914 C961.762659,94.8953132 960.484005,91.1050178 959.388,87.543 C958.744766,85.4524911 958.101539,83.2676253 957.45831,80.9883795 C956.792937,83.2676253 956.111836,85.4524911 955.415,87.543 C954.227661,91.1050178 952.857674,94.8953132 951.305,98.914 C949.752326,102.932687 947.971343,107.773305 945.962,113.436 L940.446183,128.506 Z M925.703908,168.784 L915.274,197.28 L857.734,197.28 L934.728,5.48 L981.308,5.48 L1057.754,197.28 L999.118,197.28 L988.688092,168.784 L925.703908,168.784 Z" id="Combined-Shape"></path>
    <polygon id="Path" points="1072.194 197.28 1072.194 5.48 1131.378 5.48 1131.378 146.864 1213.578 146.864 1213.578 197.28"></polygon>
    <polygon id="Combined-Shape" points="1194.262 5.48 1409.698 5.48 1449.25858 62.2567634 1485.322 5.48 1549.438 5.48 1479.294 111.860753 1479.294 197.28 1419.562 197.28 1419.562 112.369046 1378.458 55.896 1312.63 55.896 1312.63 197.28 1253.446 197.28 1253.446 55.896 1194.262 55.896"></polygon>
</g>
</svg>