<?xml version="1.0" encoding="UTF-8"?>
<svg width="39px" height="48px" viewBox="0 0 39 48" version="1.1" xmlns="http://www.w3.org/2000/svg" xmlns:xlink="http://www.w3.org/1999/xlink">
    <!-- Generator: Sketch 51.3 (57544) - http://www.bohemiancoding.com/sketch -->
    <title>Artboard 2</title>
    <desc>Created with Sketch.</desc>
    <defs></defs>
    <g id="Artboard-2" stroke="none" stroke-width="1" fill="none" fill-rule="evenodd">
        <path d="M16.9469978,0 C17.5176024,0.0675163359 18.1281334,0.0250971104 18.7033526,0.0244146031 C19.8226258,0.0164679831 20.941899,0.0211697 22.0611723,0.038519754 C21.9670747,0.512012185 21.7778763,0.958036691 21.6179706,1.41200383 L20.820047,3.64891151 C20.3064226,5.05890773 19.8489758,6.49398908 19.3160905,7.89580319 C18.4252731,7.98636513 17.6125026,8.10899692 16.7523823,8.36369986 C15.5186805,8.79168383 14.4288337,9.3465902 13.4425143,10.2126161 C13.764934,8.75672029 14.3604173,7.35756038 14.8650132,5.95730286 L16.9469978,0 Z M4.6357614,35.1231826 C4.80923002,35.264274 4.94253161,36.6362733 5.00569136,36.9232457 C5.28804435,38.2062396 5.66824681,39.4018248 6.26694028,40.5766553 C6.54542102,41.1226612 6.90977335,41.6331447 7.14010181,42.2015017 C6.60922281,44.1622134 5.68650455,46.0099722 5.18026348,47.9750744 C4.32018333,47.9924364 3.45825734,47.9810613 2.59793642,47.9806621 C1.73398402,47.9842543 0.86256802,48.0097984 0,47.959708 C0.135769394,47.4410423 0.363108393,46.924971 0.538242284,46.4164831 C1.06009273,44.9015963 1.62503947,43.4008785 2.15944963,41.8901825 L3.60845235,37.7799719 C3.91215286,36.9118705 4.17077078,35.9178446 4.6357614,35.1231826 Z M34.4118334,35.1231826 C34.5217811,35.1768651 34.5685289,35.2540962 34.6239041,35.3576697 C34.8526275,35.7855339 34.9677917,36.2565039 35.1254904,36.712307 L35.9601301,39.0927009 C36.6600772,41.0203516 37.3439734,42.9536566 38.0118189,44.892616 C38.2772584,45.6485626 38.5832261,46.3915377 38.8245895,47.1556665 C38.8992255,47.3917501 39.0557205,47.7437802 38.97968,47.9886447 C38.142432,48.0074036 37.3031777,47.9970263 36.4657292,47.9980242 C35.6301532,48.000552 34.7946441,47.9986229 33.9592018,47.9922368 C33.8057164,47.4653891 33.5976584,46.9475217 33.4176892,46.4284569 L31.9008921,42.1859357 C32.9594399,40.639917 33.752147,38.8236892 34.1187063,36.9813187 C34.241294,36.3646673 34.2515264,35.7336474 34.4118334,35.1231826 Z M18.67368,26.773546 C19.8845094,26.6735646 20.9978305,26.8032809 22.1398423,27.2241604 C24.3690927,28.045564 25.5889507,29.6532478 26.551194,31.7237195 C25.3640394,32.2190362 24.1124811,32.7067695 22.8651362,33.0234768 C22.8209966,32.8640256 22.7822741,32.6963922 22.7134565,32.5457217 C22.3338559,31.7151383 21.5662282,31.0709472 20.7151364,30.7604263 C19.7699471,30.415381 18.7850322,30.47984 17.8741513,30.9130924 C17.0995014,31.2816863 16.3641758,32.089719 16.0919147,32.8987496 C15.8092206,33.7381139 15.8515545,34.897578 16.2478077,35.6872509 C16.6960253,36.5806969 17.4397776,37.2177037 18.3931929,37.5292224 C19.3293537,37.8351533 20.255884,37.736968 21.1314531,37.295733 C22.0244775,36.8457173 22.5860535,36.1039396 22.8952314,35.1699822 C23.0980729,35.2605841 23.3169652,35.3276374 23.526227,35.4030724 C24.5466543,35.7377405 25.5508302,36.1943419 26.5776777,36.4878998 C26.244825,37.1771923 25.9097654,37.8998119 25.4491084,38.5144676 C24.2368745,40.1325287 22.4785134,41.1505023 20.4789896,41.436876 C20.3592776,41.4533732 20.2391644,41.4669436 20.11865,41.477587 C19.9982692,41.4882303 19.877621,41.4958803 19.7567052,41.5005368 C19.6359232,41.5053263 19.5150744,41.5070558 19.3941586,41.5057254 C19.2732429,41.504528 19.152394,41.5004037 19.031612,41.4933525 C18.9109638,41.4861682 18.7905162,41.476057 18.6702692,41.4630188 C18.550156,41.4499807 18.4303772,41.4340156 18.3109327,41.4151236 C18.1914883,41.3962316 18.0725789,41.3744126 17.9542045,41.3496667 C17.8359639,41.3249209 17.7183252,41.2973146 17.6012884,41.2668479 C17.4843853,41.2363812 17.3682848,41.2030541 17.2529868,41.1668665 C17.1375551,41.130679 17.0231934,41.0916976 16.9099017,41.0499223 C16.7964763,41.008147 16.6841879,40.9636443 16.5730363,40.9164143 C16.461751,40.8690512 16.3518033,40.8190273 16.2431932,40.7663425 C16.1344492,40.7136577 16.0271097,40.6583786 15.9211747,40.6005052 C15.8151059,40.5426318 15.7106422,40.482164 15.6077836,40.419102 C15.5047912,40.3560399 15.4034038,40.2905165 15.3036216,40.2225319 C15.2039731,40.1544142 15.1059966,40.0839683 15.009692,40.0111941 C13.4549749,38.8459426 12.3707459,37.0013768 12.1026981,35.0837708 C11.8330453,33.1537918 12.4215064,31.1723255 13.6014381,29.6316949 C14.8546015,27.9958726 16.6330261,27.0439546 18.67368,26.773546 Z M18.8038975,9.03544229 C20.0221505,8.85970664 21.507448,9.121075 22.6358166,9.58352359 C24.9828395,10.5453999 26.3150529,12.2214143 27.2626498,14.497177 C25.7354197,14.9779854 24.2292562,15.5418522 22.7222901,16.0830286 C22.5710117,15.7791532 22.396259,15.4737013 22.1996372,15.1965674 C21.7225282,14.5238387 21.0518069,14.022136 20.2203774,13.8834393 C19.3303626,13.7350239 18.4082462,13.8805855 17.6677041,14.4114844 C16.9406046,14.9327244 16.4891768,15.7035386 16.3515415,16.5806602 C16.3357583,16.6842869 16.3250578,16.7884258 16.31944,16.893077 C16.3138222,16.9977414 16.313421,17.1024258 16.3182362,17.2071301 C16.3229177,17.3118344 16.3327488,17.4160598 16.3477295,17.5198062 C16.3627102,17.6235394 16.3827737,17.7263013 16.4079198,17.828092 C16.433066,17.9298827 16.4630943,18.0302033 16.4980048,18.1290538 C16.5330489,18.2279042 16.5728414,18.3248256 16.6173823,18.4198178 C16.6619232,18.5148101 16.7110118,18.6074076 16.7646481,18.6976103 C16.8182844,18.787813 16.8762009,18.8752218 16.9383976,18.9598368 C18.128361,20.559139 19.7944303,20.1687927 21.5126645,20.4208414 C21.7349676,20.4519733 21.9563343,20.48856 22.1767648,20.5306014 C22.3970615,20.5726428 22.6162882,20.6200724 22.8344448,20.6728902 C23.0524677,20.725708 23.2690861,20.783781 23.4843001,20.8471092 C23.6995141,20.9104373 23.9130561,20.9790206 24.1249262,21.0528592 C24.3367963,21.1266977 24.54666,21.2056583 24.7545174,21.2897411 C24.9623748,21.3738238 25.1680921,21.4629622 25.3716693,21.5571562 C25.5751127,21.6513502 25.7761485,21.7504002 25.9747767,21.8543063 C26.1734049,21.9583454 26.3692911,22.0671741 26.5624353,22.1807923 C26.7557132,22.2944104 26.9459816,22.4126851 27.1332405,22.5356162 C27.3206332,22.6584143 27.5048826,22.7858024 27.6859887,22.9177804 C27.8670948,23.0497584 28.0447901,23.1860603 28.2190747,23.3266861 C28.3933592,23.4673119 28.5640992,23.6121285 28.7312946,23.7611359 C28.8983563,23.9100103 29.0616729,24.0629425 29.2212442,24.2199325 C29.3808155,24.3769225 29.5364411,24.5377042 29.6881208,24.7022776 C29.8398005,24.866984 29.9872669,25.0352161 30.1305199,25.2069737 C30.273773,25.3787314 30.4127459,25.5539482 30.5474385,25.7326241 C32.686604,28.603146 33.7341169,32.3307933 33.1934069,35.8876143 C32.6350409,39.5613794 30.7175766,42.8483904 27.6883963,45.0567605 C27.509029,45.1878073 27.3265185,45.3143971 27.1408646,45.43653 C26.9553446,45.5587959 26.7668819,45.6764718 26.5754765,45.7895579 C26.3842049,45.9026439 26.1902582,46.0110069 25.9936363,46.1146469 C25.7970145,46.2184199 25.597985,46.3173369 25.3965479,46.4113978 C25.1949771,46.5054588 24.9912662,46.5945972 24.7854151,46.678813 C24.5796978,46.7630288 24.3719742,46.842189 24.1622442,46.9162936 C23.9525143,46.9903982 23.7411123,47.0594472 23.5280385,47.1234405 C23.3149646,47.1874339 23.1004194,47.2461721 22.8844028,47.2996551 C22.6685201,47.3532712 22.4514335,47.4015656 22.2331431,47.4445383 C22.0148527,47.487644 21.7956261,47.5253615 21.5754631,47.5576908 C21.3553001,47.5901531 21.1344684,47.6172938 20.9129678,47.6391127 C20.6914673,47.6607986 20.4695655,47.6771628 20.2472624,47.6882053 C20.0249594,47.6992479 19.8025225,47.7049022 19.5799519,47.7051682 C19.3573814,47.7054343 19.1349445,47.7002457 18.9126415,47.6896023 C18.6903384,47.6790919 18.4684366,47.6632599 18.2469361,47.6421062 C18.0254355,47.6208194 17.8045369,47.5942109 17.5842402,47.5622808 C13.6618349,46.953612 10.5935308,44.9919024 8.25954922,41.8188422 C7.86643927,41.2760293 7.52335421,40.7035481 7.23029402,40.1013984 C5.57024383,36.6788837 5.37823657,32.8654241 6.63220245,29.2818616 C7.73930385,29.5919834 8.83617289,30.0759249 9.92561845,30.4590869 C10.3509637,30.6087596 10.7821273,30.7947528 11.2305455,30.8580144 C10.6882303,32.252764 10.5469836,33.6754525 10.7125071,35.1635977 C10.960692,37.392922 12.2858832,39.5787414 14.0338113,40.9649098 C14.1469692,41.053516 14.2622003,41.1393283 14.3795046,41.2223467 C14.496809,41.3053652 14.6160528,41.3855232 14.737236,41.4628208 C14.858553,41.5399854 14.9816089,41.614223 15.1064036,41.6855337 C15.2311983,41.7569775 15.3577318,41.8252947 15.4860041,41.8904855 C15.6141427,41.9556762 15.7438195,42.0177405 15.8750345,42.0766782 C16.0062495,42.135616 16.1388689,42.1913608 16.2728928,42.2439125 C16.4067829,42.2964642 16.5418768,42.3457564 16.6781746,42.3917891 C16.8146061,42.4378217 16.9520407,42.4805283 17.0904786,42.5199089 C17.2287826,42.5592894 17.368023,42.5952774 17.5081997,42.6278727 C17.6485101,42.6606012 17.7894224,42.6898705 17.9309367,42.7156807 C18.0725846,42.7414909 18.2147676,42.7639085 18.3574857,42.7829336 C18.5002037,42.8019587 18.6432562,42.8175246 18.786643,42.8296315 C18.9301635,42.8416053 19.0738848,42.8501865 19.2178066,42.8553752 C19.3617284,42.8605638 19.5056503,42.8622268 19.6495721,42.8603643 C19.793494,42.8585017 19.9373489,42.8532465 20.081137,42.8445987 C20.2247914,42.8358179 20.3681782,42.823578 20.5112975,42.807879 C20.6561556,42.7928453 20.8004787,42.7742858 20.9442668,42.7522008 C21.0881887,42.7299827 21.2315086,42.7043056 21.3742267,42.6751693 C21.5168109,42.646033 21.6585927,42.6134376 21.7995719,42.5773832 C21.9405511,42.5413287 22.080594,42.5018151 22.2197006,42.4588424 C22.3588072,42.4158697 22.49671,42.369571 22.633409,42.3199462 C22.7702418,42.2701884 22.905737,42.217171 23.0398946,42.1608941 C23.1740522,42.1046171 23.3066717,42.0450142 23.4377529,41.9820851 C23.5689679,41.9192891 23.6985778,41.8533001 23.8265827,41.7841181 C23.9544537,41.7149361 24.080586,41.6426941 24.2049794,41.5673921 C24.3292391,41.4920901 24.4516261,41.4137282 24.5721406,41.3323062 C24.6926551,41.2510174 24.8110295,41.1668016 24.9272637,41.0796588 C25.0436318,40.9925161 25.157726,40.9025794 25.2695463,40.8098489 C25.3813666,40.7172514 25.4908462,40.6218601 25.597985,40.5236748 C25.7051239,40.4256226 25.8097882,40.324976 25.9119781,40.2217352 C26.0141679,40.1186273 26.1137495,40.0129917 26.2107229,39.9048283 C26.3075625,39.7967979 26.401727,39.6864392 26.4932163,39.5737524 C27.9514282,37.7401626 28.6897633,35.4182408 28.4112826,33.0827487 C28.3420636,32.5018193 28.2549882,31.8877623 28.0788311,31.3281861 C27.1647402,28.4215432 24.6810852,26.079266 21.6986527,25.3857827 C18.7643725,24.7034749 17.1982193,25.4751871 14.489653,23.3330721 C14.3863931,23.2499207 14.2852064,23.1643079 14.1860929,23.0762339 C14.0868457,22.9881598 13.9898724,22.8977575 13.8951729,22.805027 C13.8004733,22.7122965 13.7080477,22.6173708 13.6178959,22.5202498 C13.5278779,22.4231289 13.4402006,22.3238793 13.354864,22.222501 C13.2696612,22.1211228 13.1869329,22.0177489 13.1066791,21.9123793 C13.0264253,21.8068767 12.9487797,21.6995781 12.8737424,21.5904833 C12.7987051,21.4813886 12.7264098,21.3705643 12.6568565,21.2580105 C12.5871694,21.1453236 12.5202912,21.0311067 12.4562219,20.9153599 C12.3921526,20.79948 12.3309591,20.6821366 12.2726413,20.5633298 C12.2143235,20.444656 12.1588815,20.3245853 12.1063153,20.2031176 C12.0538828,20.0816499 12.0043929,19.9589849 11.9578457,19.8351225 C11.9112985,19.7113931 11.8678277,19.5865328 11.8274333,19.4605417 C11.7869051,19.3346836 11.7495202,19.2078943 11.7152786,19.0801736 C11.6810369,18.9524529 11.6498717,18.8240005 11.6217829,18.6948164 C11.5938278,18.5654992 11.569016,18.4356499 11.5473474,18.3052684 C11.5256789,18.1748869 11.5071537,18.0440264 11.4917717,17.912687 C11.4782623,17.7818132 11.4678962,17.6506867 11.4606733,17.5193073 C11.4534505,17.3879413 11.4495047,17.2564755 11.4488359,17.1249099 C11.4480334,16.993331 11.450441,16.8618187 11.4560587,16.7303728 C11.4618103,16.598927 11.4707051,16.467694 11.4827431,16.3366739 C11.4947812,16.2056537 11.5100294,16.0750062 11.5284878,15.9447311 C11.5469462,15.8144427 11.5685478,15.6846798 11.5932928,15.5554425 C11.6181714,15.4262051 11.6461265,15.2976397 11.677158,15.169746 C11.7081895,15.0418524 11.7423642,14.9147837 11.7796822,14.7885398 C11.8168665,14.6623092 11.8571272,14.5370431 11.9004642,14.4127417 C11.9439351,14.2884535 11.9903485,14.1652829 12.0397046,14.0432298 C12.0890607,13.9211768 12.1414263,13.800381 12.1968015,13.6808424 C12.2520428,13.5613171 12.31016,13.4431955 12.3711529,13.3264774 C12.4322795,13.2097594 12.4961482,13.0945846 12.5627589,12.9809531 C12.6295033,12.8673216 12.6989228,12.7553665 12.7710175,12.6450877 C12.8431122,12.5347956 12.917882,12.4263128 12.9953269,12.3196395 C13.0727719,12.2129794 13.1527582,12.1082418 13.2352858,12.0054267 C14.6463486,10.2544762 16.5780579,9.2798278 18.8038975,9.03544229 Z" id="Combined-Shape" fill="#170404" fill-rule="nonzero"></path>
    </g>
</svg>