<?xml version="1.0" encoding="UTF-8"?>
<svg width="59px" height="60px" viewBox="0 0 59 60" version="1.1" xmlns="http://www.w3.org/2000/svg" xmlns:xlink="http://www.w3.org/1999/xlink">
    <!-- Generator: Sketch 51.3 (57544) - http://www.bohemiancoding.com/sketch -->
    <title>espress-logo-mark-60</title>
    <desc>Created with Sketch.</desc>
    <defs></defs>
    <g id="Branding" stroke="none" stroke-width="1" fill="none" fill-rule="evenodd">
        <g id="Artboard-2" transform="translate(-19.000000, -18.000000)">
            <g id="Top-left">
                <g id="espress-logo-mark-60" transform="translate(19.000000, 18.000000)">
                    <path d="M17.8359549,9.74393044 C21.2090715,7.52360014 19.9780035,1.49312585 23.4469823,0.56361579 C23.1608746,3.03462487 26.04573,6.7139531 29.4610316,6.60724689 L36.7444437,28.0588572 L41.1795522,50.2519144 C37.8064356,52.4722447 39.0219965,58.5068742 35.5530177,59.4363842 C35.8391254,56.9653751 32.9059251,53.2723424 29.4906235,53.3790486 L22.2555563,31.9411428 L17.8359549,9.74393044 Z" id="Combined-Shape" fill="#F62A2D" opacity="0.6"></path>
                    <path d="M9.27060585,18.2897517 C11.0816454,14.680331 7.0002721,10.073321 9.5397408,7.53385233 C10.5274688,9.81686281 14.865491,11.5608268 17.7698758,9.76076575 L34.8033009,24.6966991 L49.7407462,41.6988963 C47.9297066,45.308317 51.9997279,49.926679 49.4602592,52.4661477 C48.4725312,50.1831372 44.0857889,48.4514771 41.181404,50.2515382 L24.1966991,35.3033009 L9.27060585,18.2897517 Z" id="Combined-Shape" fill="#F62A2D" opacity="0.3"></path>
                    <path d="M6.12570663,29.9733246 C5.88940248,25.9419548 0.0513245736,23.9928538 0.980834632,20.523875 C2.97773742,22.0071561 7.60655683,21.3484621 9.22179734,18.3373711 L31.4411428,22.7555563 L52.8784485,30.0111683 C53.1147526,34.0425381 58.9486754,36.0071462 58.0191654,39.476125 C56.0222626,37.9928439 51.3574023,38.6865535 49.7421617,41.6976445 L27.5588572,37.2444437 L6.12570663,29.9733246 Z" id="Combined-Shape" fill="#F62A2D" opacity="0.4"></path>
                    <path d="M9.24393044,41.6640451 C7.02360014,38.2909285 0.993125849,39.5219965 0.0636157903,36.0530177 C2.53462487,36.3391254 6.2139531,33.45427 6.10724689,30.0389684 L27.5588572,22.7555563 L49.7519144,18.3204478 C51.9722447,21.6935644 58.0068742,20.4780035 58.9363842,23.9469823 C56.4653751,23.6608746 52.7723424,26.5940749 52.8790486,30.0093765 L31.4411428,37.2444437 L9.24393044,41.6640451 Z" id="Combined-Shape" fill="#F62A2D" opacity="0.6"></path>
                    <path d="M17.7897517,50.2293942 C14.180331,48.4183546 9.57332103,52.4997279 7.03385233,49.9602592 C9.31686281,48.9725312 11.0608268,44.634509 9.26076575,41.7301242 L24.1966991,24.6966991 L41.1988963,9.75925383 C44.808317,11.5702934 49.426679,7.5002721 51.9661477,10.0397408 C49.6831372,11.0274688 47.9514771,15.4142111 49.7515382,18.318596 L34.8033009,35.3033009 L17.7897517,50.2293942 Z" id="Combined-Shape" fill="#F62A2D" opacity="0.8"></path>
                    <path d="M29.4733246,53.3742934 C25.4419548,53.6105975 23.4928538,59.4486754 20.023875,58.5191654 C21.5071561,56.5222626 20.8484621,51.8934432 17.8373711,50.2782027 L22.2555563,28.0588572 L29.5111683,6.6215515 C33.5425381,6.38524736 35.5071462,0.551324574 38.976125,1.48083463 C37.4928439,3.47773742 38.1865535,8.14259775 41.1976445,9.75783826 L36.7444437,31.9411428 L29.4733246,53.3742934 Z" id="Combined-Shape" fill="#F62A2D" opacity="0.9"></path>
                    <path d="M41,26.2407407 C41,34.9443393 33.9443393,42 25.2407407,42 C24.1829811,42 21.8039432,41.6972277 20.0168621,39.8962446 C18.2297811,38.0952614 18,35.8170189 18,34.7592593 C18,26.0556607 25.0556607,19 33.7592593,19 C34.8170189,19 36.9403165,19.0498037 38.9701583,21.0906901 C41,23.1315764 41,25.1829811 41,26.2407407 Z M22.5570481,39.0152841 C23.229877,39.2057454 26.5214273,30.9167802 30.7151617,32.1039235 C34.908896,33.2910669 37.3356807,22.224577 36.4884146,21.9847368 C35.8155857,21.7942754 32.613517,30.0294229 28.3515584,28.8229669 C24.0895997,27.616511 21.7097821,38.7754438 22.5570481,39.0152841 Z" id="Combined-Shape" fill="#FFFFFF"></path>
                </g>
            </g>
        </g>
    </g>
</svg>