<?xml version="1.0" encoding="UTF-8"?>
<svg width="287px" height="40px" viewBox="0 0 287 40" version="1.1" xmlns="http://www.w3.org/2000/svg" xmlns:xlink="http://www.w3.org/1999/xlink">
    <!-- Generator: Sketch 51.3 (57544) - http://www.bohemiancoding.com/sketch -->
    <title>SCG Hz Copy</title>
    <desc>Created with Sketch.</desc>
    <defs></defs>
    <g id="Visual-Identity" stroke="none" stroke-width="1" fill="none" fill-rule="evenodd">
        <g id="EO:-Product-1440" transform="translate(-576.000000, -25.000000)">
            <g id="Header">
                <g id="SCG-Hz-Copy" transform="translate(576.000000, 25.000000)">
                    <g id="espress-logo-mark-60" transform="translate(128.924303, 0.000000)" fill="#F62A2D">
                        <g id="Group">
                            <path d="M12.0240481,6.23739287 C14.3174925,4.72883102 13.4804666,0.631538203 15.8390894,0 C15.6445595,1.67888084 17.606026,4.17873151 19.9281527,4.10623197 L24.8802793,18.6811269 L27.8957916,33.759784 C25.6023472,35.2683459 26.4288295,39.3684618 24.0702067,40 C24.2647366,38.3211192 22.2703995,35.8119572 19.9482728,35.8844567 L15.0290168,21.3188731 L12.0240481,6.23739287 Z" id="Combined-Shape" opacity="0.6"></path>
                            <path d="M6.25237326,12.0403876 C7.4830769,9.58701605 4.70955326,6.45556977 6.43526566,4.72945892 C7.10648262,6.28125168 10.0544137,7.46664736 12.0281072,6.24312176 L23.6032815,16.3952755 L33.7541191,27.9518963 C32.5234155,30.4052678 35.2892248,33.5444302 33.5635124,35.2705411 C32.8922954,33.7187483 29.9112563,32.5417158 27.9375628,33.7652414 L16.3954966,23.6047245 L6.25237326,12.0403876 Z" id="Combined-Shape" opacity="0.3"></path>
                            <path d="M4.04351506,19.9299003 C3.8830124,17.1908541 -0.0823306819,15.8665703 0.549011746,13.5096313 C1.90534936,14.5174216 5.04933909,14.0698831 6.14644381,12.0240481 L21.2382821,15.0259095 L35.7989429,19.9556125 C35.9594455,22.6946587 39.9219664,24.0294786 39.2906239,26.3864176 C37.9342863,25.3786273 34.7658169,25.8499566 33.6687121,27.8957916 L18.6013535,24.8701394 L4.04351506,19.9299003 Z" id="Combined-Shape" opacity="0.4"></path>
                            <path d="M6.23739287,27.8957916 C4.72883102,25.6023472 0.631538203,26.4393731 0,24.0807503 C1.67888084,24.2752802 4.17873151,22.3138137 4.10623197,19.991687 L18.6811269,15.0395604 L33.759784,12.0240481 C35.2683459,14.3174925 39.3684618,13.4910102 40,15.849633 C38.3211192,15.6551031 35.8119572,17.6494402 35.8844567,19.9715669 L21.3188731,24.8908229 L6.23739287,27.8957916 Z" id="Combined-Shape" opacity="0.6"></path>
                            <path d="M12.0403876,33.7476267 C9.58701605,32.5169231 6.45556977,35.2904467 4.72945892,33.5647343 C6.28125168,32.8935174 7.46664736,29.9455863 6.24312176,27.9718928 L16.3952755,16.3967185 L27.9518963,6.24588087 C30.4052678,7.47658451 33.5444302,4.71077521 35.2705411,6.43648761 C33.7187483,7.10770457 32.5417158,10.0887437 33.7652414,12.0624372 L23.6047245,23.6045034 L12.0403876,33.7476267 Z" id="Combined-Shape" opacity="0.8"></path>
                            <path d="M19.9299003,35.8763246 C17.1908541,36.0368273 15.8665703,40.0021704 13.5096313,39.3708279 C14.5174216,38.0144903 14.0698831,34.8705006 12.0240481,33.7733959 L15.0259095,18.6815575 L19.9556125,4.12089681 C22.6946587,3.96039415 24.0294786,-0.00212668762 26.3864176,0.629215741 C25.3786273,1.98555335 25.8499566,5.15402283 27.8957916,6.25112754 L24.8701394,21.3184861 L19.9299003,35.8763246 Z" id="Combined-Shape" opacity="0.9"></path>
                        </g>
                    </g>
                    <g id="SPECIALTY" transform="translate(0.000000, 11.952191)" fill="#F9F6F7">
                        <path d="M7.13928287,15.9378486 C5.9894232,15.9378486 4.97421423,15.8104926 4.0936255,15.5557769 C3.21303677,15.3010611 2.4416235,14.9408257 1.77936255,14.4750598 C1.1171016,14.0092938 0.523986684,13.4634825 0,12.8376096 L2.72908367,9.78103586 C3.45684295,10.7125677 4.21733999,11.3275151 5.01059761,11.6258964 C5.80385523,11.9242777 6.5497973,12.0734661 7.24844622,12.0734661 C7.52499474,12.0734661 7.77242919,12.0479949 7.99075697,11.9970518 C8.20908476,11.9461086 8.37646688,11.8624176 8.49290837,11.7459761 C8.60934985,11.6295346 8.66756972,11.46943 8.66756972,11.2656574 C8.66756972,11.07644 8.60571111,10.9163353 8.48199203,10.7853386 C8.35827295,10.654342 8.19452957,10.541541 7.99075697,10.4469323 C7.78698437,10.3523236 7.56502112,10.2722712 7.32486056,10.2067729 C7.08469999,10.1412746 6.85182052,10.0866934 6.62621514,10.0430279 C6.40060976,9.99936233 6.20047896,9.95569743 6.02581673,9.91203187 C5.15250559,9.70825927 4.38836981,9.46082483 3.73338645,9.16972112 C3.0784031,8.8786174 2.53259182,8.52929819 2.09593625,8.12175299 C1.65928069,7.71420779 1.33543266,7.24844884 1.12438247,6.72446215 C0.913332278,6.20047547 0.807808765,5.61099929 0.807808765,4.95601594 C0.807808765,4.21370147 0.978829631,3.53689549 1.32087649,2.92557769 C1.66292336,2.31425989 2.12140483,1.79028107 2.69633466,1.3536255 C3.27126449,0.916969928 3.92623802,0.58220568 4.6612749,0.349322709 C5.39631178,0.116439739 6.15680882,0 6.94278884,0 C8.09264851,0 9.05327636,0.105523513 9.8247012,0.316573705 C10.596126,0.527623897 11.2438221,0.829639469 11.7678088,1.22262948 C12.2917954,1.61561949 12.7429994,2.07410097 13.1214343,2.59808765 L10.3705179,5.23984064 C10.0503038,4.93418174 9.7155396,4.68310855 9.36621514,4.48661355 C9.01689068,4.29011854 8.65665524,4.14456887 8.28549801,4.04996016 C7.91434077,3.95535145 7.54682785,3.90804781 7.18294821,3.90804781 C6.84817894,3.90804781 6.56435707,3.933519 6.3314741,3.98446215 C6.09859113,4.0354053 5.91665404,4.11545762 5.78565737,4.22462151 C5.6546607,4.33378541 5.58916335,4.48297382 5.58916335,4.67219124 C5.58916335,4.86140865 5.67285441,5.01787455 5.84023904,5.14159363 C6.00762368,5.2653127 6.21867071,5.37083622 6.47338645,5.45816733 C6.7281022,5.54549844 6.98281413,5.61463454 7.23752988,5.66557769 C7.49224563,5.71652084 7.7069314,5.756547 7.88159363,5.78565737 C8.68212884,5.93120923 9.41715469,6.13134003 10.0866932,6.38605578 C10.7562318,6.64077153 11.3420692,6.96098081 11.8442231,7.34669323 C12.346377,7.73240565 12.7320836,8.21271957 13.0013546,8.7876494 C13.2706255,9.36257924 13.405259,10.043024 13.405259,10.829004 C13.405259,11.9497533 13.1250758,12.8885487 12.5647012,13.6454183 C12.0043265,14.402288 11.251107,14.9735704 10.3050199,15.3592829 C9.35893285,15.7449953 8.30369772,15.9378486 7.13928287,15.9378486 Z" id="Path"></path>
                        <path d="M15.1475697,15.7195219 L15.1475697,0.436653386 L22.0248606,0.436653386 C23.0728339,0.436653386 24.0043518,0.66225538 24.8194422,1.11346614 C25.6345326,1.56467689 26.2749512,2.183263 26.7407171,2.96924303 C27.2064831,3.75522305 27.4393625,4.65763103 27.4393625,5.67649402 C27.4393625,6.73902258 27.2064831,7.68509545 26.7407171,8.51474104 C26.2749512,9.34438662 25.6345326,9.99572141 24.8194422,10.4687649 C24.0043518,10.9418085 23.0728339,11.1783267 22.0248606,11.1783267 L19.8634263,11.1783267 L19.8634263,15.7195219 L15.1475697,15.7195219 Z M19.7760956,7.16111554 L21.1515538,7.16111554 C21.4281023,7.16111554 21.6755368,7.10653441 21.8938645,6.99737052 C22.1121923,6.88820663 22.2832132,6.73174073 22.4069323,6.52796813 C22.5306513,6.32419553 22.59251,6.0694836 22.59251,5.7638247 C22.59251,5.4581658 22.5306513,5.21073136 22.4069323,5.02151394 C22.2832132,4.83229653 22.1121923,4.6903856 21.8938645,4.59577689 C21.6755368,4.50116819 21.4281023,4.45386454 21.1515538,4.45386454 L19.7760956,4.45386454 L19.7760956,7.16111554 Z" id="Combined-Shape"></path>
                        <polygon id="Combined-Shape" points="33.4631076 6.20047809 39.5544223 6.20047809 39.5544223 9.78103586 33.4631076 9.78103586 33.4631076 11.8988048 40.7552191 11.8988048 40.7552191 15.7195219 28.943745 15.7195219 28.943745 0.436653386 40.3622311 0.436653386 40.3622311 4.25737052 33.4631076 4.25737052"></polygon>
                        <path d="M50.0822311,15.9378486 C48.8595955,15.9378486 47.7352243,15.7413565 46.7090837,15.3483665 C45.6829431,14.9553765 44.7950901,14.4059265 44.045498,13.7 C43.2959059,12.9940735 42.717346,12.1535241 42.3098008,11.1783267 C41.9022556,10.2031293 41.6984861,9.13333916 41.6984861,7.9689243 C41.6984861,6.80450945 41.9058943,5.73471935 42.3207171,4.75952191 C42.7355399,3.78432447 43.3213774,2.94377511 44.078247,2.23784861 C44.8351167,1.5319221 45.7338859,0.982472084 46.7745817,0.589482072 C47.8152774,0.196492059 48.9614811,0 50.2132271,0 C50.9264312,0 51.6287084,0.0836910622 52.3200797,0.251075697 C53.011451,0.418460332 53.6664245,0.673172261 54.2850199,1.01521912 C54.9036153,1.35726599 55.4676203,1.79027626 55.9770518,2.31426295 L53.1606375,5.61099602 C52.9568649,5.36355786 52.7130691,5.13795587 52.429243,4.93418327 C52.1454169,4.73041067 51.8179301,4.56666729 51.4467729,4.44294821 C51.0756157,4.31922913 50.6498829,4.25737052 50.1695618,4.25737052 C49.6746854,4.25737052 49.2052877,4.34106158 48.7613546,4.50844622 C48.3174214,4.67583085 47.9317148,4.91962655 47.6042231,5.23984064 C47.2767314,5.56005472 47.0183808,5.95303884 46.8291633,6.41880478 C46.6399459,6.88457072 46.5453386,7.42310451 46.5453386,8.03442231 C46.5453386,8.58751937 46.6399459,9.08966574 46.8291633,9.54087649 C47.0183808,9.99208725 47.2876477,10.3777939 47.6369721,10.698008 C47.9862966,11.0182221 48.4083906,11.2656565 48.9032669,11.4403187 C49.3981432,11.614981 49.951232,11.7023108 50.5625498,11.7023108 C50.9992054,11.7023108 51.4140219,11.6368134 51.807012,11.5058167 C52.200002,11.3748201 52.5565987,11.2037992 52.8768127,10.992749 C53.1970268,10.7816988 53.4735712,10.5451806 53.7064542,10.2831873 L55.9552191,13.8200797 C55.5767843,14.2276249 55.0746379,14.5914991 54.4487649,14.9117131 C53.822892,15.2319272 53.131531,15.4830004 52.3746614,15.6649402 C51.6177917,15.8468801 50.8536559,15.9378486 50.0822311,15.9378486 Z" id="Path"></path>
                        <polygon id="Path" points="57.3765737 15.7195219 57.3765737 11.8988048 60.061992 11.8988048 60.061992 4.25737052 57.3765737 4.25737052 57.3765737 0.436653386 67.4632669 0.436653386 67.4632669 4.25737052 64.7778486 4.25737052 64.7778486 11.8988048 67.4632669 11.8988048 67.4632669 15.7195219"></polygon>
                        <path d="M74.9359508,10.2395219 L77.6052444,10.2395219 L77.1657371,9.0387251 C77.00563,8.58751434 76.8673578,8.20180771 76.7509163,7.88159363 C76.6344748,7.56137954 76.5325901,7.25936397 76.445259,6.97553785 C76.3940053,6.80896343 76.3427521,6.63487054 76.2914988,6.45325733 C76.2384811,6.63487054 76.1842101,6.80896343 76.1286853,6.97553785 C76.0340766,7.25936397 75.9249143,7.56137954 75.8011952,7.88159363 C75.6774761,8.20180771 75.5355652,8.58751434 75.3754582,9.0387251 L74.9359508,10.2395219 Z M73.7612676,13.4489243 L72.9301992,15.7195219 L68.3453386,15.7195219 L74.4803187,0.436653386 L78.1918725,0.436653386 L84.2831873,15.7195219 L79.610996,15.7195219 L78.7799276,13.4489243 L73.7612676,13.4489243 Z" id="Combined-Shape"></path>
                        <polygon id="Path" points="85.4337849 15.7195219 85.4337849 0.436653386 90.1496414 0.436653386 90.1496414 11.7023108 96.6994422 11.7023108 96.6994422 15.7195219"></polygon>
                        <polygon id="Combined-Shape" points="95.1603187 0.436653386 112.326534 0.436653386 115.478772 4.96069828 118.352351 0.436653386 123.461195 0.436653386 117.872032 8.91320739 117.872032 15.7195219 113.11251 15.7195219 113.11251 8.95370884 109.837291 4.45386454 104.592032 4.45386454 104.592032 15.7195219 99.8761753 15.7195219 99.8761753 4.45386454 95.1603187 4.45386454"></polygon>
                    </g>
                    <g id="COFFEE" transform="translate(126.454183, 11.872510)" fill="#F9F6F7">
                        <path d="M8.37457509,16.0159363 C7.15327679,16.0159363 6.03013537,15.8194638 5.00511715,15.4265131 C3.98009892,15.0335624 3.09321703,14.4841673 2.34444485,13.7783114 C1.59567267,13.0724555 1.01774554,12.2319902 0.610646101,11.2568902 C0.203546665,10.2817903 0,9.21210719 0,8.04780876 C0,6.88351034 0.207181427,5.81382721 0.621550495,4.83872728 C1.03591956,3.86362735 1.62111623,3.02316204 2.37715803,2.31730612 C3.13319984,1.6114502 4.03098603,1.06205512 5.07054351,0.669104404 C6.110101,0.276153687 7.25505099,0.0796812749 8.50542783,0.0796812749 C9.21785184,0.0796812749 9.91936088,0.163363969 10.609976,0.330731867 C11.3005911,0.498099765 11.9548482,0.752786225 12.572767,1.09479889 C13.1906858,1.43681155 13.7540739,1.86977853 14.2629482,2.39371282 L11.4496144,5.69011625 C11.2460647,5.44270283 11.0025356,5.2171234 10.7190199,5.01337117 C10.4355043,4.80961895 10.1083757,4.64589194 9.73762443,4.52218523 C9.36687315,4.39847852 8.94160602,4.3366261 8.46181025,4.3366261 C7.96747522,4.3366261 7.49859094,4.42030879 7.05514334,4.58767669 C6.61169574,4.75504459 6.22641098,4.99881591 5.89927751,5.31899798 C5.57214403,5.63918005 5.31407594,6.03212487 5.12506549,6.49784424 C4.93605503,6.96356361 4.84155123,7.50204355 4.84155123,8.11330022 C4.84155123,8.66634197 4.93605503,9.16843814 5.12506549,9.61960378 C5.31407594,10.0707694 5.58304832,10.4564375 5.93199069,10.7766195 C6.28093307,11.0968016 6.70256544,11.3442113 7.19690047,11.5188561 C7.6912355,11.6935008 8.24371931,11.7808219 8.85436846,11.7808219 C9.29054643,11.7808219 9.70490928,11.7153311 10.0974694,11.5843475 C10.4900296,11.453364 10.8462363,11.2823602 11.1661001,11.0713311 C11.485964,10.860302 11.7622059,10.6238075 11.9948341,10.3618403 L14.2411394,13.8983791 C13.8631185,14.3058835 13.3615214,14.6697213 12.736333,14.9899034 C12.1111445,15.3100855 11.4205398,15.5611335 10.664498,15.7430552 C9.90845616,15.9249768 9.14515617,16.0159363 8.37457509,16.0159363 Z" id="Path"></path>
                        <path d="M30.7081094,5.08803353 C30.7081094,11.1326075 25.8080141,16.0327029 19.7634401,16.0327029 C19.0288352,16.0327029 17.3766139,15.8224301 16.1355016,14.5716629 C14.8943892,13.3208957 14.7348083,11.7386759 14.7348083,11.004071 C14.7348083,4.95949704 19.6349036,0.0594016719 25.6794776,0.0594016719 C26.4140825,0.0594016719 27.8886944,0.09398989 29.2984019,1.51136784 C30.7081094,2.92874579 30.7081094,4.35342861 30.7081094,5.08803353 Z M17.8996388,13.9598434 C18.3669126,14.0921172 20.6528659,8.33550249 23.5653781,9.15996328 C26.4778904,9.98442408 28.1632713,2.29884255 27.5748524,2.13227558 C27.1075785,2.0000018 24.8837695,7.71924055 21.9238761,6.8813673 C18.9639826,6.04349405 17.3112198,13.7932765 17.8996388,13.9598434 Z" id="Combined-Shape"></path>
                        <polygon id="Combined-Shape" points="36.9131823 4.49948776 36.9131823 6.6850313 42.3783989 6.6850313 42.3783989 10.4004553 36.9131823 10.4004553 36.9131823 15.7768924 32.1912351 15.7768924 32.1912351 0.478087649 43.187251 0.478087649 43.187251 4.49948776"></polygon>
                        <polygon id="Combined-Shape" points="49.9012301 4.49948776 49.9012301 6.6850313 55.3664467 6.6850313 55.3664467 10.4004553 49.9012301 10.4004553 49.9012301 15.7768924 45.1792829 15.7768924 45.1792829 0.478087649 56.1752988 0.478087649 56.1752988 4.49948776"></polygon>
                        <polygon id="Combined-Shape" points="62.5998778 6.2479226 68.6815768 6.2479226 68.6815768 9.832214 62.5998778 9.832214 62.5998778 11.9521912 69.8804781 11.9521912 69.8804781 15.7768924 58.0876494 15.7768924 58.0876494 0.478087649 69.4881104 0.478087649 69.4881104 4.30278884 62.5998778 4.30278884"></polygon>
                        <polygon id="Combined-Shape" points="76.2253758 6.2479226 82.3070748 6.2479226 82.3070748 9.832214 76.2253758 9.832214 76.2253758 11.9521912 83.5059761 11.9521912 83.5059761 15.7768924 71.7131474 15.7768924 71.7131474 0.478087649 83.1136084 0.478087649 83.1136084 4.30278884 76.2253758 4.30278884"></polygon>
                    </g>
                    <g id="GUIDE" transform="translate(215.458167, 11.952191)" fill="#F9F6F7">
                        <path d="M8.90326693,9.91203187 L8.90326693,6.59346614 L15.4575299,6.59346614 C15.4720851,6.75357318 15.4902788,7.01556259 15.5121116,7.37944223 C15.5339443,7.74332187 15.5484993,8.10355731 15.5557769,8.46015936 C15.5630545,8.81676141 15.5666932,9.06055711 15.5666932,9.19155378 C15.5666932,10.1667512 15.3847561,11.0691592 15.0208765,11.8988048 C14.6569969,12.7284504 14.1439343,13.4416438 13.4816733,14.0384064 C12.8194124,14.635169 12.0370829,15.1009279 11.1346614,15.4356972 C10.2322398,15.7704665 9.24250207,15.9378486 8.16541833,15.9378486 C6.85545162,15.9378486 5.69469297,15.7413565 4.68310757,15.3483665 C3.67152217,14.9553765 2.81641784,14.4022878 2.11776892,13.6890837 C1.41912001,12.9758796 0.891502447,12.1316915 0.534900398,11.156494 C0.17829835,10.1812966 0,9.11878397 0,7.9689243 C0,6.80450945 0.200130801,5.73835809 0.600398406,4.77043825 C1.00066601,3.8025184 1.57922596,2.96196904 2.33609562,2.24876494 C3.09296527,1.53556084 3.9917345,0.982472084 5.03243028,0.589482072 C6.07312605,0.196492059 7.2338847,0 8.51474104,0 C9.40260736,0 10.2286018,0.109162255 10.992749,0.32749004 C11.7568963,0.545817825 12.4482572,0.840555913 13.0668526,1.21171315 C13.685448,1.58287038 14.220343,2.00132569 14.6715538,2.46709163 L11.8769721,5.43633466 C11.5858684,5.15978613 11.2729366,4.91599043 10.9381673,4.70494024 C10.6033981,4.49389005 10.2322464,4.32650792 9.8247012,4.20278884 C9.417156,4.07906977 8.95867453,4.01721116 8.44924303,4.01721116 C7.92525634,4.01721116 7.44494242,4.11545718 7.00828685,4.31195219 C6.57163128,4.5084472 6.19320213,4.78135284 5.87298805,5.13067729 C5.55277396,5.48000175 5.30170078,5.89845706 5.11976096,6.38605578 C4.93782114,6.8736545 4.84685259,7.40127206 4.84685259,7.9689243 C4.84685259,8.53657654 4.94145988,9.06419411 5.13067729,9.55179283 C5.3198947,10.0393915 5.58188412,10.4578469 5.91665339,10.8071713 C6.25142266,11.1564958 6.65168426,11.4294014 7.1174502,11.6258964 C7.58321614,11.8223914 8.09264,11.9206375 8.64573705,11.9206375 C9.02417188,11.9206375 9.36985235,11.8587788 9.68278884,11.7350598 C9.99572534,11.6113407 10.2649922,11.4439586 10.4905976,11.2329084 C10.716203,11.0218582 10.8945013,10.7671462 11.025498,10.4687649 C11.1030521,10.292114 11.1576486,10.106537 11.189288,9.91203187 L8.90326693,9.91203187 Z" id="Path"></path>
                        <path d="M23.8031873,15.8505179 C22.4786654,15.8505179 21.3033517,15.5921673 20.2772112,15.0754582 C19.2510706,14.5587491 18.4469086,13.8491944 17.8647012,12.9467729 C17.2824938,12.0443514 16.9913944,11.0109487 16.9913944,9.84653386 L16.9913944,0.436653386 L21.7509163,0.436653386 L21.7509163,9.65003984 C21.7509163,10.0721402 21.8382461,10.4469306 22.0129084,10.7744223 C22.1875706,11.101914 22.4313663,11.3602647 22.7443028,11.5494821 C23.0572393,11.7386995 23.4101972,11.8333068 23.8031873,11.8333068 C24.2252876,11.8333068 24.5964393,11.7386995 24.9166534,11.5494821 C25.2368675,11.3602647 25.4915794,11.101914 25.6807968,10.7744223 C25.8700142,10.4469306 25.9646215,10.0721402 25.9646215,9.65003984 L25.9646215,0.436653386 L30.6149801,0.436653386 L30.6149801,9.84653386 C30.6149801,11.0109487 30.3238807,12.0443514 29.7416733,12.9467729 C29.1594659,13.8491944 28.3553039,14.5587491 27.3291633,15.0754582 C26.3030228,15.5921673 25.1277091,15.8505179 23.8031873,15.8505179 Z" id="Path"></path>
                        <polygon id="Path" points="32.3257371 15.7195219 32.3257371 11.8988048 35.0111554 11.8988048 35.0111554 4.25737052 32.3257371 4.25737052 32.3257371 0.436653386 42.4124303 0.436653386 42.4124303 4.25737052 39.727012 4.25737052 39.727012 11.8988048 42.4124303 11.8988048 42.4124303 15.7195219"></polygon>
                        <path d="M44.4419124,15.7195219 L44.4419124,0.436653386 L50.449243,0.436653386 C51.5991027,0.436653386 52.6543378,0.625867962 53.6149801,1.00430279 C54.5756223,1.38273762 55.412533,1.91035518 56.1257371,2.58717131 C56.8389411,3.26398745 57.3883912,4.06814939 57.7741036,4.99968127 C58.159816,5.93121316 58.3526693,6.95733835 58.3526693,8.07808765 C58.3526693,9.18428176 58.159816,10.2067682 57.7741036,11.1455777 C57.3883912,12.0843872 56.8389411,12.8921879 56.1257371,13.569004 C55.412533,14.2458201 54.5756223,14.7734377 53.6149801,15.1518725 C52.6543378,15.5303073 51.5991027,15.7195219 50.449243,15.7195219 L44.4419124,15.7195219 Z M50.3400797,11.7023108 C50.8204008,11.7023108 51.2570498,11.6113422 51.6500398,11.4294024 C52.0430299,11.2474626 52.3850716,10.9963894 52.6761753,10.6761753 C52.967279,10.3559612 53.192881,9.97389332 53.352988,9.52996016 C53.5130951,9.086027 53.5931474,8.60207433 53.5931474,8.07808765 C53.5931474,7.55410097 53.5130951,7.0701483 53.352988,6.62621514 C53.192881,6.18228198 52.967279,5.80021408 52.6761753,5.48 C52.3850716,5.15978592 52.0430299,4.90871273 51.6500398,4.72677291 C51.2570498,4.54483309 50.8204008,4.45386454 50.3400797,4.45386454 L49.1577689,4.45386454 L49.1577689,11.7023108 L50.3400797,11.7023108 Z" id="Combined-Shape"></path>
                        <polygon id="Combined-Shape" points="64.1373705 6.20047809 70.2286853 6.20047809 70.2286853 9.78103586 64.1373705 9.78103586 64.1373705 11.8988048 71.4294821 11.8988048 71.4294821 15.7195219 59.618008 15.7195219 59.618008 0.436653386 71.036494 0.436653386 71.036494 4.25737052 64.1373705 4.25737052"></polygon>
                    </g>
                </g>
            </g>
        </g>
    </g>
</svg>