<svg viewBox="0 0 502 502" version="1.1" xmlns="http://www.w3.org/2000/svg">
    <path d="M150.901804,78.2792805 C179.68453,59.3468294 169.179856,7.92580444 198.780572,0 C196.339221,21.0699546 220.955626,52.4430804 250.098316,51.5332113 L312.247505,234.448142 L350.092184,423.685289 C321.309458,442.61774 331.68181,494.074196 302.081094,502 C304.522445,480.930045 279.493514,449.440063 250.350824,450.349932 L188.614161,267.551858 L150.901804,78.2792805 Z" id="Combined-Shape" fill="#F96C6E" opacity="0.6"></path>
    <path d="M78.4672844,151.106865 C93.912615,120.317051 59.1048935,81.0174006 80.7625841,59.3547094 C89.1863569,78.8297086 126.182892,93.7064243 150.952745,78.3511781 L296.221182,205.760707 L423.614195,350.796298 C408.168864,381.586111 442.879771,420.982599 421.22208,442.645291 C412.798308,423.170291 375.386266,408.398533 350.616413,423.75378 L205.763482,296.239293 L78.4672844,151.106865 Z" id="Combined-Shape" fill="#F96C6E" opacity="0.3"></path>
    <path d="M50.746114,250.120249 C48.7318057,215.745219 -1.03325006,199.125458 6.89009742,169.545872 C23.9121344,182.193641 63.3692056,176.577033 77.1378698,150.901804 L266.540441,188.575164 L449.276733,250.442937 C451.291041,284.817967 501.020678,301.569956 493.09733,331.149541 C476.075293,318.501773 436.311002,324.416955 422.542337,350.092184 L233.446987,312.12025 L50.746114,250.120249 Z" id="Combined-Shape" fill="#F96C6E" opacity="0.4"></path>
    <path d="M78.2792805,350.092184 C59.3468294,321.309458 7.92580444,331.814132 0,302.213416 C21.0699546,304.654767 52.4430804,280.038362 51.5332113,250.895672 L234.448142,188.746483 L423.685289,150.901804 C442.61774,179.68453 494.074196,169.312178 502,198.912894 C480.930045,196.471543 449.440063,221.500474 450.349932,250.643164 L267.551858,312.379827 L78.2792805,350.092184 Z" id="Combined-Shape" fill="#F96C6E" opacity="0.6"></path>
    <path d="M151.106865,423.532716 C120.317051,408.087385 81.0174006,442.895107 59.3547094,421.237416 C78.8297086,412.813643 93.7064243,375.817108 78.3511781,351.047255 L205.760707,205.778818 L350.796298,78.385805 C381.586111,93.8311356 420.982599,59.1202289 442.645291,80.7779195 C423.170291,89.2016924 408.398533,126.613734 423.75378,151.383587 L296.239293,296.236518 L151.106865,423.532716 Z" id="Combined-Shape" fill="#F96C6E" opacity="0.8"></path>
    <path d="M250.120249,450.247874 C215.745219,452.262182 199.125458,502.027238 169.545872,494.103891 C182.193641,477.081854 176.577033,437.624782 150.901804,423.856118 L188.575164,234.453547 L250.442937,51.7172549 C284.817967,49.7029466 301.569956,-0.0266899296 331.149541,7.89665754 C318.501773,24.9186946 324.416955,64.6829865 350.092184,78.4516506 L312.12025,267.547001 L250.120249,450.247874 Z" id="Combined-Shape" fill="#F96C6E" opacity="0.9"></path>
    <path d="M354,212.962963 C354,288.646429 292.646429,350 216.962963,350 C207.765053,350 187.077767,347.367197 171.537932,331.706475 C155.998096,316.045752 154,296.234947 154,287.037037 C154,211.353571 215.353571,150 291.037037,150 C300.234947,150 318.698405,150.433075 336.349202,168.179913 C354,185.926752 354,203.765053 354,212.962963 Z M193.626505,324.045948 C199.477192,325.702134 228.099368,253.624175 264.566623,263.947161 C301.033878,274.270147 322.136354,178.0398 314.768823,175.954233 C308.918136,174.298047 281.074061,245.908025 244.013551,235.417104 C206.953041,224.926182 186.258974,321.960381 193.626505,324.045948 Z" id="Combined-Shape" fill="#1D0207"></path>
</svg>