<svg viewBox="0 0 48 48" xmlns="http://www.w3.org/2000/svg" stroke="none" stroke-width="1" fill="currentColor" fill-rule="evenodd">
    <g id="icon-varietals">
        <path d="M23.265573,3.05 C23.4545111,3.08184071 23.5914137,3.10810619 23.767219,3.20214159 C24.6882456,3.69449558 26.0401748,6.83309735 26.2812721,7.95086726 C26.9462102,11.0349558 25.6694845,13.3308319 24.035573,15.7978053 C23.9932013,17.1016637 24.0252898,18.4160531 24.0233075,19.7210265 C25.5716084,16.719823 27.4927058,14.4761062 30.7378562,13.2858584 C31.9230243,12.851115 36.0589712,11.9900531 37.1414314,12.5989912 C37.3200863,12.699469 37.3104226,12.7241239 37.3522987,12.9545664 C37.5558562,14.0734513 35.5655022,17.4085487 34.8160686,18.3083894 C32.0347766,21.6479469 28.6582842,22.1737522 24.5424081,22.5201593 C24.7523258,23.3320354 25.273396,25.4034169 25.7040335,25.6602788 C26.739414,24.8591814 27.1475376,23.7946549 28.3225465,23.0905664 C29.8525111,22.1738761 31.5316438,22.4765487 33.146104,22.9122832 L33.258104,22.834354 L33.1742279,22.9277699 C34.5229358,22.401469 36.3986881,21.9269558 37.8517146,22.0492389 C38.2906704,22.0861593 38.4805996,22.1862655 38.7608473,22.5201593 C38.7732367,22.6947257 38.7848827,22.7404425 38.7488297,22.9366903 C38.637573,23.540177 38.3085111,24.2421593 38.0920686,24.8240885 C36.8714668,28.1060354 35.0067412,30.1123717 32.2925996,32.2257522 C32.8689535,32.9604425 33.3941394,33.6084071 33.5840686,34.5519823 C33.7697854,35.4744956 33.6118208,36.4287257 33.0727589,37.2082655 C32.5272544,37.9972212 31.6897323,38.4826372 30.747396,38.6226372 C27.952104,39.0380531 27.2423164,37.3563186 25.3837854,36.0206195 C24.2129889,36.3976283 25.5769358,42.9309204 25.273396,44.297469 C25.2193783,44.5403009 25.0472898,44.7472035 24.902458,44.9417168 C24.6875022,44.877292 24.4337677,44.8252566 24.2738208,44.6542832 C23.4392721,43.758531 23.6367589,39.9977345 23.6309358,38.5793982 C22.8900509,39.3269735 22.0825111,40.026354 21.0875199,40.4085664 C19.832104,40.890885 18.7824757,40.6828673 17.5914845,40.1469027 C16.9754845,39.3443186 16.6397323,38.640354 16.594635,37.6126549 C16.5137323,35.7672566 17.4581748,34.2892035 18.6407412,32.9838584 C18.1267058,32.7847611 17.6089535,32.5866549 17.1095376,32.3526195 C13.0445819,30.4470088 10.6414137,27.0846549 9.32566151,22.8549204 C9.20920133,22.4803894 9.1758739,22.3363009 9.35911284,21.988531 C9.52934293,21.8762832 9.68928983,21.7807611 9.89334293,21.7417345 C12.3136084,21.2794867 16.8198739,22.9858761 18.9043872,24.2717699 C19.2623164,24.0314159 19.6487412,23.8036991 20.0506527,23.6462301 C21.3162279,23.1502832 22.4405642,23.5427788 23.6113606,24.0561947 L22.6238031,21.5296283 C18.7918916,21.2491327 15.1985996,20.2730973 12.5939801,17.2628496 C11.4529181,15.9442478 9.51546682,12.1808496 9.7337677,10.5299646 C9.76672346,10.2806903 9.82049337,10.2980354 9.99815708,10.1471327 C11.4130243,9.79911504 13.6847412,10.4382832 15.052281,10.9233274 C18.9187589,12.2948319 20.9113429,14.8425841 22.6068297,18.4387257 L22.6197146,15.7590265 C21.4002279,13.9678938 20.2877854,12.3617345 20.2122102,10.0973274 C20.1212721,7.37302655 21.4356615,4.96961062 23.265573,3.05 Z M35.3045199,13.7062634 C35.0122575,13.6603549 34.7777639,13.658893 34.471073,13.6986071 C31.2404174,14.0973497 28.5581911,15.3128472 26.8807271,17.4182204 C25.9154552,18.6298182 25.2171793,19.7700824 24.8824492,20.8311578 L24.9203415,21.2142628 L24.9470534,21.3885544 L25.1233184,21.3838948 C25.5268425,21.3732274 25.922273,21.3320084 26.4278019,21.2548051 C30.1078454,20.5985974 32.7349606,19.1270876 34.6219827,16.4314933 C35.3120619,15.4458778 35.5816803,14.8979175 35.6032419,14.1510815 L35.5794746,14.0505922 L35.4496338,13.8091232 L35.3045199,13.7062634 Z M11.6367378,11.5367971 L11.3765575,11.4945576 L11.405934,11.7565022 C11.6446847,13.8853924 13.0239453,16.1105803 14.8852176,17.577997 C16.6656654,18.9816882 18.9685928,19.8024533 21.5142432,20.039598 L21.8451304,20.0704224 L21.7174413,19.763613 C20.0968452,15.8696727 18.3464848,13.7622361 15.1929151,12.4625225 C14.1606798,12.037109 13.1061481,11.7753513 11.6367378,11.5367971 Z M11.280543,23.2047952 L10.9766753,23.1886431 L11.0823822,23.4739895 C12.4264,27.1020462 14.6127464,29.7806236 17.6657382,31.1475477 C18.7332004,31.6255918 19.4468311,31.8656193 20.0215444,31.8277803 L20.3867358,31.8037362 L20.1692677,31.5093716 C18.5597441,29.3307216 17.9822058,27.885669 18.2790509,26.0002199 C18.2956444,25.8966559 18.314377,25.7929618 18.3351641,25.6896709 L18.3632641,25.5500419 L18.2405009,25.4778266 C15.8807902,24.0897293 13.6538121,23.3309467 11.280543,23.2047952 Z M23.497531,5.05778072 L23.321881,4.89390311 L23.1925523,5.09634546 C21.7943164,7.28504951 21.2638754,9.00896148 21.6621462,10.9686116 C21.8888503,12.0836258 22.4191572,13.1549793 23.214989,14.20896 L23.3805477,14.428222 L23.5383306,14.2032996 C24.8660189,12.3106549 25.3852521,10.4575004 25.0561253,8.38460223 C24.8532632,7.10711557 24.2718655,5.7802177 23.497531,5.05778072 Z M35.8815949,23.5616659 C35.0490073,23.7547455 34.2219881,23.9842301 33.3629145,24.2585389 L33.202756,24.3096787 L33.2256057,24.4762437 C33.463216,26.2083261 33.2336153,27.4438251 32.3462719,28.6278647 C32.2740794,28.7241897 32.1706486,28.839112 32.0218968,28.9907439 C31.9341766,29.0801624 31.5978177,29.4127116 31.5822715,29.4282442 C31.4110299,29.5993359 31.2809838,29.7350633 31.1638722,29.8675433 C30.7916538,30.2886075 30.5947625,30.6297388 30.5979282,30.9527212 L30.6000081,31.1649355 L30.8117263,31.1502839 C30.8491865,31.1477383 30.8491865,31.1477383 30.8858082,31.1452989 C31.0039887,31.1373512 31.068221,31.1312728 31.1416402,31.119183 C31.2382403,31.1032761 31.3285497,31.078774 31.4236053,31.041306 C33.897008,29.3649171 36.3320834,26.6268381 36.8799771,24.5121076 C36.9803909,24.1246618 36.9620114,24.0131143 36.7604364,23.6527819 L36.6042863,23.5512725 C36.329585,23.5258997 36.1280511,23.5261332 35.8815949,23.5616659 Z M21.2568043,24.5866241 L20.9756404,24.5512754 L21.0365273,24.8280343 C21.4866968,26.8742591 23.2912878,29.7417492 24.8587036,30.6113648 C24.9061167,30.6376957 24.94344,30.6538007 25.0235037,30.6851902 C25.0580833,30.698758 25.0580833,30.698758 25.0882475,30.7113589 L25.3174426,30.8100457 L25.3638534,30.564861 C25.6460867,29.0738422 25.4506007,27.9496725 24.651527,26.7669048 C23.9008683,25.6560368 22.6929619,24.7882405 21.5175108,24.6193083 C21.4684919,24.6122752 21.4290504,24.6073355 21.3413153,24.5968838 C21.2986408,24.591795 21.2986408,24.591795 21.2568043,24.5866241 Z M23.4061066,33.0723961 L23.239459,32.9319487 L23.1138068,33.1100173 C23.0076019,33.2605261 21.8005108,34.8973571 21.3785219,35.4938667 C21.2196803,35.7184 21.070178,35.9334636 20.9289123,36.1410412 C20.0040871,37.499991 19.4581018,38.4952632 19.3647273,39.1172645 L19.4518828,39.3135732 C19.4732615,39.3277679 19.6164895,39.4328578 19.6633398,39.4504967 C19.7217462,39.4724864 20.0065028,39.4762282 19.9149311,39.4726821 C21.335154,39.1702538 22.243715,38.4747417 23.065952,37.1698052 C23.7818035,36.0339667 24.1134075,34.9279092 23.897604,33.9068893 C23.8246625,33.5620751 23.6684259,33.2934738 23.4061066,33.0723961 Z M27.331324,31.0643034 C27.2720837,31.0874542 27.2755599,31.0862402 27.1041859,31.1448832 C26.7544685,31.2645539 26.5819052,31.3620845 26.4234192,31.5860194 L26.3208485,31.730948 L26.4526027,31.8499686 C26.7555199,32.1236099 27.0342123,32.3063298 27.6802107,32.6847503 C28.1117893,32.9375622 28.3026061,33.0558057 28.5195279,33.2139744 C29.266623,33.7586904 29.8907652,34.3066182 31.0254372,35.3735617 C31.2288918,35.5650121 31.3393085,35.6689041 31.4323515,35.7562314 C31.5524933,35.8689029 31.5524933,35.8689029 31.6728038,35.9812084 L32.0078259,36.1173569 L32.2233645,36.06243 C32.3372724,35.9355622 32.395861,35.8532733 32.431029,35.7586105 C32.4720102,35.6483 32.4725522,35.614729 32.4585443,35.3417359 C32.4577358,35.3258158 32.4577358,35.3258158 32.4569432,35.3093246 C32.4067959,34.2520127 31.6899852,33.1208448 30.6799987,32.2400462 C29.683832,31.3712737 28.6869408,30.9378883 27.6039329,31.0296162 C27.5296729,31.0364501 27.5296729,31.0364501 27.4554623,31.0442369 C27.41957,31.0479988 27.41957,31.0479988 27.3843223,31.0515665 L27.331324,31.0643034 Z M19.8700671,25.3362325 L19.6831811,25.2222762 L19.5865077,25.4186602 C19.1190613,26.3682391 19.0910584,27.3396771 19.4593904,28.4227987 C19.9261479,29.795648 20.9462388,31.0588918 22.120647,31.5700049 C22.6004322,31.7787069 23.101489,31.8363271 23.8558231,31.8222306 L24.0353249,31.7024129 L24.1309709,31.4837403 L24.0967164,31.2701622 C23.9655061,31.1236574 23.8224471,30.9714274 23.656738,30.800944 C23.5043078,30.6441221 23.5554713,30.6955128 23.0637853,30.2033343 C22.3191774,29.4579805 21.9448756,29.0474416 21.6106653,28.5699369 C21.4450584,28.3333304 21.3073838,28.0260928 21.0832764,27.4338281 C21.0332588,27.3012312 21.0332588,27.3012312 20.9826804,27.1670762 C20.5764061,26.0924939 20.3153269,25.6077357 19.8700671,25.3362325 Z M25.8540837,32.6909034 L25.525984,32.5633373 L25.5843793,32.9104864 C25.8516948,34.4996261 26.5664601,35.7604445 27.770304,36.6344296 C28.6804352,37.2953403 29.7927147,37.5873598 30.8249902,37.3939419 C30.8608396,37.3872201 30.8891611,37.3806905 30.9489943,37.3659697 C30.9773764,37.3589864 30.9773764,37.3589864 31.0039167,37.3527332 L31.2453652,37.2970951 L31.1400361,37.0728212 C30.4064997,35.5109247 27.8015372,33.4480788 25.8540837,32.6909034 Z M29.8689075,23.7889396 C28.2777137,24.5448063 27.2205972,25.5773548 26.725897,27.0312573 C26.4716863,27.7781342 26.4966153,28.3405742 26.8537462,28.9686938 C26.9405452,29.1213098 26.9373094,29.1161072 26.9843758,29.15732 C27.01814,29.186885 27.1557324,29.2638729 27.156425,29.2642924 L27.3078647,29.3560109 L27.4172744,29.2168141 C28.7348361,27.5405433 30.3937592,24.9762608 30.4886483,24.1167972 L30.5036188,23.9812008 L30.3828379,23.9177778 C30.3054201,23.8771251 30.1950399,23.8100995 30.1836407,23.8046722 C30.1228886,23.7757476 30.2425309,23.7853231 29.9658529,23.7699028 L29.8689075,23.7889396 Z M21.4460406,32.7510543 L21.3314032,32.7627478 C19.6530794,33.4602448 18.8691207,34.2363714 18.1952548,35.8883357 C17.8015553,36.8537734 17.6271227,37.7083544 17.8745903,38.2862039 C17.8933272,38.3299933 17.9107809,38.3646975 17.9301505,38.3952177 C17.9670859,38.453416 18.009062,38.493514 18.0660269,38.5292226 C18.079729,38.5378118 18.1726209,38.5896397 18.2077044,38.6117334 L18.3260254,38.6421504 L18.4186979,38.6366991 L18.5832142,38.5315544 C18.7846077,38.1559573 18.9912229,37.8329953 20.1755935,36.0147139 C20.194411,35.985823 20.194411,35.985823 20.2132269,35.9569269 C21.3450499,34.2186277 21.8213558,33.440862 21.9008363,33.1245231 L21.9401192,32.9681739 L21.7956766,32.896588 C21.7086507,32.8534579 21.5679612,32.7751927 21.6120803,32.7984519 C21.5647257,32.773487 21.5758106,32.7760883 21.4460406,32.7510543 Z M31.6864946,24.1653462 L31.5711265,24.3510982 C31.4719251,24.5108206 30.4222411,26.1044092 30.0750515,26.6452538 C29.9882258,26.7807081 29.9882258,26.7807081 29.9016785,26.9166064 C28.9903169,28.3501941 28.4909443,29.247103 28.461183,29.6141368 L28.5508349,29.797535 C28.5709076,29.8107013 28.592725,29.8259805 28.6449684,29.8628581 C28.69275,29.8959857 28.7150565,29.9108354 28.746321,29.9297028 C28.7893773,29.9556861 28.8297943,29.9762434 28.8705449,29.991619 L29.0240142,29.9865209 C30.5430907,29.29497 31.6779067,28.1285793 32.1904814,26.6452321 C32.4576351,25.8718643 32.4430137,25.2470653 32.1254535,24.5274006 L32.0626957,24.4483069 L31.6864946,24.1653462 Z" ></path>
    </g>
</svg>