<svg viewBox="0 0 48 48" xmlns="http://www.w3.org/2000/svg" stroke="none" stroke-width="1" fill="currentColor" fill-rule="evenodd">
    <g id="icon-countries" >
        <path d="M23.6124348,4.00376852 C23.9396672,3.99741376 24.2668623,3.9990959 24.5940199,4.00881494 C24.9211776,4.01853397 25.2479054,4.0362899 25.5742033,4.06208273 C25.9004638,4.08783817 26.225902,4.12157443 26.5505177,4.16329152 C26.8751709,4.20504599 27.1985904,4.25472521 27.5207765,4.31232918 C27.8429625,4.36997054 28.1635411,4.43546188 28.4825123,4.50880321 C28.8014836,4.58218192 29.118455,4.66331718 29.4334264,4.75220896 C29.7484353,4.84113813 30.0610518,4.93773039 30.3712759,5.04198573 C30.6815374,5.14624107 30.9890514,5.25806604 31.2938179,5.37746064 C31.5985471,5.49681787 31.9001923,5.62357651 32.1987535,5.75773657 C32.4972774,5.89189664 32.7923249,6.03330859 33.0838959,6.18197245 C33.3755044,6.3306363 33.6632813,6.48636514 33.9472266,6.64915898 C34.2311719,6.81195281 34.5109493,6.98160604 34.7865587,7.15811866 C35.0621681,7.33463129 35.3332918,7.51779772 35.5999298,7.70761794 C35.8665678,7.89747555 36.1283649,8.09374399 36.3853213,8.29642324 C36.642315,8.4991025 36.8941875,8.7079683 37.1409388,8.92302064 C37.3876528,9.13807297 37.6289652,9.35905018 37.8648761,9.58595227 C38.1007496,9.81285435 38.3309225,10.0454009 38.5553948,10.2835921 C38.7798672,10.5217832 38.9983585,10.7653385 39.210869,11.0142579 C39.4233794,11.2631773 39.6296472,11.5171619 39.8296725,11.7762115 C40.029735,12.0352612 40.2233121,12.2990769 40.4104035,12.5676587 C40.5974949,12.8362031 40.7778764,13.1091772 40.9515481,13.3865809 C41.1252572,13.6639845 41.2920321,13.9454814 41.4518728,14.2310715 C41.6117509,14.516699 41.7645267,14.8060646 41.9102001,15.0991682 C42.0558361,15.3922345 42.1942202,15.6887212 42.3253524,15.9886282 C42.4564472,16.2885351 42.5801032,16.59147 42.6963205,16.8974327 C42.8125751,17.2033954 42.9212414,17.5120121 43.0223193,17.8232829 C43.1233973,18.1345911 43.2167748,18.4481981 43.3024518,18.7641042 C43.3881662,19.0799728 43.4660493,19.3977665 43.5361012,19.7174854 C43.6061904,20.0371669 43.6683922,20.3583997 43.7227066,20.6811838 C43.7770211,21.0039305 43.8233921,21.3278173 43.8618197,21.6528443 C43.9002098,21.9779086 43.9306192,22.3037019 43.9530478,22.6302241 C43.9754763,22.9567463 43.9898679,23.2836236 43.9962227,23.610856 C44.0025775,23.9380884 44.000914,24.2652835 43.9912323,24.5924412 C43.9815507,24.9195988 43.9638321,25.2463266 43.9380767,25.5726245 C43.9123586,25.898885 43.8786411,26.2243419 43.836924,26.548995 C43.7952069,26.8736108 43.7455464,27.1970117 43.6879424,27.5191977 C43.6303758,27.8413837 43.5649218,28.161981 43.4915805,28.4809896 C43.4182392,28.7999609 43.3371226,29.1169322 43.2482308,29.4319037 C43.159339,29.7469126 43.0627655,30.0595478 42.9585101,30.3698093 C42.8542922,30.6800708 42.7425046,30.9875848 42.6231474,31.2923513 C42.5038275,31.5971178 42.3770876,31.898763 42.2429275,32.1972869 C42.1088048,32.4958482 41.9674116,32.790933 41.8187477,33.0825414 C41.6701212,33.3741125 41.5144298,33.6618894 41.3516733,33.9458721 C41.1889169,34.2298174 41.0192823,34.5096135 40.8427697,34.7852603 C40.6662944,35.0608697 40.4831467,35.3319934 40.2933265,35.5986314 C40.1035063,35.8652693 39.9072565,36.1271039 39.7045773,36.384135 C39.5019354,36.6411287 39.2930883,36.8930012 39.0780359,37.1397526 C38.863021,37.3865039 38.6420812,37.627835 38.4152164,37.8637459 C38.1883144,38.0996194 37.9557865,38.329811 37.7176327,38.5543207 C37.4794416,38.778793 37.2358863,38.9973031 36.9869669,39.2098509 C36.7380848,39.4223613 36.484119,39.6286479 36.2250693,39.8287105 C35.9660197,40.028773 35.7022226,40.2223687 35.4336782,40.4094975 C35.1651712,40.5966264 34.8922158,40.7770453 34.6148121,40.9507543 C34.3374085,41.1244634 34.0559116,41.291257 33.7703215,41.4511351 C33.4847314,41.6110132 33.1954032,41.7638077 32.9023369,41.9095184 C32.6092332,42.0551918 32.3127466,42.1935946 32.012877,42.3247268 C31.71297,42.455859 31.4100539,42.5795524 31.1041285,42.695807 C30.7981658,42.8120617 30.4895304,42.9207466 30.1782223,43.021862 C29.8669515,43.1229399 29.5533818,43.2163361 29.2375131,43.3020505 C28.9216071,43.387765 28.6038134,43.4656854 28.2841319,43.535812 C27.964413,43.6059012 27.6431802,43.6681217 27.3204335,43.7224736 C26.9976868,43.7768254 26.6737999,43.8232151 26.348773,43.8616427 C26.0237087,43.9000702 25.6979154,43.930517 25.3713932,43.9529829 C25.044871,43.9754114 24.7179937,43.9898218 24.3907613,43.9962139 C24.0634915,44.002606 23.736259,44.0009613 23.409064,43.9912796 C23.0818689,43.9816354 22.7551225,43.9639542 22.4288246,43.9382361 C22.1024893,43.9125181 21.7769951,43.8788005 21.4523419,43.8370834 C21.1276888,43.7954037 20.8042318,43.7457806 20.481971,43.688214 C20.1597477,43.63061 19.8391316,43.565156 19.520123,43.4918521 C19.2011144,43.4185107 18.8840869,43.3373942 18.5690407,43.2485024 C18.2540318,43.159648 17.9413779,43.0630931 17.6310791,42.9588378 C17.3207802,42.8546198 17.0132288,42.7428322 16.7084249,42.623475 C16.403621,42.5041552 16.1019385,42.3774152 15.8033772,42.2432551 C15.5047785,42.1090951 15.209675,41.9677018 14.9180666,41.8190753 C14.6264207,41.6704115 14.3386065,41.5147013 14.0546238,41.3519449 C13.7706037,41.189151 13.4907702,41.0194978 13.2151234,40.8429852 C12.9394767,40.6665099 12.6683156,40.4833435 12.4016402,40.2934859 C12.1349648,40.1036657 11.8731116,39.9074159 11.6160805,39.7047367 C11.3590494,39.5020574 11.1071395,39.2931916 10.8603508,39.0781393 C10.6135621,38.863087 10.3722123,38.6421097 10.1363014,38.4152077 C9.90035314,38.1883056 9.67014284,37.955759 9.44567052,37.7175679 C9.22116081,37.4793394 9.00261336,37.2357654 8.79002817,36.986846 C8.57748035,36.7379265 8.37117514,36.4839233 8.17111255,36.2248363 C7.97104995,35.9657866 7.77745426,35.7019709 7.59032545,35.4333891 C7.40319665,35.1648073 7.22275903,34.8918145 7.04901259,34.6144109 C6.87530353,34.3369698 6.70850994,34.0554355 6.54863182,33.769808 C6.38871632,33.4841806 6.23592187,33.194815 6.09024849,32.9017113 C5.94453773,32.6085703 5.80611625,32.3120463 5.67498404,32.0121393 C5.54385183,31.7122323 5.42015842,31.4092788 5.30390381,31.1032787 C5.1876492,30.7972786 5.07896422,30.4886245 4.97784888,30.1773163 C4.87677092,29.8659708 4.78337473,29.552345 4.69766032,29.236439 C4.61194591,28.920533 4.53404411,28.6027018 4.46395491,28.2829456 C4.39386572,27.9632267 4.33166389,27.6419752 4.27734944,27.3191911 C4.22303499,26.996407 4.17666398,26.6724641 4.13823641,26.3473624 C4.09980884,26.0222981 4.06938079,25.6964861 4.04695224,25.3699266 C4.0245237,25.043367 4.01013205,24.7164523 4.0037773,24.3891825 C3.99742255,24.0619127 3.999086,23.7346803 4.00876765,23.4074852 C4.01848669,23.0802902 4.03620523,22.7535437 4.0619233,22.4272458 C4.08767874,22.1009105 4.121415,21.7754163 4.16313209,21.4507631 C4.20484918,21.12611 4.25450971,20.8026717 4.31211368,20.4804483 C4.36971765,20.1582249 4.43519031,19.8376089 4.50853164,19.5186003 C4.58187297,19.1995917 4.66300822,18.8825642 4.75193739,18.567518 C4.84082918,18.2525091 4.93742143,17.9398552 5.04171415,17.6295564 C5.14596949,17.3192949 5.25777578,17.0117622 5.377133,16.7069583 C5.49649022,16.4021544 5.62324887,16.1004718 5.75740893,15.8019105 C5.89160637,15.5033493 6.03303702,15.2082644 6.18170087,14.916656 C6.33036473,14.6250102 6.48609357,14.3371959 6.6488874,14.0532132 C6.81168124,13.7692305 6.98133447,13.4894157 7.15784709,13.2137689 C7.3343971,12.9381222 7.51760091,12.6669798 7.70745851,12.4003418 C7.89727874,12.1337038 8.09354717,11.8718693 8.29626381,11.6148382 C8.49898045,11.3578071 8.70786494,11.1059159 8.92291728,10.8591645 C9.13800699,10.6124132 9.3590029,10.3710821 9.58590498,10.1351712 C9.81284444,9.89926031 10.0454284,9.6690687 10.2836569,9.44459638 C10.521848,9.22008667 10.765422,9.00155791 11.0143788,8.7890101 C11.2633356,8.57649966 11.5173576,8.37021315 11.7764446,8.17015055 C12.0355316,7.97008796 12.2993661,7.77651095 12.5679479,7.58941953 C12.8365296,7.40232811 13.1095411,7.22192787 13.3869821,7.04821881 C13.6644232,6.87450975 13.9459575,6.70771616 14.231585,6.54783804 C14.5172124,6.38795991 14.8065967,6.23518416 15.0997377,6.08951078 C15.3928788,5.94387478 15.6894215,5.80549068 15.9893659,5.67435847 C16.2892729,5.54326364 16.5922264,5.41960761 16.8982265,5.30339038 C17.2042265,5.18713577 17.5128993,5.07846949 17.8242449,4.97739153 C18.1355904,4.87631356 18.4492162,4.78293607 18.7651222,4.69725904 C19.0810282,4.61158201 19.3988594,4.53371758 19.7186156,4.46366577 C20.0383719,4.39357658 20.359642,4.33139344 20.6824261,4.27711637 C21.0052102,4.22280192 21.3291531,4.1764496 21.6542549,4.13805941 C21.9793192,4.09966922 22.3051312,4.06927855 22.6316907,4.04688739 C22.9582503,4.02449623 23.285165,4.01012327 23.6124348,4.00376852 Z M23.1517857,5.26199777 C22.080971,5.32360491 21.0314732,5.4438058 19.9825335,5.67271205 C19.8627418,5.69931176 19.7432106,5.72708333 19.6239397,5.75602679 C19.5046689,5.78497024 19.3856957,5.81506696 19.2670201,5.84631696 C19.1483817,5.87756696 19.0300223,5.90997024 18.911942,5.94352679 C18.7938988,5.97704613 18.6761905,6.01171875 18.558817,6.04754464 C18.4414435,6.08337054 18.324442,6.1203311 18.2078125,6.15842634 C18.0911458,6.19655878 17.9748698,6.23578869 17.8589844,6.27611607 C17.743099,6.31648065 17.6276042,6.35796131 17.5125,6.40055804 C17.397433,6.44315476 17.2827753,6.48686756 17.1685268,6.53169643 C17.0542783,6.5765253 16.9404762,6.62245164 16.8271205,6.66947545 C16.7138021,6.71653646 16.6009301,6.76467634 16.4885045,6.81389509 C16.3760789,6.86311384 16.2641555,6.91341146 16.1527344,6.96478795 C16.041276,7.01620164 15.9303385,7.0686756 15.8199219,7.12220982 C15.7095052,7.17578125 15.599628,7.23041295 15.4902902,7.28610491 C15.3809152,7.34175967 15.2720982,7.3984933 15.1638393,7.4563058 C15.0555804,7.5141183 14.9478981,7.57295387 14.8407924,7.6328125 C14.7336868,7.69270833 14.6271577,7.75362723 14.5212054,7.8155692 C14.4152902,7.87754836 14.3099702,7.94053199 14.2052455,8.00452009 C14.100558,8.06850818 13.9964844,8.13351935 13.8930246,8.19955357 C13.7895647,8.2655506 13.6867746,8.33257068 13.584654,8.40061384 C13.4824963,8.46861979 13.3810082,8.53761161 13.2801897,8.60758929 C13.1793713,8.67756696 13.0792597,8.7485119 12.9798549,8.82042411 C12.8804129,8.89237351 12.7816778,8.96527158 12.6836496,9.0391183 C12.5856585,9.11296503 12.4883743,9.18774182 12.3917969,9.26344866 C12.2952195,9.33919271 12.1994048,9.41586682 12.1043527,9.49347098 C12.0092634,9.57103795 11.9149554,9.64953497 11.8214286,9.72896205 C11.7278646,9.80838914 11.6350818,9.88870908 11.5430804,9.96992187 C11.4510789,10.0511719 11.3598772,10.1332961 11.2694754,10.2162946 C11.1791109,10.2992932 11.0895275,10.3831473 11.0007254,10.4678571 C10.9119606,10.5526042 10.8240327,10.6381882 10.736942,10.7246094 C10.649814,10.8110677 10.5635417,10.8983445 10.478125,10.9864397 C10.3927083,11.0745722 10.3081659,11.1635045 10.2244978,11.2532366 C10.1407924,11.343006 10.0579799,11.4335751 9.97606027,11.5249442 C9.87420015,11.6406808 9.77375372,11.7576451 9.67472098,11.8758371 C9.57572545,11.994029 9.4781808,12.1134115 9.38208705,12.2339844 C9.2859933,12.3545945 9.19140625,12.4763393 9.09832589,12.5992187 C9.00520833,12.7221354 8.91361607,12.8461496 8.82354911,12.9712612 C8.73348214,13.09641 8.64495908,13.2226376 8.55797991,13.3499442 C8.47100074,13.4772507 8.38558408,13.6056176 8.30172991,13.7350446 C8.21791295,13.8644345 8.13567708,13.9948289 8.05502232,14.1262277 C7.97440476,14.2576637 7.8953869,14.3900484 7.81796875,14.5233817 C7.7405878,14.656715 7.66482515,14.790997 7.5906808,14.9262277 C7.51657366,15.0614211 7.44414063,15.1975074 7.3733817,15.3344866 C7.30258557,15.4714658 7.23348214,15.609282 7.16607143,15.7479353 C7.09869792,15.8866257 7.03301711,16.0261161 6.96902902,16.1664062 C6.90500372,16.3066592 6.84272693,16.4476935 6.78219866,16.5895089 C6.72167039,16.7313244 6.66289063,16.8738467 6.60585938,17.0170759 C6.54879092,17.1603051 6.49350818,17.3042225 6.44001116,17.4488281 C6.38647693,17.5934338 6.33472842,17.7386719 6.28476563,17.8845424 C6.23480283,18.0304129 6.18662574,18.1768601 6.14023438,18.3238839 C6.09388021,18.4709449 6.04931176,18.6185268 6.00652902,18.7666295 C5.96374628,18.9147693 5.92280506,19.0634115 5.88370536,19.2125558 C5.84456845,19.3617001 5.80727307,19.5112909 5.7718192,19.6613281 C5.73636533,19.8114025 5.70273438,19.9618676 5.67092634,20.1127232 C5.63915551,20.2636161 5.60924479,20.4148624 5.5811942,20.5664621 C5.5531064,20.7180618 5.52687872,20.8699777 5.50251116,21.0222098 C5.4781808,21.1744792 5.45569196,21.3270089 5.43504464,21.4797991 C5.41443452,21.6325893 5.39570313,21.7856213 5.37885045,21.9388951 C5.36196057,22.0921689 5.34696801,22.2456101 5.33387277,22.3992187 C5.32074033,22.5528274 5.30950521,22.7065848 5.30016741,22.8604911 C5.29079241,23.0143973 5.28331473,23.1683966 5.27773438,23.3224888 C5.27219122,23.4765811 5.26850818,23.6307106 5.26668527,23.7848772 C5.26486235,23.9390439 5.26493676,24.0932106 5.26690848,24.2473772 C5.26888021,24.4015439 5.27274926,24.5556734 5.27851563,24.7097656 C5.28424479,24.8638207 5.29187128,25.0178013 5.30139509,25.1717076 C5.30946801,25.324721 5.31945685,25.4776228 5.33136161,25.6304129 C5.34326637,25.7831659 5.35706845,25.9357515 5.37276786,26.0881696 C5.38850446,26.2405878 5.40611979,26.3928013 5.42561384,26.5448103 C5.44510789,26.696782 5.46649926,26.8484933 5.48978795,26.9999442 C5.51307664,27.1513951 5.53824405,27.3025298 5.56529018,27.4533482 C5.59233631,27.6042039 5.62127976,27.7546689 5.65212054,27.9047433 C5.68292411,28.0548549 5.7155878,28.2045573 5.75011161,28.3538504 C5.78467262,28.5031436 5.82107515,28.6519717 5.8593192,28.8003348 C5.89756324,28.9487351 5.93766741,29.0966146 5.9796317,29.2439732 C6.02155878,29.391369 6.06532738,29.5382068 6.1109375,29.6844866 C6.15654762,29.8307664 6.20396205,29.9764695 6.2531808,30.121596 C6.30243676,30.2666853 6.35347842,30.4111607 6.4063058,30.5550223 C6.45913318,30.6988467 6.51376488,30.8419829 6.57020089,30.9844308 C6.6265997,31.1269159 6.68478423,31.2686756 6.74475446,31.4097098 C6.8046875,31.5507068 6.86636905,31.6909598 6.92979911,31.8304687 C6.99326637,31.9699405 7.05844494,32.1086124 7.12533482,32.2464844 C7.1922247,32.3843192 7.26082589,32.521317 7.33113839,32.6574777 C7.4014881,32.7936012 7.4734933,32.9288318 7.54715402,33.0631696 C7.62085193,33.1975446 7.69622396,33.330971 7.77327009,33.4634487 C7.85027902,33.5958891 7.92892485,33.7273624 8.00920759,33.8578683 C8.08952753,33.9883743 8.17144717,34.1178757 8.25496652,34.2463728 C8.33848586,34.3748326 8.42360491,34.5022321 8.51032366,34.6285714 C8.59704241,34.7549107 8.68530506,34.8801525 8.77511161,35.0042969 C8.86495536,35.1284412 8.9563244,35.2514323 9.04921875,35.3732701 C9.1421131,35.4951451 9.23651414,35.6158296 9.33242188,35.7353237 C9.42832961,35.8548549 9.52570685,35.9731585 9.62455357,36.0902344 C9.7234003,36.2073103 9.82369792,36.3231399 9.92544643,36.4377232 C10.0271949,36.5523065 10.1303571,36.6655878 10.234933,36.777567 C10.3395089,36.8895833 10.4454613,37.0002604 10.5527902,37.1095982 C10.660119,37.2189732 10.7688058,37.3269903 10.8788504,37.4336496 C10.9888579,37.5403088 11.100186,37.6455729 11.2128348,37.749442 C11.3254836,37.853311 11.4394159,37.9557664 11.5546317,38.056808 C14.6927455,40.8435826 18.6209263,42.4146205 22.7879464,42.7277344 C22.5073103,42.2077009 21.9645089,41.3261719 21.7844308,40.8036272 C21.3073661,39.2946429 22.1828683,38.9786272 22.0253348,38.0149554 C21.9434152,37.5139509 21.7540737,36.9359375 21.4835938,36.5035156 C21.1855469,36.0269531 20.7945313,35.6314732 20.6756696,35.0623326 C20.5784598,34.5966518 20.6520089,34.0726562 20.6478237,33.5984375 C20.4098214,33.5551339 20.1888393,33.5075335 19.9648996,33.4150112 C19.6521205,33.2857701 19.2618862,32.9845982 18.925,32.968192 C18.5978795,32.9522879 18.2503906,33.128683 17.9367746,33.2106027 C17.7849888,33.250279 17.6261161,33.2712612 17.471317,33.2969308 C16.8982143,33.3919643 16.3299665,33.4260603 15.7503348,33.4397321 C15.4686942,33.4463728 15.1845982,33.4614397 14.9042969,33.4279018 C13.7417969,33.2890067 13.0105469,32.4779018 12.309933,31.6175781 C12.0548549,31.3044085 11.7537946,31.0097656 11.5244978,30.6787388 C11.4030692,30.5034598 11.2758929,30.3103795 11.2327009,30.099721 C11.1172991,29.5364955 11.247433,29.0311384 11.2448661,28.4706473 C11.2422991,27.9178013 11.1211496,27.3584821 11.2277902,26.8083147 C11.3960938,25.9402344 11.878404,25.3247768 12.4866629,24.7097098 C12.7189174,24.4748326 12.9615513,24.2441406 13.1481585,23.9696987 C13.3542411,23.6665737 13.4709263,23.3285714 13.5982701,22.9882812 C13.8520089,22.3106027 14.361942,21.7691406 14.9582031,21.3650112 L14.9914621,21.3429129 C14.621875,21.2626116 14.2493304,21.1631696 14.0285714,20.825279 C13.5660714,20.1174665 13.7671317,19.0407924 13.9426339,18.2699777 C14.0064732,17.9897879 14.1256138,17.6938058 14.3856027,17.5414062 C14.7714844,17.3152344 16.3009487,17.4206473 16.8253906,17.4100446 C16.7896763,17.1393973 16.7349888,16.8916295 16.6353237,16.636942 C16.4816406,16.2444754 16.0651786,15.7688058 16.3669643,15.3617187 C16.7160156,14.8907924 17.5582589,15.0902344 18.0478795,14.8167969 C18.378683,14.6320312 18.6465402,14.3123326 18.9166295,14.0511719 C19.6810268,13.312221 20.6204799,12.6155134 21.7095982,12.4941964 C22.3079241,12.427567 22.9430246,12.6112165 23.3853237,12.0782924 C23.5094308,11.9288504 23.6196429,11.7220982 23.6023438,11.5212612 C23.599721,11.4907924 23.5958705,11.4750558 23.590067,11.4429129 L23.5550781,11.4214286 C23.4072545,11.4906808 23.271596,11.6168527 23.1409598,11.7154018 C22.6620536,12.0765067 22.0494978,12.5128906 21.4179129,12.2824219 C20.9861607,12.1248326 20.7523996,11.6667411 20.5772879,11.2686384 C20.3779018,10.8152902 20.25,9.81473214 20.453404,9.34581473 C20.5260603,9.1781808 20.691183,9.01501116 20.8201451,8.88783482 C21.4113839,8.30457589 22.0783482,7.78013393 22.7003348,7.22834821 C23.4357143,6.57600446 24.1436942,5.88683036 24.9027902,5.26233259 C24.3206473,5.24988839 23.7335938,5.23426339 23.1517857,5.26199777 Z M26.6623326,5.42232143 C25.4258929,6.14748884 24.4120536,7.2280692 23.3419085,8.16847098 C22.7512277,8.6875 21.9870536,9.26584821 21.4563616,9.821875 C21.4805804,10.3140067 21.4875558,10.8348772 21.8239955,11.228683 C22.2323661,10.9828125 23.6490513,9.96668527 24.0734933,10.0575335 C24.2473772,10.0947545 24.3638393,10.2635603 24.4492188,10.4060268 C24.7183594,10.8551339 24.8087054,11.5141183 24.6708705,12.0185268 C24.5133371,12.5949777 24.0920201,13.0738281 23.5749442,13.3592634 C22.7147879,13.8341518 21.9700335,13.4191406 21.1265067,13.8226562 C20.6919085,14.0306362 20.3025112,14.3093192 19.9422433,14.6274554 C19.2498884,15.2388393 18.6705915,15.9951451 17.6732143,16.052846 C17.6383929,16.0547805 17.6035342,16.055878 17.5686384,16.0561384 C17.8348772,16.5738839 18.0743862,17.2503906 17.8837612,17.833817 C17.8011719,18.0866071 17.6233817,18.2837054 17.3827567,18.3960379 C16.8551339,18.6424665 15.6688058,18.5275112 15.0503348,18.5352121 C14.9726563,18.8922991 14.7296875,19.8147879 14.9344308,20.1249442 C14.9711496,20.1805804 14.9978795,20.2035714 15.0630022,20.2219308 C15.2108817,20.2635603 15.4290179,20.2343192 15.5857143,20.2308594 C16.2064174,20.2171317 16.8103795,20.2065848 17.3335379,19.8250558 C17.5899554,19.638058 17.7906808,19.3896763 17.9631696,19.125558 C18.6888393,18.0143415 18.7229911,17.6696429 20.1091518,17.3316964 C20.4789063,17.2415737 20.9157924,17.1257812 21.2976563,17.184096 C21.4805804,17.2119978 21.631808,17.3333705 21.7623884,17.4579241 C22.0045759,17.6889509 22.2023438,17.9789621 22.4070313,18.2429129 C22.7935826,18.7414621 23.2301339,19.2975446 23.7123884,19.7030692 C23.7265625,19.2902902 23.6964286,19.0276228 23.3981585,18.7120536 C22.9771763,18.2666295 22.1564174,17.8457031 22.184375,17.1441406 C22.1918527,16.9560826 22.261942,16.7276228 22.403404,16.5960379 C22.5141741,16.4930246 22.6543527,16.4599888 22.8024554,16.4738281 C22.9941406,16.4917411 23.1767299,16.5790179 23.3382813,16.6799665 C23.659375,16.880692 23.9296317,17.1504464 24.2146763,17.397154 C24.7040179,17.8206473 25.2243304,18.2162946 25.6280134,18.7271205 C25.800558,18.9469494 25.9532924,19.1797619 26.0862165,19.425558 C26.1419643,19.1156808 26.2238839,18.8592076 26.5011161,18.6747768 C26.8050781,18.4724888 27.2396763,18.4260603 27.5961496,18.4082031 C27.8398438,17.7921875 28.7357701,15.7935268 29.2992188,15.5460379 C29.5728795,15.4258371 30.8291295,15.3783482 31.1691964,15.4074219 C31.3393415,15.4219866 31.4986049,15.4560268 31.6577009,15.5203683 C32.312779,15.7853795 33.4794085,16.8051897 33.7473214,17.4541853 C33.8783482,17.7715402 33.9083147,18.1465402 33.7684152,18.4664621 C33.6229911,18.7989397 33.3099888,19.0103237 32.9796317,19.1328683 C32.5265067,19.3009487 32.0595424,19.2973214 31.5834263,19.2805246 C30.750279,19.2000558 30.4928571,19.3887277 29.7099888,19.527567 C29.3513951,19.5911272 28.9985491,19.5893415 28.6364955,19.6027902 C28.6259487,19.9462612 28.5973214,20.2876674 28.8546317,20.5575893 C29.084654,20.7988839 29.4430246,20.8505022 29.7614397,20.8494978 C30.3373884,20.8477679 31.3179688,20.4446429 31.7837612,20.8757254 C31.9311942,21.0122768 31.9868304,21.2170201 31.9892857,21.4123884 C31.997433,22.0556362 31.4425223,23.3694196 31.0454241,23.8594866 C31.4263951,24.2811384 31.7103795,24.796596 32.0328125,25.2638393 C32.7893415,26.3601562 33.9196987,27.681808 34.0602679,29.0477679 C34.5507813,28.8696987 35.0637277,28.7246094 35.543471,28.5217634 C36.3852679,28.1658482 37.571317,27.4517299 38.0338728,26.6340402 C37.0324219,26.3258929 36.4054688,26.2912388 35.866183,25.2783482 C35.7473214,25.0550223 35.6486607,24.8208147 35.5413504,24.5917969 C35.3495536,24.1825335 35.0265625,23.6568638 35.1859933,23.1904018 C35.255692,22.9866071 35.3932478,22.8242746 35.5916295,22.7373884 C35.6082589,22.7300967 35.6250744,22.7232329 35.6420759,22.7167969 C35.6590402,22.7103609 35.6761719,22.7043713 35.693471,22.6988281 C35.7107701,22.6932478 35.7281994,22.6881324 35.7457589,22.6834821 C35.7633185,22.6788318 35.780971,22.674628 35.7987165,22.6708705 C35.8164993,22.6671131 35.8343564,22.6638207 35.8522879,22.6609933 C35.8702567,22.6581659 35.8882626,22.6558036 35.9063058,22.6539062 C35.9243862,22.6519717 35.9424851,22.6505208 35.9606027,22.6495536 C35.9787574,22.6485863 35.9969122,22.6480655 36.015067,22.6479911 C36.0332217,22.6479539 36.0513765,22.6483817 36.0695313,22.6492746 C36.0876488,22.6501674 36.1057478,22.6515067 36.1238281,22.6532924 C36.1419085,22.6551153 36.159933,22.6574033 36.1779018,22.6601562 C36.1958333,22.6629092 36.2136905,22.6661086 36.2314732,22.6697545 C36.2492932,22.6734003 36.2669829,22.6775112 36.2845424,22.6820871 C36.3021391,22.6866629 36.3195871,22.6916667 36.3368862,22.6970982 C36.3542225,22.702567 36.3713914,22.7084821 36.3883929,22.7148437 C36.4054315,22.7211682 36.4222842,22.727939 36.4389509,22.7351562 C36.9944196,22.9803013 37.2113281,23.702567 37.7713728,23.8724888 C38.1055804,23.9738839 38.4978237,23.9446987 38.8438058,23.9425223 C40.0140625,23.9351004 40.7104353,23.7783482 41.713058,24.5071987 C41.8094122,24.5771019 41.9026042,24.6509673 41.9926339,24.7287946 C42.0827009,24.806622 42.1692894,24.8881324 42.2523996,24.9733259 C42.3355097,25.0585193 42.4148438,25.1470982 42.4904018,25.2390625 C42.5659598,25.3310268 42.6374814,25.4260417 42.7049665,25.5241071 C42.7482143,24.7098214 42.7738281,23.8917969 42.733817,23.0766741 C42.5142299,18.6056362 40.8005022,14.5743304 37.8129464,11.2550223 C34.8834821,8.00022321 30.9351563,6.14146205 26.6623326,5.42232143 Z M19.9188616,21.9458705 C19.2810268,22.0421503 18.6482515,22.1646577 18.0205357,22.3133929 C17.4208705,22.4559152 16.4379464,22.7909598 15.8745536,22.7768415 C15.6611607,22.7714844 15.4763393,22.6685826 15.3080357,22.5449777 L15.2889509,22.530692 C15.1412388,22.6645647 14.9706473,22.8021763 14.8545201,22.9646763 C14.6703125,23.2223772 14.6000558,23.5257812 14.4888951,23.8175223 C14.4437686,23.9326637 14.3925967,24.0450707 14.3353795,24.1547433 C14.2781622,24.2643787 14.2152344,24.3706473 14.146596,24.4735491 C13.5732143,25.3320871 12.3626674,26.04375 12.3170759,27.1668527 C12.2986049,27.6223214 12.3871652,28.0791295 12.3813058,28.534933 C12.3770089,28.8693638 12.2994978,29.2037388 12.3149554,29.5375558 C12.3202009,29.6497768 12.3280134,29.8128906 12.371596,29.9164621 C12.4923549,30.2030692 13.3665179,31.168471 13.6319196,31.4519531 C14.1039621,31.9560268 14.5078125,32.2945312 15.2238281,32.3171317 C15.8150112,32.3357701 16.490625,32.3049665 17.0738281,32.2133929 C17.8000558,32.0993862 18.5635603,31.7352679 19.3072545,31.8982143 C19.6834821,31.9806362 19.9697545,32.224442 20.324721,32.3462612 C20.7126674,32.4794085 21.1217634,32.487779 21.4199777,32.8130022 C21.9959263,33.4410714 21.6228795,34.0651786 21.759375,34.7771763 C21.8348772,35.1712612 22.1351004,35.453404 22.3419643,35.7807478 C22.7560826,36.4361607 23.2207589,37.5421875 23.1728795,38.334933 C23.1416295,38.8523996 22.8669085,39.2560826 22.7743862,39.7456473 C22.647433,40.4174107 23.2209263,41.1476004 23.5142299,41.7158482 C23.6905692,42.0575335 23.8477679,42.4104911 24.0094308,42.7592634 C25.2590402,42.7455915 26.4583147,42.6336496 27.6894531,42.4163504 C28.2278088,42.3036644 28.7617932,42.1731027 29.2914063,42.0246652 C29.3147321,41.3136161 29.4727121,40.7206473 30.0055804,40.2207031 C30.5566406,39.7036272 31.6885045,39.327567 31.733817,38.4886161 C31.7564732,38.0686384 31.5871094,37.646317 31.4925781,37.2419643 C31.2505022,36.2066964 31.5767857,35.5131696 32.2522879,34.7395647 C32.4856585,34.4723214 32.7213728,34.209654 32.9806362,33.9670759 C34.0521205,32.9648996 34.6094866,32.7678013 35.2145089,31.2973772 C34.6820871,31.4584263 33.8363281,31.6896763 33.3067522,31.4158482 C32.9566964,31.2348772 32.6901228,30.8641741 32.4533482,30.5578683 C31.1938616,28.928404 30.5377232,27.1800781 29.9717634,25.2228237 C29.8756138,24.8904018 29.8338728,24.5729353 29.8638393,24.2279018 C28.9847098,24.2192522 28.0908482,24.1891183 27.2396763,23.9486607 C26.7736607,23.8170201 26.3516741,23.5741629 25.8676897,23.5151786 C25.7503348,23.8939732 25.6082031,24.3444196 25.2294085,24.5411272 C24.8853237,24.7198103 24.3703683,24.5870536 24.0247768,24.4648437 C23.4633371,24.2662946 22.9370536,23.9839286 22.3925781,23.7453125 C22.0022321,23.5742187 21.5520647,23.4479911 21.1964844,23.2149554 C21.0245536,23.1022879 20.9149554,22.9861607 20.8258371,22.7987723 C20.6968192,22.5273996 20.6947545,22.2291295 20.6926897,21.9353237 C20.444029,21.9256696 20.1649554,21.9040179 19.9188616,21.9458705 Z M36.7614955,24.6097098 C36.9465402,24.9633371 37.0662388,25.1939174 37.4736049,25.3176339 C38.0359933,25.4883929 38.669308,25.5382254 38.9872768,26.1138393 C38.9960565,26.1298363 39.0044085,26.1460379 39.0123326,26.1624442 C39.0202939,26.1788504 39.0278274,26.1954613 39.034933,26.2122768 C39.0420387,26.2290551 39.0487165,26.2460193 39.0549665,26.2631696 C39.0612165,26.2802827 39.0670201,26.2975632 39.0723772,26.3150112 C39.0777344,26.3324219 39.0826637,26.3499628 39.0871652,26.3676339 C39.0916295,26.3853423 39.0956659,26.403125 39.0992746,26.4209821 C39.102846,26.4388765 39.105971,26.4568452 39.1086496,26.4748884 C39.1113281,26.4929315 39.1135417,26.5110305 39.1152902,26.5291853 C39.1170387,26.5473028 39.1183408,26.5654762 39.1191964,26.5837054 C39.1200149,26.6019345 39.1203869,26.6201637 39.1203125,26.6383929 C39.1202381,26.656622 39.1196987,26.6748512 39.1186942,26.6930804 C39.1176525,26.7112723 39.116183,26.7294457 39.1142857,26.7476004 C39.1123512,26.765718 39.1099516,26.7837798 39.1070871,26.8017857 C39.1042597,26.8198289 39.1009673,26.8377604 39.0972098,26.8555804 C39.0934896,26.8734375 39.0893043,26.891183 39.084654,26.908817 C39.0800037,26.9264509 39.074907,26.9439546 39.0693638,26.9613281 C38.7698661,27.9268973 37.3242746,28.8768415 36.4480469,29.3212054 C35.8843192,29.6070871 34.2662388,30.3344308 33.6831473,30.1351004 C33.5981027,30.1060268 33.5147879,30.0670201 33.4326451,30.030692 C33.5688616,30.1751674 33.7022879,30.3253906 33.8535714,30.4542969 C34.3810826,30.3725446 35.2861607,30.1243304 35.7774554,30.1676897 C35.8981027,30.1783482 36.0042969,30.2191406 36.1006138,30.2929688 C36.2890067,30.4374442 36.4051897,30.6728795 36.4284598,30.906808 C36.4978237,31.6051897 35.7099888,32.8556362 35.2760045,33.3625 C34.5832031,34.171596 33.0164063,35.2032924 32.6261719,36.125279 C32.5533482,36.2974888 32.5311384,36.4799107 32.5441406,36.6655134 C32.5683594,37.0107143 32.6928013,37.3491629 32.7659598,37.6861049 C32.915346,38.3746094 32.8905692,39.1927455 32.4211496,39.7563616 C31.8948661,40.3882254 30.7934152,40.728683 30.4921317,41.4616071 C30.4819196,41.5149554 30.4545759,41.5868304 30.4741071,41.6370536 C31.2370536,41.402567 31.9614955,41.034375 32.6664621,40.6667411 C32.7713356,40.6126488 32.8756696,40.5575707 32.9794643,40.5015067 C33.0832961,40.4454427 33.1865885,40.3883929 33.2893415,40.3303571 C33.3920945,40.2723214 33.4942708,40.2133185 33.5958705,40.1533482 C33.6975074,40.093378 33.7985677,40.0324591 33.8990513,39.9705915 C33.9994978,39.908724 34.0993676,39.8459077 34.1986607,39.7821429 C34.2979167,39.718378 34.3965774,39.653683 34.4946429,39.588058 C34.5927083,39.5223958 34.6901414,39.4558222 34.786942,39.3883371 C34.8837426,39.3208519 34.9798921,39.252474 35.0753906,39.1832031 C35.1708891,39.1138951 35.265718,39.0436756 35.3598772,38.9725446 C35.4540365,38.9014509 35.547526,38.8294829 35.640346,38.7566406 C35.7331287,38.6837612 35.8252232,38.6100074 35.9166295,38.5353795 C36.0080729,38.4607887 36.0987723,38.3853237 36.1887277,38.3089844 C36.2787202,38.2326451 36.3679688,38.1554688 36.4564732,38.0774554 C36.5449777,37.9994048 36.6327567,37.9205543 36.7198103,37.840904 C36.8068266,37.7612165 36.8930804,37.6807106 36.9785714,37.5993862 C37.0640625,37.5180618 37.1487909,37.4359375 37.2327567,37.3530134 C37.3166853,37.2700893 37.3998326,37.1863839 37.4821987,37.1018973 C37.5645647,37.0173735 37.6461124,36.9321057 37.7268415,36.8460938 C37.8076079,36.7600446 37.8875372,36.6732329 37.9666295,36.5856585 C38.0457217,36.4981213 38.1239769,36.4098214 38.2013951,36.3207589 C38.2788504,36.2317336 38.3554315,36.1419829 38.4311384,36.0515067 C38.5068824,35.9609933 38.5817522,35.8697917 38.6557478,35.7779018 C38.7297433,35.6859747 38.8028646,35.593378 38.8751116,35.5001116 C38.9473586,35.406808 39.0187128,35.3128348 39.0891741,35.218192 C39.1596354,35.1235491 39.2292039,35.0282366 39.2978795,34.9322545 C39.3665551,34.8363095 39.4343006,34.7397135 39.5011161,34.6424665 C39.5679315,34.5452195 39.6338356,34.4473586 39.6988281,34.3488839 C39.7638207,34.250372 39.8278646,34.1512649 39.8909598,34.0515625 C39.9540551,33.9518601 40.0162016,33.8515625 40.0773996,33.7506696 C40.1385975,33.649814 40.1988467,33.5483631 40.2581473,33.446317 C40.3174107,33.344308 40.3757068,33.2417411 40.4330357,33.1386161 C40.4904018,33.0354911 40.5467634,32.9318266 40.6021205,32.8276228 C41.5777902,30.9824219 42.186942,29.088058 42.5226563,27.0303571 L42.491183,26.9976004 C41.8032924,26.2750558 41.1599888,25.0777902 40.0256138,25.0425781 C39.1737723,25.0161272 38.158817,25.2525112 37.3455915,24.9400112 C37.1373884,24.8599888 36.9506696,24.7258371 36.7614955,24.6097098 Z M30.9922991,25.3823103 C31.1821987,25.9412946 32.6342634,29.1121094 33.0409598,29.4204799 C32.9515067,29.1131138 32.8461496,28.8040179 32.7319196,28.5065848 C32.638226,28.2625122 31.0515231,25.3823103 30.9922991,25.3823103 Z M20.9180804,18.3179688 C20.4670759,18.3928013 19.7281808,18.5196987 19.4422433,18.9199777 C19.2796875,19.147433 19.1561942,19.403404 19.0064732,19.6395647 C18.459096,20.5029576 17.7888393,21.0792411 16.7621652,21.2632813 C16.553125,21.2993304 16.3426339,21.3214658 16.130692,21.3296875 L16.0179688,21.6614955 C17.4704241,21.2718192 18.9043527,20.9002232 20.4124442,20.8116629 C20.6737723,20.796317 21.0333147,20.740904 21.2716518,20.8691406 C21.5383929,21.0126674 21.6804129,21.3313616 21.7517299,21.6128348 C21.8063058,21.8282924 21.8300223,22.0530134 21.8319196,22.275 C22.2805804,22.462221 22.7339286,22.643192 23.1772321,22.8426339 C23.6761161,23.0670759 24.1502232,23.3710938 24.6951451,23.468192 C24.8125,23.0976004 24.9855469,22.7655692 25.3423549,22.5736607 C25.7220982,22.3694754 26.1577567,22.3841518 26.5570871,22.5144531 C26.8421317,22.6074219 27.1170759,22.730692 27.4021205,22.8241071 C27.9259487,22.9958147 28.4776228,23.0588728 29.0253348,23.0954241 C29.4116071,23.1141183 29.7962612,23.1311942 30.1830915,23.1285714 C30.4104911,22.6954799 30.6455357,22.2676897 30.8109375,21.8060826 C30.0332589,21.9834263 29.1657366,22.1358259 28.4467076,21.6906808 C28.0002232,21.4141741 27.6865513,20.9420201 27.5693638,20.4330915 C27.4936942,20.1045201 27.5209821,19.8159598 27.593192,19.4892857 C27.4604911,19.5243862 27.3279018,19.5628348 27.1943638,19.5941406 C27.1375,20.0773438 27.0612165,21.0031808 26.6584821,21.3145647 C26.5139509,21.4262835 26.319308,21.4601563 26.1416295,21.4274554 C25.8977121,21.3825893 25.7206473,21.2077009 25.5905692,21.0064732 C25.4138393,20.7331473 25.3175223,20.4055804 25.1799107,20.1114955 C25.0992746,19.9392299 24.9936942,19.7821429 24.8878906,19.6246094 C24.8561942,20.1261161 24.6869978,20.5423549 24.3069754,20.8780134 C23.8788504,21.25625 23.2844308,21.3532924 22.7310268,21.3116071 C22.3829799,21.2854353 21.9414621,21.2371094 21.7041853,20.9509487 C21.6158482,20.8444196 21.5602121,20.7077009 21.5823103,20.5682478 C21.6066964,20.4138951 21.7214286,20.2564732 21.8526786,20.174721 C22.0734933,20.0371094 22.3577567,20.0999442 22.5960379,20.1478795 C22.2390625,19.8116629 21.9223772,19.4332589 21.619308,19.0484933 C21.4480469,18.8311384 21.2785156,18.5727121 21.0749442,18.3853795 C21.0189174,18.3337612 20.9938616,18.3176897 20.9180804,18.3179688 Z M30.6827567,16.5337612 L29.781529,16.5922991 C29.400279,17.2035714 29.1026786,17.8454241 28.7553013,18.4731585 C29.4017299,18.4106585 29.9458705,18.2915179 30.5746094,18.1571429 C30.5868304,18.1558594 30.5989955,18.1544085 30.6111607,18.1532924 C30.9803571,18.1179688 32.5331473,18.2389509 32.7132254,18.0702009 C32.7353795,17.9490513 32.706529,17.8488839 32.6365513,17.7475446 C32.3658482,17.3554688 31.6279576,16.8069754 31.2253348,16.5262277 C31.0454241,16.5266741 30.8621094,16.5203683 30.6827567,16.5337612 Z M17.4117188,9.24280134 C17.6618862,9.23398437 17.9164621,9.26964286 18.1229353,9.4218192 C18.5662388,9.7484933 18.6591518,10.6073103 18.6491071,11.1200893 C18.643471,11.4074777 18.5987723,11.6967634 18.6064174,11.9840402 C18.6128348,12.2264509 18.7231027,12.4702009 18.7506138,12.7127232 C18.7910714,13.0689732 18.6789621,13.4717634 18.4462612,13.7446429 C17.9817522,14.2892857 17.2517857,14.2927455 16.6021205,14.4009487 C16.2512277,14.4594308 15.8969308,14.537779 15.5429129,14.5702567 C15.1988839,14.61875 14.7978237,14.6337054 14.4940848,14.4388951 C14.2834821,14.3037946 14.1622768,14.0770089 14.1088728,13.8375 C13.9227679,13.0034598 14.6032366,12.1368862 15.1830357,11.6145089 C15.3540179,11.4604353 15.580692,11.3564732 15.7268415,11.1777902 C15.930971,10.9282366 16.040625,10.5651786 16.2147321,10.2876116 C16.4952567,9.84023437 16.8718192,9.36395089 17.4117188,9.24280134 Z M17.4817522,10.4033482 C17.0890067,10.8821987 16.980692,11.4044643 16.6489397,11.8433594 C16.4417411,12.1175223 16.1495536,12.2495536 15.8916295,12.4617188 C15.6976004,12.621317 15.5344866,12.8678013 15.3936942,13.0740513 C15.3094308,13.1975446 15.2122768,13.3319754 15.1936942,13.4833147 C15.2502232,13.5123884 15.2686384,13.4957589 15.3291295,13.4839844 C15.7856585,13.390067 17.3586496,13.2511719 17.6164063,13.03125 C17.7272879,12.7720982 17.5185826,12.365346 17.4949777,12.0957031 C17.4448103,11.5233259 17.6050223,10.987221 17.4817522,10.4033482 Z"></path>
    </g>
</svg>