<svg viewBox="0 0 48 48" version="1.1" xmlns="http://www.w3.org/2000/svg" stroke="none" stroke-width="1" fill="currentColor" fill-rule="evenodd">
    <g id="icon-myco-free">
        <path d="M12.2454741,11.3580432 C14.8916699,7.90121238 18.1899863,5.92028375 22.3208371,5.3814192 C23.0396632,5.29221256 23.8798814,5.27781206 24.7211746,5.33052141 C28.718447,5.57839427 31.9646587,7.51471573 35.1556989,11.1682194 L36.4120689,12.9312786 C36.5857618,13.2400412 36.767185,13.5797626 36.9397323,13.9244422 C37.1122727,14.2691079 37.2756387,14.6182307 37.4298325,14.9718157 C37.5840792,15.3255221 37.7289968,15.6826883 37.8645877,16.0433191 C38.0000773,16.4046711 38.1260873,16.7692402 38.2425246,17.1367777 C38.3589462,17.5042659 38.4656992,17.8747267 38.5627849,18.2481652 C38.6597525,18.6215291 38.746922,18.9974426 38.8242759,19.3758389 C38.90164,19.7542855 38.9690855,20.1342102 39.0266135,20.5156181 C39.0840239,20.8969 39.1314316,21.279745 39.1688258,21.6640834 C39.7510076,27.1875233 38.102421,32.9675004 34.6937956,37.1921404 C32.020016,40.5065653 28.7088074,42.2760484 24.4419897,42.700977 C23.6911028,42.7042841 22.9868966,42.6745341 22.3068822,42.6032438 C18.5537502,42.2166546 15.3970113,40.2525848 12.6253068,36.8579535 L11.3875223,35.1388954 C11.2132024,34.8371759 11.0312719,34.5062532 10.8574782,34.1703669 C10.6835306,33.8351746 10.5181853,33.4958418 10.3612739,33.1520428 C10.2042905,32.808086 10.0558495,32.4606648 9.91594899,32.1097752 C9.77621923,31.7590663 9.64524603,31.40482 9.52305493,31.0470994 C9.40071877,30.6892432 9.28739257,30.3289877 9.18305073,29.9662586 C9.07865041,29.6026784 8.98324319,29.2364841 8.89686726,28.8678076 C8.81056944,28.5000343 8.73342621,28.1303803 8.66541315,27.7587405 C8.59752253,27.3862394 8.53877675,27.0125431 8.48921394,26.637862 C7.76845452,21.1434531 9.10894802,15.4554328 12.2454741,11.3580432 Z M32.711737,16.1142207 L32.861865,16.3799685 C33.0814518,16.768668 33.1076108,16.8151494 33.1978332,16.9784059 C33.996257,18.4231454 34.3741828,19.4235546 34.3802076,20.4118694 C34.3820111,20.7076995 34.3465575,20.9918387 34.2716793,21.2661413 C34.0789094,21.9709247 33.590521,22.52873 32.8823939,22.8769984 C32.141581,23.2423409 31.2422635,23.3805545 30.0350903,23.3680023 C29.6490024,23.3639878 29.3129022,23.3490951 28.6586975,23.3119235 C28.1911739,23.285359 28.0477263,23.2776796 27.8246352,23.2685036 L27.348735,23.2489292 L27.411708,23.7210505 C27.4653651,24.1233284 27.5454169,24.5847099 27.662845,25.1869992 C27.7315279,25.5392744 28.0012138,26.8669508 28.0007205,26.8644926 C28.1719388,27.7176343 28.2914859,28.3613816 28.3909027,28.9913863 C28.8345203,31.8025949 28.7326666,33.6938719 27.9111244,34.7475154 C27.0815165,35.8115673 25.7195912,36.4595134 24.2128344,36.5704568 C22.6875696,36.6817438 21.212309,36.2379047 20.1755236,35.3072508 C19.343092,34.5600227 18.8172539,33.4896933 18.7917783,32.4415828 C18.7872207,32.253542 18.7874805,32.0719129 18.791208,31.7779092 C18.7918224,31.7301707 18.7918224,31.7301707 18.792457,31.6822804 C18.7963578,31.3879389 18.7974023,31.2566273 18.796084,31.0911868 L18.7885331,30.14359 L13.5673914,35.3079322 L13.6254682,35.5310011 C13.9709325,36.8579072 15.9835743,38.5935876 18.018999,39.7943199 C20.6131076,41.3264052 23.9985149,41.7479175 26.9221173,40.9205276 C30.3788125,39.941904 33.3836055,37.2672163 35.3514752,33.7128198 C37.9399191,29.037727 38.5777414,23.1814407 37.0785501,18.0101005 C36.9831377,17.6774032 36.9234801,17.4712446 36.8578879,17.2541257 C36.7551233,16.9139612 36.6551766,16.6066236 36.5499338,16.3140222 C36.1418639,15.1794855 35.7162337,14.4190326 35.1778935,14.0938493 L34.9108453,13.9325394 L32.711737,16.1142207 Z M22.4043213,6.80460928 C18.5301567,7.41186371 15.4479926,9.32191712 13.1375975,12.5387344 C10.2371139,16.577505 9.12190584,22.2309259 10.019892,27.4840609 C10.1216554,28.0586613 10.2466692,28.625296 10.3953391,29.1862971 C10.5438563,29.7471069 10.7154817,30.3013301 10.9101885,30.8488745 C11.1051291,31.3957658 11.322304,31.9331775 11.5618043,32.4613679 C11.8014211,32.9895904 12.0625794,33.5070167 12.3452926,34.0136798 L12.6016234,34.4730617 L19.6716584,27.4853642 L19.6902614,27.3510617 C19.7210586,27.1287239 19.7452485,26.9594475 19.8051335,26.5444045 C20.0050268,25.1590097 20.0850255,24.5261465 20.1429862,23.7397358 L20.1750702,23.3044206 L16.4249389,23.3555523 C15.0550636,23.2219701 14.4037932,22.9951559 13.8615186,22.3038242 C13.3409344,21.6404782 13.1549483,20.7197189 13.3024161,19.7381327 C13.6849624,17.1918188 15.9183407,14.1529072 18.452988,12.400813 C18.5830787,12.310573 18.7148563,12.2235973 18.8488622,12.1395116 C18.9806786,12.057757 19.1162209,11.9782769 19.2537327,11.9021674 C19.3913815,11.8260353 19.5309091,11.7532223 19.6722172,11.6837831 C19.8129268,11.614638 19.9553019,11.5493382 20.0993494,11.4878802 C20.2449331,11.4248031 20.3898558,11.3669295 20.5361935,11.3133658 C20.6854996,11.2577467 20.8339358,11.2067735 20.9836668,11.1596468 C21.1320055,11.1139184 21.283643,11.0708777 21.4363476,11.0312202 C21.5883511,10.9917449 21.7412634,10.9561213 21.8950907,10.9243482 C22.0474182,10.8938455 22.2027787,10.866252 22.3588202,10.8420462 C22.5133023,10.8180823 22.6683037,10.7984326 22.823833,10.7830961 C22.9801269,10.7676746 23.1367331,10.7561102 23.2936815,10.7484004 C23.4506542,10.7406893 23.607669,10.7368339 23.7647318,10.7368339 C23.9218927,10.7368339 24.0789035,10.7406892 24.2357701,10.7483998 C24.3911021,10.7569915 24.5485244,10.7691005 24.7056068,10.7845997 C24.8594293,10.8007334 25.0151992,10.8209684 25.1704934,10.8450583 C25.3257258,10.8691385 25.4802341,10.8970708 25.6340245,10.9288562 C27.7982682,11.3558687 29.5701607,12.5372548 31.666953,14.6996279 L31.9478846,14.989346 L34.4784536,12.4916647 L34.2227667,12.2077228 C31.1290037,8.77207965 28.1171164,6.94408433 24.4309459,6.76111941 C23.636942,6.72159127 23.0008707,6.72889239 22.4043213,6.80460928 Z M22.9353942,12.0247222 C20.0998697,12.4798839 17.8742213,14.0209367 16.0258914,16.6216847 C14.7772198,18.3783685 14.2378709,19.4298643 14.3958011,20.5249587 C14.4667925,21.018078 14.7865252,21.5087856 15.2101618,21.7638562 C15.8052163,22.123534 17.0500872,22.2170214 19.0169317,22.1643835 C19.4893871,22.1517394 19.9667684,22.131796 20.5997427,22.1003932 C20.5375572,22.1034783 21.4211838,22.0587698 21.6296673,22.0491403 C21.9690194,22.0334662 22.208507,22.025431 22.3887096,22.0244845 L24.8006999,22.0470629 L24.9676703,22.0486229 L31.1136589,15.9495848 L30.8452786,15.665871 C28.5251694,13.2132068 26.5452423,12.087411 23.7943346,12.0137854 C23.5244759,12.004456 23.2516047,12.0065504 22.9353942,12.0247222 Z M20.7419607,28.1209108 L20.716636,28.2353702 C20.6834392,28.385409 20.6434591,28.550687 20.5871355,28.773466 C20.5695604,28.8429817 20.4642631,29.2547729 20.4331483,29.3784524 C20.2946527,29.9289647 20.2031869,30.3387326 20.1342577,30.74791 C19.9172859,32.035899 19.9908807,33.0273137 20.4899048,33.7806376 C20.8129747,34.26761 21.2049213,34.5557946 21.9698742,34.972707 C23.7302515,35.4343195 25.090548,35.3985135 26.2147629,34.6816413 C26.6864243,34.3814386 27.0302094,34.0183286 27.3740052,33.4903548 L27.4354127,33.3240753 C27.5202691,32.6767389 27.5314674,32.0513613 27.4677185,31.4144752 C27.3100995,29.839538 26.2970545,23.9319238 26.0009271,23.5334791 L25.7253044,23.1626239 L20.7419607,28.1209108 Z M31.3360187,17.579896 C31.1449313,17.7693555 30.92361,17.9768464 30.6042842,18.268345 C30.6438664,18.2322122 29.9551081,18.8581762 29.758722,19.0393173 C29.3460796,19.4199273 29.0198362,19.734176 28.72751,20.0377227 C28.2429453,20.5408863 27.8791085,20.9883086 27.630924,21.4069555 L27.2960693,21.9718008 L27.951584,22.0102495 C28.0313567,22.0149285 28.09445,22.0194949 28.246295,22.0311487 C28.3268681,22.0373296 28.3268681,22.0373296 28.4088801,22.0433274 C28.6088014,22.0575991 28.7600701,22.0643736 28.909711,22.0636418 C29.0661108,22.0659413 29.17996,22.0709166 29.5597306,22.0903189 C29.9497964,22.1102472 30.1633499,22.1182474 30.4077073,22.1187019 C31.3890254,22.1205272 32.1003286,21.9651908 32.6352503,21.5253121 L32.7357476,21.4015289 C33.1184373,20.6687725 33.135918,20.0399634 32.8606912,19.1655407 C32.6113872,18.3718254 32.3434763,17.8850916 31.8476217,17.5366655 L31.5737311,17.3442086 L31.3360187,17.579896 Z M21.0630096,26.2147987 L23.8485061,23.3749405 L21.0630096,23.3749405 L21.0630096,26.2147987 Z"></path>
    </g>
</svg>