<svg viewBox="0 0 48 48" xmlns="http://www.w3.org/2000/svg" stroke="none" stroke-width="1" fill="currentColor" fill-rule="evenodd">
    <g id="icon-regions">
        <path d="M7.87930992,27.5547875 L7.64694171,26.1071222 C7.08080242,25.6741927 6.52155029,25.232403 5.96918893,24.7817561 L5.52963188,24.4231411 L5.50792281,17.7580973 L6.46848584,17.5597875 C6.65027111,17.5223729 6.65027111,17.5223729 6.83111233,17.4854064 C7.08125148,17.434315 7.19507147,17.4109965 7.32918599,17.3832321 C7.97041742,17.2504847 8.42549427,17.148168 8.8646542,17.0340467 C9.7570533,16.8019805 10.2263046,16.2772271 11.0844494,14.7164605 C11.1934499,14.5178085 11.2528028,14.409714 11.3064519,14.3127899 C11.3295922,14.2710195 11.3295922,14.2710195 11.3529438,14.2290325 L11.7644052,13.4900251 L12.5987226,13.6291178 C14.243963,13.903403 15.8908697,14.1654457 17.539443,14.4152459 C17.3078981,13.8795365 17.132052,13.3805685 17.0254803,12.9355218 C16.5641467,11.0129189 16.8015779,9.00475065 17.7916527,7.43762874 C18.8977875,5.68710042 20.7239497,4.70506086 23.1268008,4.22367542 L23.2383905,4.20131963 L23.3521933,4.20033987 C25.0294272,4.1859001 26.6440427,4.63160942 27.934266,5.53218208 C29.4560937,6.59300735 30.5406373,8.27042495 30.8208498,10.0657749 C30.9602126,10.95509 30.9133624,11.8716336 30.6992511,12.8148959 C30.4960205,13.7102241 30.1650614,14.589272 29.6927792,15.5130073 C30.4540839,15.6515619 31.2392409,15.766202 32.7005586,15.9646653 C32.7898549,15.9767925 32.7898549,15.9767925 32.879268,15.9889432 C35.2283465,16.3082759 36.4016344,16.5033525 37.7443933,16.8441754 C38.2666323,16.9763338 38.6719029,17.1382287 39.0054726,17.4730032 C39.6880343,18.155565 39.7090302,18.5897421 39.6202812,21.5618013 C39.5940621,22.4398376 39.5850993,22.919909 39.5906568,23.4544539 C39.608268,25.1483939 39.8067984,26.3150231 40.2117085,26.9550653 L40.7859208,27.8468239 L40.7902688,27.8458847 L41.2423927,28.5322392 C41.5676234,29.0259613 41.83995,29.5204878 42.1809129,30.208984 L42.4852029,30.8234281 L42.1103583,31.3975583 C41.8711431,31.763952 41.5466737,32.2150041 41.0289787,32.9100671 C41.0876099,32.8313483 39.9653505,34.3304416 39.639313,34.7729451 C39.4747334,34.9963153 39.3216148,35.2061195 39.1762715,35.4076423 C37.9299297,37.1357328 37.1966969,38.3647865 37.1035888,38.8871802 C37.0562204,39.152833 37.0533474,39.422208 37.0801454,40.0807234 C37.0823073,40.133854 37.0823073,40.133854 37.0844651,40.1878014 C37.1398394,41.5841069 37.0475421,42.3352083 36.4937265,43.1681597 L36.2878286,43.4778348 L35.9428955,43.6168087 C35.2831747,43.8826109 34.5964734,43.8410907 33.8128651,43.6084758 C33.554237,43.5317018 33.3051126,43.4409221 32.9783508,43.3103412 C32.9053135,43.281154 32.663772,43.1833222 32.6201967,43.1658548 C32.498603,43.1171134 32.409709,43.0828096 32.3350424,43.0560581 C32.1368688,42.9855083 31.9287277,42.9068311 31.6755178,42.807706 C31.5289301,42.7503208 31.0051069,42.5422976 31.0207257,42.5484739 C30.4810961,42.3350839 30.1245264,42.2025407 29.7705015,42.0888044 C29.1844074,41.9005121 28.7040998,41.8019664 28.2995887,41.7920001 C28.1763742,41.7889622 27.9391933,41.8520341 27.5964332,41.9955335 C27.4641569,42.050912 27.3252278,42.1137154 27.1293731,42.2056384 C26.8906848,42.3184011 26.7612636,42.3793057 26.6417908,42.4337452 C26.4438686,42.5239311 26.2783241,42.5938486 26.1184725,42.6524934 C25.5939937,42.8449091 25.1528148,42.9157699 24.6773887,42.7801137 C23.7849986,42.5252368 23.2857673,41.9434828 22.778212,40.9647576 C22.7305905,40.8729285 22.5584732,40.529472 22.5194565,40.454851 C22.5142967,40.445022 22.5109136,40.4385773 22.5081079,40.4332525 L22.4703317,40.4792776 L21.553019,39.8007074 L20.1632411,38.7724249 C19.2415308,38.0662464 18.833141,37.9203007 18.1771186,37.9076821 C18.1237522,37.9066555 18.081768,37.9062494 17.9755853,37.9055537 C17.0705585,37.8997115 16.5363346,37.8283424 15.7139437,37.5112556 C14.6553844,37.1029073 14.2363776,36.4780262 13.7321128,35.1636188 C13.113223,34.7948036 12.3906432,34.4663313 11.1767782,33.9709953 C10.998018,33.8981418 10.998018,33.8981418 10.8180266,33.8248854 C9.90629902,33.4535925 9.42368055,33.2472554 8.89365509,32.9905864 L8.3078741,32.7069174 L8.2261615,32.0612159 C8.15570193,31.5044369 8.10517346,30.9529522 8.04579064,30.1577824 C8.0293891,29.9362437 8.0293891,29.9362437 8.01338735,29.7163615 C7.98230511,29.2893466 7.96757065,29.0924579 7.94834513,28.8545972 L7.84327845,27.5546984 L7.87930992,27.5547875 Z M40.2345945,29.1935931 L40.1996155,29.1454477 C40.0223949,29.183729 39.9730667,29.1484856 39.5538473,29.2442847 C38.7015789,29.439043 38.2621393,29.525448 37.7571296,29.5812257 C37.3255559,29.6288925 36.9304138,29.6372144 36.5552946,29.6015633 C36.0810315,29.5564255 35.7099431,29.4578823 34.9131363,29.1968972 C34.834508,29.1711384 34.834508,29.1711384 34.7557775,29.1454477 C33.8194937,28.840589 33.2885785,28.73039 32.6302422,28.7770866 C32.4219213,28.8416512 32.2724834,28.8886674 31.8733163,29.0148159 C31.0929719,29.2614275 30.7232969,29.3753876 30.276661,29.5031664 L30.2049875,29.5865229 C29.9640632,31.4553022 29.3684738,32.6226453 28.0388256,33.6508981 C27.6525642,33.9499287 27.2570478,34.2125336 26.6031865,34.6180027 C26.5316755,34.6623477 26.4119903,34.7363161 26.2211973,34.8543151 C26.1012369,34.9286441 26.0036963,34.9894796 25.9105639,35.0481856 C25.7572633,36.3366658 25.383647,37.232832 24.6293026,38.2822503 C24.4754037,38.4963493 24.3057938,38.7182049 24.0814781,39.0015168 C23.9837213,39.1249841 23.6607358,39.572982 23.5547891,39.7066514 L23.5450629,39.8160875 C23.5473146,39.8203007 23.5492027,39.823881 23.5508205,39.8269921 L23.5472222,39.8315314 C23.8986111,40.4856981 24.2347222,41.4056981 25.0069444,41.6262536 C25.6888889,41.8208369 27.2194444,40.5650036 28.3291667,40.5923647 C29.7666667,40.6277814 31.3833333,41.4434758 32.7375,41.9255592 C33.5291667,42.2091703 34.6805556,42.8316703 35.4944444,42.5037536 C36.2194444,41.4133369 35.7027778,39.9072258 35.9222222,38.6765314 C36.2361111,36.9154203 39.9513889,32.5093092 41.1055556,30.7415314 C40.8388889,30.2030592 40.5708333,29.6941703 40.2402778,29.1923647 L40.2345945,29.1935931 Z M39.3070448,27.7666538 L39.2027778,27.6047258 C37.6194444,25.1022258 38.9916667,19.1562536 38.1569444,18.3215314 C38.0027778,18.1668092 37.6541667,18.0591703 37.45,18.0075036 C34.725,17.3158369 31.7708333,17.1466703 28.9958333,16.6023647 C28,18.0011147 25.2708333,22.5004203 23.9625,22.9736147 C23.3638889,22.9043092 23.0916667,22.6929203 22.7180556,22.2263925 C21.1013889,20.2054203 19.7166667,17.8634758 18.2333333,15.7329203 C16.287037,15.4431981 14.3430556,15.1364851 12.4013889,14.8127814 C11.5916667,16.2670869 10.9152778,17.7406981 9.16666667,18.1954203 C8.35694444,18.4058369 7.52916667,18.5661147 6.71111111,18.7350036 L6.72777778,23.8519481 C7.39351852,24.3950962 8.06944444,24.9251425 8.75555556,25.4420869 L9.0375,27.1986147 L9.04344658,27.1986082 L9.04077148,27.2012792 L9.07090759,27.2986147 L16.0487201,27.2909758 C16.1998136,27.1989439 16.5674733,26.9040181 16.5283285,26.9353185 C16.7093345,26.7905848 16.8517264,26.6788028 16.9950364,26.5698968 C17.6005076,26.1097792 18.1096779,25.79217 18.5946899,25.6009573 C18.9485123,25.4614652 19.2743941,25.3978761 19.5727635,25.4170206 C19.8511894,25.4349113 20.1382739,25.5222803 20.4850552,25.6826057 C20.6545802,25.7609812 20.7511579,25.8110333 21.1156539,26.0051518 C21.8114595,26.3757147 22.1764831,26.5298702 22.6329007,26.5959172 C23.1761146,26.6744083 23.5962552,26.6110317 24.4929372,26.3809031 C24.7010977,26.3274798 24.7825146,26.3069768 24.8921891,26.2810721 C25.4292057,26.1542303 25.8166738,26.1128533 26.2046814,26.1652163 C26.8004276,26.2455813 27.219849,26.4589528 28.1324711,27.0630625 C28.8834453,27.5601318 29.2469113,27.7601893 29.743538,27.8933952 C30.3204296,28.0480861 30.788151,27.9656006 31.7721961,27.6278828 C32.5399829,27.3639929 32.8827451,27.2815108 33.3136544,27.3065025 C33.8288527,27.3363268 34.2459101,27.4606682 35.1350553,27.8095564 C35.966801,28.1361996 36.3521818,28.2581225 36.8616362,28.3123584 C37.0894631,28.276704 37.2523335,28.2489715 37.6095373,28.1885509 C37.657321,28.1804684 37.657321,28.1804684 37.7051105,28.1723828 C38.473165,28.0424144 38.8603592,27.9823775 39.3182068,27.8933952 L39.3182068,27.7753759 L39.3070448,27.7666538 Z M20.8930556,37.8198647 L22.3439641,38.8994196 C22.4571501,38.7615181 23.0003456,38.1273667 22.8858211,38.2620768 C23.3630022,37.7009735 23.6402159,37.3220274 23.8358254,36.9183312 C23.975481,36.6301997 24.0661133,36.3848482 24.2606506,35.8012249 C24.5627245,34.8952138 24.741272,34.494098 25.0830761,34.0927584 C25.1076718,34.0639197 25.1076718,34.0639197 25.1472215,34.0161388 C25.1780121,33.9789561 25.1780121,33.9789561 25.208286,33.9439789 C25.5537063,33.557207 25.8947916,33.2522026 26.2692436,32.9793753 C26.4149653,32.8732019 26.5607565,32.775093 26.7400231,32.6606067 C26.7889471,32.629362 27.090386,32.4398188 27.1737281,32.3858782 C28.1876088,31.7296755 28.5936989,31.064293 28.8517827,29.2485201 L28.8075763,29.1507992 C28.6990634,29.0797123 28.5847119,29.0013969 28.4369986,28.8977228 C28.3844343,28.8608301 28.12365,28.6765001 28.0494435,28.6245242 C26.8411451,27.7782044 26.0891082,27.4593015 25.2243869,27.6363413 C24.9964849,27.6830238 24.8261366,27.7307611 24.3876494,27.8635539 C24.1732041,27.9284972 24.0611536,27.9614474 23.9337951,27.9959211 C23.5756517,28.0928644 23.2914065,28.1429135 23.024871,28.1469596 C22.4421334,28.1558099 22.0228286,28.0038871 21.0849654,27.5226654 C20.1130953,27.0242124 19.6214887,26.8618614 18.8868862,26.9501969 C17.81665,27.7311852 17.1990001,28.1680892 16.5077504,28.6203505 C15.3504548,28.6530311 14.0974021,28.6715621 12.5166723,28.6709285 C11.9815088,28.6707139 11.5528247,28.6690183 10.5902454,28.6640688 C9.86672417,28.6603486 9.54603448,28.6589132 9.14469177,28.6579206 C9.23899246,30.1387374 9.32965075,31.2229503 9.41666667,31.9105592 C11.1194444,32.7351425 13.1361111,33.3298647 14.7055556,34.3572258 C15.0375,35.1723647 15.2486111,36.0455592 16.1458333,36.3916703 C18.1666667,37.1708369 18.5125,35.9959758 20.8930556,37.8198647 Z M23.3589256,5.48279695 C21.3122606,5.89282431 19.7922144,6.71024654 18.8924069,8.1342488 C18.087311,9.40858026 17.8911502,11.0676878 18.2749298,12.6670854 C18.7860492,14.801535 21.2464609,18.5320569 23.5162726,21.086397 L23.6523295,21.2395091 L24.2511526,21.1780913 L24.3561754,21.0327284 C24.7137058,20.5378676 26.20119,18.6126816 26.3866568,18.3660072 C28.1255498,16.0532461 29.1224496,14.3204263 29.5210988,12.564186 C29.6997724,11.7770431 29.7384498,11.0203868 29.6243438,10.2922428 C29.395971,8.82903542 28.5035477,7.44876219 27.2537399,6.57755471 C26.1895252,5.8347356 24.8424966,5.46289279 23.4340564,5.47501843 L23.3589256,5.48279695 Z M23.1125,8.46222583 C23.1606481,8.44972583 23.2092593,8.43838324 23.2583333,8.42819805 C23.3074074,8.41810546 23.3569444,8.40921657 23.4069444,8.40153138 C23.4560185,8.39375361 23.5055556,8.38727213 23.5555556,8.38208694 C23.6046296,8.37680916 23.6541667,8.37273509 23.7041667,8.36986472 C23.7541667,8.36708694 23.8041667,8.36551287 23.8541667,8.3651425 C23.9041667,8.36477213 23.9541667,8.36565175 24.0041667,8.36778138 C24.0550926,8.36991101 24.1050926,8.37324435 24.1541667,8.37778138 C24.2041667,8.38231842 24.2541667,8.38810546 24.3041667,8.3951425 C24.3532407,8.40217953 24.4023148,8.41042027 24.4513889,8.41986472 C24.500463,8.42930916 24.549537,8.43995731 24.5986111,8.45180916 C24.6467593,8.46356842 24.6949074,8.47657768 24.7430556,8.49083694 C24.7912037,8.5050962 24.8388889,8.52046657 24.8861111,8.53694805 C24.9333333,8.55352213 24.9800926,8.57125361 25.0263889,8.5901425 C25.0726852,8.60903138 25.1185185,8.62903138 25.1638889,8.6501425 C25.2092593,8.67125361 25.2541667,8.69347583 25.2986111,8.71680916 C25.3430556,8.7401425 25.3865741,8.76454064 25.4291667,8.79000361 C25.4726852,8.81546657 25.5152778,8.84199435 25.5569444,8.86958694 C25.5986111,8.89717953 25.6398148,8.92574435 25.6805556,8.95528138 C25.7212963,8.98491101 25.7611111,9.01546657 25.8,9.04694805 C25.8388889,9.07852213 25.8768519,9.11102213 25.9138889,9.14444805 C25.9509259,9.17787398 25.9875,9.21217953 26.0236111,9.24736472 C26.0587963,9.2825499 26.0935185,9.31861472 26.1277778,9.35555916 C26.1611111,9.39250361 26.1939815,9.43023509 26.2263889,9.46875361 C26.2587963,9.50727213 26.2898148,9.54657768 26.3194444,9.58667027 C26.35,9.62676287 26.3791667,9.6675499 26.4069444,9.70903138 C26.4347222,9.75051287 26.4615741,9.79268879 26.4875,9.83555916 C26.5143519,9.87833694 26.5393519,9.92176287 26.5625,9.96583694 C26.5865741,10.009911 26.6097222,10.0545406 26.6319444,10.0997258 C26.6532407,10.144911 26.6736111,10.1906055 26.6930556,10.2368092 C26.7125,10.2830129 26.7310185,10.3296332 26.7486111,10.3766703 C26.7652778,10.4237999 26.7810185,10.4712999 26.7958333,10.5191703 C26.8106481,10.5671332 26.824537,10.615374 26.8375,10.6638925 C26.849537,10.712411 26.8606481,10.7612536 26.8708333,10.8104203 C26.8810185,10.8594943 26.8902778,10.9087999 26.8986111,10.9583369 C26.9060185,11.007874 26.9125,11.0575962 26.9180556,11.1075036 C26.9226852,11.1573184 26.9263889,11.2072721 26.9291667,11.2573647 C26.9328704,11.3074573 26.9347222,11.3575499 26.9347222,11.4076425 C26.9347222,11.4578277 26.9337963,11.5079666 26.9319444,11.5580592 C26.9300926,11.6081518 26.9268519,11.6581518 26.9222222,11.7080592 C26.9175926,11.7580592 26.912037,11.807874 26.9055556,11.8575036 C26.8981481,11.9071332 26.8898148,11.9565777 26.8805556,12.0058369 C26.8712963,12.0550962 26.8606481,12.1040777 26.8486111,12.1527814 C26.8365741,12.2015777 26.8236111,12.2500036 26.8097222,12.2980592 C26.7958333,12.3462073 26.7805556,12.3939388 26.7638889,12.4412536 C26.7472222,12.4885684 26.7296296,12.5354666 26.7111111,12.5819481 C26.6916667,12.6284295 26.6717593,12.6744018 26.6513889,12.7198647 C26.6300926,12.7654203 26.6078704,12.810374 26.5847222,12.8547258 C26.5615741,12.8991703 26.537037,12.9429666 26.5111111,12.9861147 C26.4861111,13.0293555 26.4597222,13.0719018 26.4319444,13.1137536 C26.4050926,13.1556981 26.3768519,13.1969018 26.3472222,13.2373647 C26.3175926,13.2779203 26.287037,13.3176888 26.2555556,13.3566703 C26.2240741,13.3956518 26.1916667,13.4338925 26.1583333,13.4713925 C26.125,13.5087999 26.0907407,13.5453277 26.0555556,13.5809758 C26.0203704,13.6167166 25.9842593,13.6515777 25.9472222,13.6855592 C25.9111111,13.7195406 25.8736111,13.7525962 25.8347222,13.7847258 C25.7967593,13.8168555 25.7574074,13.8480129 25.7166667,13.8781981 C25.6768519,13.9083832 25.6365741,13.9375499 25.5958333,13.9656981 C25.5541667,13.9938462 25.512037,14.0209758 25.4694444,14.0470869 C25.4268519,14.0731981 25.3833333,14.0982443 25.3388889,14.1222258 C25.2953704,14.1462073 25.2509259,14.169124 25.2055556,14.1909758 C25.1601852,14.2127351 25.1148148,14.2333832 25.0694444,14.2529203 C25.0231481,14.2725499 24.9763889,14.2909758 24.9291667,14.3081981 C24.8819444,14.3255129 24.8347222,14.341624 24.7875,14.3565314 C24.7393519,14.3714388 24.6912037,14.3851888 24.6430556,14.3977814 C24.5949074,14.410374 24.5462963,14.4217629 24.4972222,14.4319481 C24.4481481,14.4421332 24.3986111,14.4511147 24.3486111,14.4588925 C24.299537,14.4665777 24.25,14.4731055 24.2,14.4784758 C24.15,14.4837536 24.1,14.4878277 24.05,14.4906981 C24,14.4935684 23.95,14.4951888 23.9,14.4955592 C23.85,14.4959295 23.8,14.4950962 23.75,14.4930592 C23.7,14.4910221 23.65,14.4877351 23.6,14.4831981 C23.55,14.478661 23.500463,14.472874 23.4513889,14.4658369 C23.4013889,14.4588925 23.3518519,14.4506981 23.3027778,14.4412536 C23.2537037,14.4319018 23.2050926,14.4212999 23.1569444,14.4094481 C23.1078704,14.3976888 23.0592593,14.3846795 23.0111111,14.3704203 C22.962963,14.3562536 22.9152778,14.3408832 22.8680556,14.3243092 C22.8208333,14.3078277 22.7740741,14.2901425 22.7277778,14.2712536 C22.6814815,14.2523647 22.6356481,14.232411 22.5902778,14.2113925 C22.5449074,14.1902814 22.5,14.1680592 22.4555556,14.1447258 C22.4111111,14.1213925 22.3671296,14.0969943 22.3236111,14.0715314 C22.2810185,14.0460684 22.2388889,14.0195406 22.1972222,13.9919481 C22.1546296,13.9643555 22.1134259,13.9357906 22.0736111,13.9062536 C22.0328704,13.876624 21.9930556,13.8460684 21.9541667,13.8145869 C21.9152778,13.7830129 21.8773148,13.7505129 21.8402778,13.7170869 C21.8023148,13.683661 21.7657407,13.6493555 21.7305556,13.6141703 C21.6944444,13.5788925 21.6597222,13.5428277 21.6263889,13.5059758 C21.5921296,13.4690314 21.5587963,13.4312536 21.5263889,13.3926425 C21.4949074,13.354124 21.4638889,13.3148184 21.4333333,13.2747258 C21.4037037,13.2346332 21.374537,13.1938462 21.3458333,13.1523647 C21.3180556,13.1107906 21.2912037,13.0686147 21.2652778,13.0258369 C21.2393519,12.9829666 21.2143519,12.9394943 21.1902778,12.8954203 C21.1662037,12.8513462 21.1430556,12.8066703 21.1208333,12.7613925 C21.099537,12.7162073 21.0791667,12.6705129 21.0597222,12.6243092 C21.0402778,12.5781055 21.0217593,12.5314388 21.0041667,12.4843092 C20.9875,12.4371795 20.9717593,12.3896332 20.9569444,12.3416703 C20.9421296,12.2937999 20.9282407,12.2455592 20.9152778,12.1969481 C20.9023148,12.1483369 20.8912037,12.0994943 20.8819444,12.0504203 C20.8717593,12.0012536 20.8625,11.9519018 20.8541667,11.9023647 C20.8467593,11.8527351 20.8402778,11.8029666 20.8347222,11.7530592 C20.8300926,11.7031518 20.8263889,11.6531518 20.8236111,11.6030592 C20.8199074,11.5529666 20.8180556,11.5028277 20.8180556,11.4526425 C20.8180556,11.4024573 20.8189815,11.3523184 20.8208333,11.3022258 C20.8226852,11.2521332 20.8259259,11.2020869 20.8305556,11.1520869 C20.8351852,11.1020869 20.8412037,11.0522721 20.8486111,11.0026425 C20.8550926,10.9529203 20.862963,10.9034295 20.8722222,10.8541703 C20.8814815,10.804911 20.8921296,10.7558832 20.9041667,10.7070869 C20.9162037,10.6582906 20.9291667,10.6098647 20.9430556,10.5618092 C20.9578704,10.513661 20.9731481,10.4658832 20.9888889,10.4184758 C21.0055556,10.371161 21.0236111,10.3242629 21.0430556,10.2777814 C21.0615741,10.2312999 21.0814815,10.1852814 21.1027778,10.1397258 C21.1231481,10.0942629 21.1453704,10.0493092 21.1694444,10.0048647 C21.1925926,9.96042027 21.2166667,9.91657768 21.2416667,9.87333694 C21.2675926,9.83018879 21.2939815,9.7876425 21.3208333,9.74569805 C21.3486111,9.70375361 21.3773148,9.6625499 21.4069444,9.62208694 C21.4365741,9.58153138 21.4671296,9.54176287 21.4986111,9.50278138 C21.5300926,9.46370731 21.5625,9.42546657 21.5958333,9.38805916 C21.6291667,9.35065175 21.6634259,9.31407768 21.6986111,9.27833694 C21.7337963,9.2425962 21.7699074,9.20778138 21.8069444,9.1738925 C21.8430556,9.13991101 21.8805556,9.10685546 21.9194444,9.07472583 C21.9583333,9.0425962 21.9976852,9.01143879 22.0375,8.98125361 C22.0773148,8.95106842 22.1180556,8.92190175 22.1597222,8.89375361 C22.200463,8.86560546 22.2425926,8.83847583 22.2861111,8.81236472 C22.3287037,8.78625361 22.3717593,8.76120731 22.4152778,8.73722583 C22.4597222,8.71333694 22.5046296,8.69046657 22.55,8.66861472 C22.5944444,8.64685546 22.6398148,8.62620731 22.6861111,8.60667027 C22.7324074,8.58722583 22.7791667,8.5688462 22.8263889,8.55153138 C22.8726852,8.53430916 22.9199074,8.51824435 22.9680556,8.50333694 C23.0162037,8.48842953 23.0643519,8.47472583 23.1125,8.46222583 Z M23.5934604,9.58415831 C23.5515465,9.59074478 23.5101177,9.59879037 23.4691927,9.60829943 C23.4305449,9.61716408 23.3909062,9.62759838 23.3513737,9.63934187 C23.3112128,9.65127201 23.2715897,9.66451914 23.2325199,9.67908151 C23.1732109,9.70249363 23.1732109,9.70249363 23.1182412,9.72677342 C23.0827563,9.74233661 23.0441097,9.76105608 23.0065048,9.78107157 C22.967715,9.80184144 22.9308873,9.82344706 22.8951603,9.84636162 C22.8654448,9.86473016 22.8311713,9.88750168 22.7975231,9.9114035 C22.7440791,9.95128058 22.7440791,9.95128058 22.696704,9.98993732 C22.6674352,10.01325 22.6336401,10.0429003 22.6015551,10.0738303 C22.5755558,10.0979458 22.5456195,10.1278822 22.5168475,10.158812 C22.4751686,10.2058479 22.4751686,10.2058479 22.4394633,10.2479706 C22.4080405,10.2868357 22.3828949,10.3204231 22.358952,10.3549008 C22.3265678,10.4021527 22.3265678,10.4021527 22.2950844,10.4512132 C22.2689128,10.4947512 22.2489604,10.5307243 22.2301841,10.5673381 C22.2134789,10.5977349 22.1939247,10.6377263 22.1762275,10.6784298 C22.1523861,10.7348648 22.1523861,10.7348648 22.1308946,10.7922824 C22.1107013,10.8497758 22.1107013,10.8497758 22.0928239,10.9080506 C22.0802801,10.9504486 22.0696054,10.993273 22.0608107,11.0364929 C22.0531785,11.0686311 22.0450467,11.1119176 22.0387881,11.1554776 C22.0307799,11.2152823 22.0307799,11.2152823 22.0250642,11.2753842 C22.0204996,11.3354945 22.0204996,11.3354945 22.0182169,11.3957279 C22.0183139,11.4616576 22.0183139,11.4616576 22.0196058,11.5162238 C22.024089,11.5877121 22.024089,11.5877121 22.0303647,11.6476445 C22.0378059,11.7076333 22.0378059,11.7076333 22.0475486,11.7672367 C22.0607828,11.8321484 22.0607828,11.8321484 22.0730733,11.8858092 C22.0918418,11.9551672 22.0918418,11.9551672 22.1102411,12.0131251 C22.1299087,12.0710292 22.1299087,12.0710292 22.1519077,12.1280534 C22.1752457,12.1848928 22.1752457,12.1848928 22.2007274,12.2403733 C22.2198811,12.2808521 22.2406681,12.3201586 22.2632711,12.3587091 C22.2786291,12.3865753 22.2997574,12.4218478 22.3220473,12.4564557 C22.3606195,12.5126272 22.3606195,12.5126272 22.3948678,12.5591782 C22.4199955,12.5928015 22.4463148,12.6255211 22.4738132,12.6573236 C22.5014373,12.6892716 22.5302422,12.7202368 22.5602128,12.7502074 C22.5850622,12.7763409 22.6179465,12.8075487 22.6525578,12.837417 C22.6785646,12.8608172 22.7113519,12.8880185 22.7452785,12.9140692 C22.7940129,12.9507216 22.7940129,12.9507216 22.8440702,12.9852994 C22.8790391,13.0090555 22.9159187,13.0319824 22.9539008,13.0535464 C22.9856647,13.0722279 23.0234177,13.092444 23.0622191,13.1113597 C23.0966771,13.1286113 23.1357794,13.1462684 23.1758983,13.1625592 C23.209395,13.1767301 23.2484686,13.1915781 23.2881114,13.2050326 C23.3499345,13.2247859 23.3499345,13.2247859 23.4087541,13.2409913 C23.4484815,13.2515073 23.4883066,13.2607022 23.5282193,13.2685674 C23.5711285,13.2767874 23.6119774,13.2832649 23.6528848,13.2884075 C23.6923572,13.2935184 23.7341128,13.2973957 23.7767063,13.2998803 C23.8383237,13.3027611 23.8383237,13.3027611 23.8995079,13.3030526 C23.9418083,13.3026917 23.9829551,13.300987 24.0240771,13.2979323 C24.0862512,13.2924976 24.0862512,13.2924976 24.1471258,13.2846125 C24.1890559,13.2787423 24.2305096,13.2714128 24.2714687,13.2626187 C24.3133801,13.2534197 24.3133801,13.2534197 24.3561454,13.2427852 C24.4011758,13.2304017 24.4011758,13.2304017 24.4413428,13.2184047 C24.4883925,13.2030438 24.4883925,13.2030438 24.5293685,13.1883319 C24.570911,13.1727529 24.570911,13.1727529 24.6121795,13.155901 C24.6570811,13.1361165 24.6570811,13.1361165 24.696078,13.1176065 C24.7349442,13.0985391 24.7349442,13.0985391 24.7735485,13.0783692 C24.8172713,13.0538919 24.8172713,13.0538919 24.8541635,13.0318958 C24.8930704,13.008035 24.8930704,13.008035 24.9320837,12.9820166 C24.9670826,12.9577772 24.9670826,12.9577772 25.000821,12.9334371 C25.0410444,12.9025307 25.0410444,12.9025307 25.073537,12.8763195 C25.1117638,12.8434518 25.1117638,12.8434518 25.1420582,12.8162662 C25.1763135,12.7845728 25.1763135,12.7845728 25.2086251,12.7526173 C25.2407582,12.7197335 25.2407582,12.7197335 25.2717076,12.6857493 C25.2977432,12.6565698 25.2977432,12.6565698 25.3243195,12.6258503 C25.3601999,12.581125 25.3601999,12.581125 25.3872475,12.5446256 C25.4097028,12.5137338 25.4097028,12.5137338 25.4325978,12.4814262 C25.4637813,12.4338782 25.4637813,12.4338782 25.487019,12.3954328 C25.5096407,12.3565191 25.5096407,12.3565191 25.530719,12.3176833 C25.5513882,12.2782077 25.5513882,12.2782077 25.5708664,12.2380881 C25.589611,12.1979747 25.589611,12.1979747 25.6071896,12.1573132 C25.6241826,12.1163856 25.6241826,12.1163856 25.6400008,12.0749417 C25.6572754,12.0269191 25.6572754,12.0269191 25.6721096,11.9775309 C25.6829721,11.9431812 25.6829721,11.9431812 25.695728,11.8933697 C25.7041476,11.8585215 25.7041476,11.8585215 25.712566,11.8234917 C25.7241213,11.7655549 25.7241213,11.7655549 25.7312036,11.7226077 C25.7385314,11.6720154 25.7385314,11.6720154 25.7432102,11.6211247 C25.7464956,11.5933451 25.7464956,11.5933451 25.7501642,11.550169 C25.7524954,11.4911494 25.7524954,11.4911494 25.7527778,11.4477814 C25.7538057,11.4122592 25.7538057,11.4122592 25.7524706,11.3611349 C25.7504956,11.3178344 25.7504956,11.3178344 25.7473865,11.2745604 C25.741694,11.2236164 25.741694,11.2236164 25.7375166,11.1882245 C25.7308179,11.1374036 25.7308179,11.1374036 25.7215182,11.0871561 C25.7144848,11.051778 25.7144848,11.051778 25.7074494,11.016671 C25.6936206,10.9592963 25.6936206,10.9592963 25.6819496,10.917195 C25.6672195,10.8679201 25.6672195,10.8679201 25.6499123,10.8194623 C25.6407372,10.7918274 25.6407372,10.7918274 25.6255315,10.7507433 C25.6056843,10.7029495 25.6056843,10.7029495 25.5911875,10.6690511 C25.569339,10.6222016 25.569339,10.6222016 25.5530189,10.5883498 C25.5293355,10.5430241 25.5293355,10.5430241 25.5116048,10.5100746 C25.481967,10.4596691 25.481967,10.4596691 25.4578834,10.4218899 C25.4365707,10.3893068 25.4365707,10.3893068 25.4156634,10.3579457 C25.3813666,10.3104501 25.3813666,10.3104501 25.353232,10.2744969 C25.3245042,10.2390168 25.3245042,10.2390168 25.2946064,10.2045011 C25.2695421,10.1749202 25.2695421,10.1749202 25.2339126,10.1373116 C25.2064018,10.1081835 25.2064018,10.1081835 25.169047,10.0726675 C25.1402167,10.0450834 25.1402167,10.0450834 25.1008201,10.0113002 C25.073917,9.98801864 25.073917,9.98801864 25.0382372,9.9593253 C25.0010264,9.93061768 25.0010264,9.93061768 24.963762,9.90387729 C24.9249358,9.87706642 24.9249358,9.87706642 24.8850555,9.85170791 C24.8535037,9.83152183 24.8535037,9.83152183 24.8138687,9.80816515 C24.7731635,9.78518137 24.7731635,9.78518137 24.7315155,9.76368935 C24.6926969,9.7444202 24.6926969,9.7444202 24.6536169,9.72626729 C24.6097433,9.70721996 24.6097433,9.70721996 24.5721674,9.69181039 C24.5259284,9.6741587 24.5259284,9.6741587 24.484882,9.65982053 C24.4404752,9.64512167 24.4404752,9.64512167 24.395352,9.63204022 C24.3541701,9.62076243 24.3541701,9.62076243 24.3134062,9.61064067 C24.2662004,9.60002052 24.2662004,9.60002052 24.2223849,9.59160758 C24.1761714,9.58370778 24.1761714,9.58370778 24.1330704,9.57754116 C24.0870466,9.57172127 24.0870466,9.57172127 24.0405362,9.56755199 C23.9975957,9.56429089 23.9975957,9.56429089 23.9528732,9.56224358 C23.9064019,9.56097356 23.9064019,9.56097356 23.8605135,9.56130094 C23.8175409,9.56216445 23.8175409,9.56216445 23.7727947,9.56441763 C23.7260367,9.5677564 23.7260367,9.5677564 23.6818673,9.57235016 C23.6376929,9.57748929 23.6376929,9.57748929 23.5934604,9.58415831 Z" ></path>
    </g>
</svg>