<svg viewBox="0 0 48 48" version="1.1" xmlns="http://www.w3.org/2000/svg" stroke="none" stroke-width="1" fill="currentColor" fill-rule="evenodd">
    <g id="icon-single-origin">
        <path d="M23.3358065,4.08387097 C26.4908602,3.79569892 29.9626882,5.0827957 32.415914,7.02365591 C32.5046595,7.09318996 32.5925806,7.16379928 32.6796774,7.23548387 C32.7667025,7.30716846 32.8528674,7.37992832 32.938172,7.45376344 C33.0234767,7.52688172 33.1078495,7.60143369 33.1912903,7.67741935 C33.2747312,7.75340502 33.3572401,7.83046595 33.4388172,7.90860215 C33.5203943,7.98602151 33.6010036,8.06451613 33.6806452,8.14408602 C33.7602867,8.22437276 33.8389247,8.30537634 33.9165591,8.38709677 C33.9942652,8.4688172 34.0709319,8.5516129 34.1465591,8.63548387 C34.2221864,8.71863799 34.2967742,8.80286738 34.3703226,8.88817204 C34.4439427,8.97419355 34.5164516,9.06057348 34.5878495,9.14731183 C34.659319,9.23476703 34.7297133,9.32293907 34.7990323,9.41182796 C34.8683513,9.50071685 34.9365591,9.590681 35.0036559,9.68172043 C35.0707527,9.77204301 35.1367384,9.86344086 35.2016129,9.95591398 C35.2664875,10.0483871 35.3302151,10.1415771 35.3927957,10.2354839 C35.4553763,10.3293907 35.51681,10.4240143 35.5770968,10.5193548 C35.6373835,10.6146953 35.6964875,10.7107527 35.7544086,10.8075269 C35.8123297,10.9043011 35.8690681,11.0017921 35.9246237,11.1 C35.9801075,11.1982079 36.0344086,11.2971326 36.0875269,11.3967742 C36.1406452,11.4956989 36.1925448,11.5956989 36.2432258,11.6967742 C36.2939068,11.7978495 36.3433333,11.8992832 36.3915054,12.0010753 C36.4396774,12.1028674 36.4866308,12.2053763 36.5323656,12.3086022 C36.5780287,12.411828 36.6224014,12.5157706 36.6654839,12.6204301 C36.708638,12.7243728 36.7505018,12.8290323 36.7910753,12.9344086 C36.8316487,13.0397849 36.8709319,13.1455197 36.9089247,13.2516129 C36.9469176,13.3577061 36.9835842,13.4645161 37.0189247,13.572043 C37.0543369,13.6795699 37.0883871,13.7870968 37.1210753,13.8946237 C37.1538351,14.0028674 37.1852688,14.1114695 37.2153763,14.2204301 C37.2454839,14.3286738 37.2742294,14.4376344 37.3016129,14.5473118 C37.3290681,14.6569892 37.3551613,14.7666667 37.3798925,14.8763441 C37.4046237,14.9867384 37.4279928,15.097491 37.45,15.2086022 C37.4720072,15.3189964 37.4926882,15.4297491 37.512043,15.5408602 C37.5313262,15.6519713 37.5492473,15.7634409 37.5658065,15.8752688 C37.5824373,15.9870968 37.5976703,16.0989247 37.6115054,16.2107527 C37.805914,17.9215054 37.6470968,19.5709677 37.108172,21.2064516 C35.2210753,26.9322581 28.2183871,35.016129 24.3880645,39.827957 C24.2586022,39.8645161 24.1096774,39.9129032 23.976129,39.9268817 C23.747957,39.9516129 23.5433333,39.8494624 23.3730108,39.7064516 C22.1424731,38.6731183 21.1603226,37.016129 20.1627957,35.7537634 C16.6537634,31.3096774 10.4650538,24.0548387 10.0811828,18.3580645 C9.84655914,14.8763441 11.2084946,11.388172 13.4845161,8.79139785 C16.0460215,5.86774194 19.4974194,4.33548387 23.3358065,4.08387097 Z M23.1678495,5.59462366 C19.7149462,5.87956989 16.6451613,7.32043011 14.3934409,10.0053763 C12.4621505,12.3096774 11.2996774,15.4806452 11.5847312,18.5043011 C11.7394624,20.1462366 12.3792473,21.7150538 13.131828,23.1666667 C15.0801075,26.9225806 17.8617204,30.3376344 20.4441935,33.6774194 C21.5419355,35.0967742 22.6087097,36.6107527 23.82,37.9322581 L23.9384946,37.9580645 L24.3111828,37.5387097 C27.7549462,33.1408602 34.1197849,25.7462366 35.7687097,20.4892473 C35.8216846,20.3243728 35.8700717,20.1580645 35.913871,19.9903226 C35.9577419,19.8225806 35.9969534,19.6537634 36.0315054,19.483871 C36.066129,19.3139785 36.0960573,19.1433692 36.1212903,18.972043 C36.146595,18.8 36.1671685,18.6275986 36.1830108,18.4548387 C36.198853,18.2827957 36.2099642,18.1100358 36.2163441,17.9365591 C36.222724,17.7630824 36.2243369,17.5896057 36.2211828,17.416129 C36.2181004,17.2426523 36.2102867,17.0695341 36.1977419,16.8967742 C36.1851254,16.7240143 36.1678136,16.5516129 36.1458065,16.3795699 C36.1331183,16.2792115 36.1191756,16.1792115 36.1039785,16.0795699 C36.088853,15.9799283 36.072509,15.8806452 36.0549462,15.7817204 C36.0373118,15.6820789 36.0184946,15.5827957 35.9984946,15.483871 C35.9784946,15.3849462 35.9573118,15.2863799 35.9349462,15.188172 C35.912509,15.0899642 35.8888889,14.9921147 35.864086,14.8946237 C35.8392832,14.7964158 35.8132975,14.6989247 35.786129,14.6021505 C35.7589606,14.5046595 35.7306093,14.4078853 35.7010753,14.311828 C35.6714695,14.2150538 35.6407527,14.1189964 35.6089247,14.0236559 C35.5770251,13.9283154 35.5439785,13.8329749 35.5097849,13.7376344 C35.4755197,13.6430108 35.4401434,13.5487455 35.4036559,13.4548387 C35.3671685,13.3609319 35.3294982,13.2673835 35.2906452,13.1741935 C35.2518638,13.0810036 35.2119355,12.9885305 35.1708602,12.8967742 C35.1297849,12.8043011 35.0875986,12.7125448 35.0443011,12.6215054 C35.0010036,12.5304659 34.9566308,12.4401434 34.9111828,12.3505376 C34.8656631,12.2602151 34.8190681,12.1706093 34.7713978,12.0817204 C34.7236559,11.9928315 34.6748746,11.9046595 34.6250538,11.8172043 C34.575233,11.7297491 34.5243369,11.6426523 34.4723656,11.555914 C34.4203943,11.4698925 34.3673835,11.3842294 34.3133333,11.2989247 C34.2592832,11.2143369 34.2041935,11.1301075 34.1480645,11.0462366 C34.0919355,10.9623656 34.0348029,10.8792115 33.9766667,10.7967742 C33.9185305,10.7143369 33.8593907,10.6326165 33.7992473,10.5516129 C33.7391039,10.4713262 33.6779928,10.3913978 33.615914,10.311828 C33.5538351,10.2322581 33.4907885,10.1537634 33.4267742,10.0763441 C33.3627599,9.99820789 33.2978136,9.92114695 33.2319355,9.84516129 C33.1659857,9.76845878 33.0991756,9.69283154 33.0315054,9.61827957 C32.9637634,9.5437276 32.8951254,9.4702509 32.8255914,9.39784946 C32.7560573,9.32473118 32.6856272,9.25268817 32.6143011,9.18172043 C32.5430466,9.11003584 32.4708961,9.03942652 32.3978495,8.96989247 C32.3248746,8.90107527 32.2510394,8.83261649 32.1763441,8.76451613 C32.1016487,8.69713262 32.0261649,8.63046595 31.9498925,8.56451613 C31.8735484,8.49928315 31.7964516,8.4344086 31.7186022,8.36989247 C31.640681,8.30609319 31.5620072,8.24336918 31.4825806,8.18172043 C29.1610753,6.35376344 26.1208602,5.36236559 23.1678495,5.59462366 Z M23.9962366,9.89247312 C25.3487097,9.78064516 26.6922581,9.98494624 27.8590323,10.7215054 C29.2503226,11.5989247 30.1006452,13.0569892 30.4264516,14.6473118 C30.9329032,17.1172043 30.2783871,19.7645161 28.9055914,21.8483871 C27.4805376,24.011828 25.5007527,25.5182796 22.9531183,26.0311828 C21.5916129,26.1376344 20.2450538,25.9516129 19.0767742,25.1924731 C17.7325806,24.3193548 16.9684946,22.8365591 16.6524731,21.3010753 C16.1222581,18.7236559 16.8633333,15.972043 18.313871,13.8182796 C19.6998925,11.7602151 21.5503226,10.3731183 23.9962366,9.89247312 Z M27.332043,12.283871 C23.4678495,15.9419355 25.0880645,17.8817204 22.9324731,21.5419355 C22.3641935,22.5064516 21.4275269,23.4107527 20.6743011,24.2365591 C21.0692473,24.611828 21.946129,24.5655914 22.4590323,24.5666667 C24.4383871,24.311828 26.0143011,23.1526882 27.2210753,21.6086022 C28.574086,19.8784946 29.3217204,17.588172 29.0498925,15.3849462 C28.9212903,14.3419355 28.4949462,13.1677419 27.6426882,12.4956989 C27.5309677,12.4075269 27.4583871,12.3655914 27.332043,12.283871 Z M23.8626882,11.4053763 C21.7862366,11.9903226 20.203871,13.4752688 19.1517204,15.3333333 C18.1345161,17.1290323 17.6269892,19.3516129 18.1969892,21.3763441 C18.3750538,22.0096774 18.6489247,22.711828 19.1312903,23.1698925 C19.4043011,23.2397849 19.3897849,23.227957 19.6396774,23.0913978 C21.1443011,21.6301075 22.1370968,20.1698925 22.5933333,18.0946237 C22.7743011,17.2709677 22.9089247,16.411828 23.1932258,15.6172043 C23.7863441,13.9591398 24.7903226,12.6892473 26.013871,11.4526882 C25.2758065,11.3709677 24.6044086,11.3096774 23.8626882,11.4053763 Z M18.583871,37.3784946 C18.9493548,37.327957 19.1534409,37.3537634 19.5102151,37.4494624 C19.7574194,37.683871 19.7687097,37.6817204 19.8148387,38.0172043 C19.1494624,39.7215054 15.3175269,38.6419355 14.224086,40.2956989 C14.1195699,40.4537634 14.1806452,40.5322581 14.2139785,40.7032258 C14.3606452,40.8537634 14.4915054,40.9731183 14.6801075,41.0709677 C18.5568817,43.0892473 28.4883871,42.7473118 32.5832258,41.2967742 C33.0764516,41.1225806 33.4990323,40.9946237 33.7347312,40.4989247 L33.6488172,40.2591398 C32.5126882,39.1483871 30.2197849,39.2021505 28.7432258,38.7591398 C28.3691398,38.6473118 28.1170968,38.5333333 27.922043,38.1903226 C27.9506452,37.8301075 27.947957,37.8086022 28.1813978,37.5354839 C28.988172,37.1860215 29.9094624,37.4666667 30.7429032,37.6053763 C31.6587097,37.8247312 32.5910753,38.0268817 33.4558065,38.4086022 C34.133871,38.7086022 34.9077419,39.1731183 35.1544086,39.9215054 C35.2946237,40.3473118 35.2405376,40.8075269 35.0273118,41.1978495 C34.3864516,42.3731183 32.5697849,42.9086022 31.3469892,43.2139785 C27.092043,44.2752688 17.4210753,44.5193548 13.7021505,42.1537634 C13.1516129,41.8043011 12.5636559,41.2365591 12.4592473,40.5580645 C12.4046237,40.2021505 12.5178495,39.8612903 12.7339785,39.5817204 C13.9105376,38.0591398 16.8089247,37.6129032 18.583871,37.3784946 Z"></path>
    </g>
</svg>