<svg viewBox="0 0 432 432" version="1.1" xmlns="http://www.w3.org/2000/svg">
        <g id="favicon-512" transform="translate(-40.000000, -40.000000)" fill="#F62009">
            <g id="espress-logo-mark-60" transform="translate(40.000000, 40.000000)">
                <path d="M246.389373,135.503499 C208.174699,135.718293 174.36222,154.519602 153.532998,183.326368 L130.524103,67.7654188 C155.208681,51.5169689 146.199685,7.38576031 171.585785,0.583575226 C169.49204,18.6665007 190.603506,45.5919453 215.596795,44.8110658 L246.38937,135.503493 L246.389373,135.503499 Z" id="Path" opacity="0.6"></path>
                <path d="M279.399045,254.346132 L301.353313,364.204174 C276.668736,380.452624 285.564249,424.61424 260.178149,431.416425 C262.271895,413.333499 240.806639,386.307764 215.81335,387.088644 L187.697064,303.778527 C225.676575,302.813764 259.092358,283.487848 279.399045,254.346132 Z" id="Path" opacity="0.6"></path>
                <path d="M212.981992,140.616688 C178.589099,151.23628 151.067925,177.512142 138.74286,211.119881 L67.8425975,130.304019 C81.0958441,103.89016 51.2282207,70.17591 69.812136,51.5919947 C77.0403619,68.2991403 108.78615,81.0615262 130.040534,67.8886202 L212.981992,140.616688 Z" id="Path" opacity="0.3"></path>
                <path d="M294.826807,222.873119 L364.004411,301.612906 C350.751165,328.026766 380.535714,361.82409 361.951798,380.408005 C354.723573,363.70086 322.621248,351.028515 301.366865,364.201421 L224.674803,296.704743 C258.058782,284.372216 284.171521,257.032937 294.826807,222.873119 Z" id="Path" opacity="0.3"></path>
                <path d="M184.502665,153.920686 C154.184472,173.52978 133.654163,206.97941 131.853457,245.327857 L44.8281219,215.804789 C43.0988405,186.303092 0.375594912,172.039507 7.17778,146.653406 C21.7911801,157.508106 55.6650322,152.687762 67.4854153,130.652499 L184.502665,153.920686 Z" id="Path" opacity="0.4"></path>
                <path d="M300.033362,186.658672 L386.96622,216.08173 C388.695501,245.583426 431.38834,259.960493 424.586154,285.346594 C409.972754,274.491894 375.835154,279.568483 364.014771,301.603746 L255.216017,279.762875 C282.482769,258.669947 300.039344,225.630061 300.039344,188.489617 C300.039344,187.917972 300.039344,187.306671 300.033362,186.658672 Z" id="Path" opacity="0.4"></path>
                <path d="M157.690522,177.919412 C141.459872,197.788673 131.72459,223.171646 131.72459,250.828415 C131.72459,258.11962 133.216507,273.335146 144.319087,286.092058 L67.6473861,301.357865 C51.3989361,276.673287 7.26772753,285.682282 0.46554244,260.296182 C18.5484679,262.389927 45.4739125,241.278461 44.693033,216.285172 L157.690522,177.919412 Z" id="Path" opacity="0.6"></path>
                <path d="M281.151635,147.102465 L364.086141,130.528654 C380.334591,155.213232 424.496207,146.317718 431.298392,171.703818 C413.215467,169.610073 386.189732,191.075328 386.970611,216.068617 L281.131059,251.788351 C293.084469,233.617399 300.039344,211.865707 300.039344,188.489617 C300.039344,180.748898 300.039344,165.736651 285.184896,150.801378 C283.843969,149.453155 282.497469,148.223667 281.151635,147.102465 Z" id="Path" opacity="0.6"></path>
                <path d="M134.447819,225.800546 C132.664744,233.858763 131.72459,242.233797 131.72459,250.828415 C131.72459,258.569135 133.406136,275.241389 146.484053,288.421042 C159.561971,301.600696 176.971849,303.816393 184.712568,303.816393 C189.885605,303.816393 194.979092,303.4758 199.971828,302.815813 L130.185986,364.03937 C103.772127,350.786123 70.0578772,380.653746 51.4739619,362.069831 C68.1811075,354.841605 80.9434934,323.095817 67.7705874,301.841433 L134.447819,225.800546 Z" id="Path" opacity="0.8"></path>
                <path d="M221.217126,138.40635 L301.494874,67.8775559 C327.908733,81.1308025 361.706057,51.3462535 380.289972,69.9301688 C363.582827,77.1583947 350.910482,109.260719 364.083388,130.515102 L298.930894,204.543622 C299.661607,199.297021 300.039344,193.937432 300.039344,188.489617 C300.039344,180.748898 300.039344,165.736651 285.184896,150.801378 C270.330448,135.866104 254.792086,135.501639 247.051366,135.501639 C238.169687,135.501639 229.522506,136.505644 221.217126,138.40635 Z" id="Path" opacity="0.8"></path>
                <path d="M145.784778,287.701726 C146.014172,287.942594 146.247244,288.182391 146.484053,288.421042 C159.561971,301.600696 176.971849,303.816393 184.712568,303.816393 C209.401432,303.816393 232.278325,296.058428 251.038453,282.847294 L215.686756,387.053845 C186.185059,388.783127 171.921474,431.506372 146.535374,424.704187 C157.390073,410.090787 152.569729,376.216935 130.534466,364.396552 L145.784778,287.701726 Z" id="Path" opacity="0.9"></path>
                <path d="M177.378631,158.918516 L215.963697,44.9157474 C245.465394,43.1864659 259.84246,0.493627699 285.228561,7.29581278 C274.373861,21.9092128 279.45045,56.0468137 301.485714,67.8671967 L284.895138,150.511971 C270.12877,135.861381 254.741769,135.501639 247.051366,135.501639 C220.874416,135.501639 196.734446,144.22299 177.378631,158.918516 Z" id="Path" opacity="0.9"></path>
                <path d="M165.073218,281.974144 C169.997002,283.367947 194.084675,222.709027 224.77456,231.396581 C255.464445,240.084135 273.223735,159.0992 267.023414,157.344041 C262.09963,155.950239 238.666787,216.215318 207.477634,207.386433 C176.28848,198.557549 158.872897,280.218986 165.073218,281.974144 Z" id="Path"></path>
            </g>
            </g>
</svg>